<?xml version="1.0" encoding="UTF-8" standalone="no"?>
<!-- Created with Inkscape (http://www.inkscape.org/) -->

<svg
   width="86.844742"
   height="78.993332"
   viewBox="0 0 86.844742 78.993332"
   version="1.1"
   id="SVGRoot"
   sodipodi:docname="1.svg"
   inkscape:version="1.2 (dc2aedaf03, 2022-05-15)"
   xmlns:inkscape="http://www.inkscape.org/namespaces/inkscape"
   xmlns:sodipodi="http://sodipodi.sourceforge.net/DTD/sodipodi-0.dtd"
   xmlns="http://www.w3.org/2000/svg"
   xmlns:svg="http://www.w3.org/2000/svg">
  <sodipodi:namedview
     id="namedview8"
     pagecolor="#505050"
     bordercolor="#ffffff"
     borderopacity="1"
     inkscape:showpageshadow="0"
     inkscape:pageopacity="0"
     inkscape:pagecheckerboard="1"
     inkscape:deskcolor="#505050"
     showgrid="false"
     inkscape:zoom="8.14"
     inkscape:cx="43.734644"
     inkscape:cy="39.250614"
     inkscape:window-width="1920"
     inkscape:window-height="1001"
     inkscape:window-x="-9"
     inkscape:window-y="-9"
     inkscape:window-maximized="1"
     inkscape:current-layer="SVGRoot" />
  <defs
     id="defs683" />
  <g
     id="layer1"
     transform="translate(-6.2222362,-10.837445)">
    <path
       d="m 87.047414,50.558777 -4.010933,-0.158667 3.9104,-0.908 c 4.55,-1.056 6.3412,-4.14 6.098533,-6.726666 -0.2308,-2.449334 -2.343333,-4.996 -6.544266,-5.168 l -1.098534,-0.04533 0.7068,-0.842667 c 1.322934,-1.574667 1.6016,-3.506667 0.7656,-5.301333 -0.9848,-2.114667 -3.312933,-3.374667 -5.103066,-2.669334 l -1.214667,0.481334 0.5204,-1.198667 c 0.722933,-1.661336 0.513467,-3.837336 -0.519866,-5.413336 -1.372934,-2.093333 -3.787467,-2.486667 -6.354667,-0.929333 l -0.845867,0.512 0.02667,-0.988 c 0.09,-3.461334 -0.7652,-6.142667 -2.543333,-7.966667 -1.506133,-1.546667 -3.661867,-2.398666 -6.0708,-2.398666 -3.202,0 -6.262933,1.549333 -7.2796,3.682666 v 0 c -0.0224,0.04933 -1.0896,2.4 -0.475067,4.276 1,3.046667 2.970801,4.646667 5.267201,4.278667 1.710933,-0.273334 3.001066,-1.613334 3.001066,-3.117334 h 1.079067 c 0,2.029334 -1.680667,3.828 -3.909867,4.184 -0.2484,0.04 -0.505733,0.06133 -0.767733,0.06133 -2.0708,0 -4.464,-1.313334 -5.695734,-5.070667 -0.623466,-1.902667 0.1036,-4.036 0.4036,-4.784 -1.313066,-2.046667 -3.453599,-3.222666 -5.928666,-3.222666 -2.716133,0 -5.814533,1.543999 -6.615067,4.993333 l -0.218266,0.94 -0.6864,-0.677334 c -1.682267,-1.656 -4.0208,-2.568 -6.585467,-2.568 -2.900533,0 -5.551066,1.201334 -6.7516,3.062667 -0.8828,1.368 -0.933333,3.010667 -0.1468,4.749333 l 1.285867,2.844 -2.166667,-2.246666 c -1.679066,-1.74 -3.440533,-2.661334 -5.095733,-2.661334 -1.362,0 -2.599466,0.625334 -3.486533,1.761334 -1.028627,1.317333 -1.398933,3.08 -0.99008,4.713333 l 0.218213,0.873333 -0.872893,-0.218667 c -2.633333,-0.66 -5.5474,0.882667 -6.552093,3.378667 -0.772388,1.916 -0.266667,3.926667 1.386987,5.518667 l 0.80624,0.774666 -1.108854,0.149334 c -5.2182267,0.701333 -6.8416617,4.346666 -6.6473917,7.254666 0.183855,2.745333 2.098965,5.524 5.4057257,5.524 1.44324,-0.0013 3.014066,-0.517333 4.666666,-1.533333 l 2.429693,-1.494667 -1.714586,2.28 c -1.738534,2.308 -2.20312,4.438666 -1.345307,6.157333 0.82812,1.658667 2.834893,2.730667 5.113547,2.730667 2.2292,0 4.1224,-1.017334 5.207866,-2.789334 0.09267,-0.289333 0.4588,-1.273333 1.263467,-2.097333 l 0.09947,-0.165333 -0.01093,0.08133 c 0.242667,-0.234667 0.510933,-0.457333 0.833333,-0.636 0.695334,-0.388 1.471867,-0.536 2.321334,-0.44 -0.625467,-3.125333 1.4328,-5.770666 4.01,-6.870666 2.4604,-1.049334 5.578,-0.822667 7.492133,1.798666 1.324533,-3.109333 4.326,-3.813333 6.6828,-3.412 3.397866,0.58 6.694266,3.52 6.328133,7.437334 -0.062,0.66 -0.2036,1.246666 -0.3776,1.799999 l 0.3636,-0.092 c 0.728,2.873334 3.228,3.790667 5.393733,3.430667 2.230134,-0.373333 4.513467,-2.172 4.2552,-5.233333 l -0.117733,-1.392 1.023466,0.952 c 2.9776,2.768 6.162934,3.638666 8.966667,2.457333 2.504667,-1.054666 4.298933,-3.644 4.3624,-6.298666 0.05373,-2.201334 -1.09,-3.976 -3.221333,-4.997334 l -0.661467,-0.317333 0.5,-0.537333 c 1.893733,-2.036 2.443333,-4.084 1.548533,-5.769333 -0.866666,-1.630667 -2.993866,-2.632 -4.931866,-2.325334 -1.036934,0.162667 -2.8328,0.853334 -3.371334,3.572 0.991734,2.72 0.4568,6.006667 -1.664533,9.321333 L 66.178758,44.32677 c 2.651467,-4.145333 2.643734,-8.206666 -0.0204,-10.862666 -2.241599,-2.233334 -5.703066,-2.776 -8.053066,-1.262667 l -0.958934,0.617333 0.129734,-1.133333 c 0.352666,-3.082667 -1.5396,-5.026667 -3.5708,-5.582667 -1.636,-0.448 -3.9292,-0.09867 -5.0292,2.354667 l -0.536933,1.2 -0.462,-1.230667 c -1.0344,-2.758666 -3.206267,-4.009333 -5.815067,-3.345333 -2.250533,0.573333 -4.466666,2.704 -4.123466,5.150667 l 0.182266,1.293333 -1.042133,-0.788 c -1.616667,-1.222667 -3.926667,-1.317333 -5.7464,-0.233333 -1.7636,1.052 -2.625467,2.932 -2.3052,5.032 l -1.067733,0.162666 c -0.389067,-2.549333 0.665066,-4.837333 2.819733,-6.121333 1.878133,-1.117333 4.198533,-1.190667 6.0584,-0.256 0.211467,-2.593333 2.521333,-4.666666 4.958266,-5.285333 2.2376,-0.572 5.0448,-0.02667 6.643334,3.004 1.430666,-2.054667 3.819733,-2.510667 5.751066,-1.978667 2.176533,0.596 4.344667,2.624 4.406133,5.764 2.695334,-1.173333 6.193867,-0.449333 8.524534,1.874667 0.451066,0.449333 0.816133,0.941333 1.1364,1.453333 0.702133,-1.766667 2.064666,-2.917333 3.9,-3.205333 2.419866,-0.378667 4.962533,0.834666 6.052133,2.885333 0.617733,1.161333 1.229733,3.501333 -1.251067,6.489333 2.1084,1.246667 3.2704,3.277333 3.212533,5.665333 -0.07453,3.064 -2.140133,6.053333 -5.023466,7.268 -0.873867,0.368 -2.1724,0.716 -3.763467,0.557333 -1.319333,0.14 -2.620933,1.012 -3.4068,2.293334 -0.894266,1.457333 -1.0068,3.22 -0.3172,4.961333 l 0.544267,1.373333 -1.302133,-0.698666 c -1.756267,-0.944 -3.502,-1 -4.9156,-0.154667 -1.224,0.730667 -2.013467,2.049333 -2.031734,3.369333 l -0.0084,0.09333 c -0.1176,1.296 0.289601,2.526667 1.146934,3.465334 1.688,1.848 4.834933,2.150666 7.342666,0.573333 l 0.9136,-0.573333 -0.088,1.076 c -0.1672,2.045333 0.326,3.757333 1.426534,4.953333 1.007733,1.092 2.5068,1.718667 4.114,1.718667 1.626666,0 3.120399,-0.645334 3.994266,-1.726667 0.802133,-0.990667 1.0584,-2.304 0.739067,-3.797333 l -0.2448,-1.146667 1.0308,0.558667 c 1.516666,0.824 2.980666,1.241333 4.352133,1.241333 2.533733,0 4.6728,-1.478667 5.721866,-3.954667 1.204667,-2.842666 0.635334,-6.071999 -1.450533,-8.225333 l -0.776133,-0.801333 1.1104,-0.112 c 2.083333,-0.209333 3.424,-2.244 3.370933,-4.013333 -0.06773,-2.204 -2.086533,-3.598667 -5.402667,-3.728"
       style="fill:#f68912;fill-opacity:1;fill-rule:nonzero;stroke:none;stroke-width:0.133333"
       id="path790" />
    <path
       d="m 61.232882,60.66011 c 0.875999,-0.522667 2.581733,-1.184 4.860933,-0.369333 -0.368267,-1.674667 -0.109867,-3.326667 0.762533,-4.748 0.577067,-0.94 1.3916,-1.697334 2.306667,-2.194667 -1.070267,-0.378667 -2.2244,-1 -3.439067,-1.976 -0.306133,3 -2.75,4.766667 -5.144266,5.169333 -0.3604,0.06133 -0.7276,0.092 -1.096267,0.092 -2.1136,0 -4.259467,-1.038666 -5.233867,-3.476 -1.068266,2.176 -3.031733,3.269334 -4.959333,3.269334 -0.147466,0 -0.293333,-0.0053 -0.439066,-0.01867 -2.049067,-0.174667 -4.145334,-1.756 -3.906267,-4.813333 l 1.077067,0.08533 c -0.182267,2.334667 1.335333,3.516 2.921866,3.652 2.235867,0.188 4.6656,-1.497333 5.0016,-5.094666 0.307733,-3.293334 -2.521466,-5.776 -5.433866,-6.273334 -2.272934,-0.388 -4.9948,0.396 -5.8344,3.754667 l -0.354134,1.416 -0.6532,-1.305333 c -1.477599,-2.956 -4.441599,-3.296 -6.728133,-2.322667 -2.280133,0.973333 -4.244266,3.390667 -3.169733,6.398666 l 0.355733,0.997334 -1.016133,-0.297334 c -0.912533,-0.266666 -1.7188,-0.213333 -2.394267,0.158667 -1.1636,0.641333 -1.632399,2.029333 -1.692266,2.221333 -0.0208,0.196 -0.192133,2.137334 1.085466,3.592 0.990134,1.128 2.610934,1.7 4.817734,1.7 h 11.602533 l -0.192667,0.688 c -0.0036,0.01333 -0.340133,1.253334 0.390133,2.216 0.644267,0.849334 1.928134,1.281334 3.815067,1.281334 h 10.164533 c 0.185467,-1.518667 1.131867,-2.969334 2.525067,-3.802667"
       style="fill:#f68912;fill-opacity:1;fill-rule:nonzero;stroke:none;stroke-width:0.133333"
       id="path792" />
    <path
       d="m 69.694348,75.27611 c -1.126133,-1.221334 -1.7208,-2.866667 -1.744267,-4.797334 -2.7656,1.317334 -6.019866,0.776 -7.854266,-1.234666 -0.9328,-1.021334 -1.437467,-2.318667 -1.449467,-3.701334 h -1.9916 l 11.482267,24.287999 h 9.408799 L 71.212081,76.43211 c -0.559466,-0.317334 -1.084933,-0.686667 -1.517733,-1.156"
       style="fill:#f1511b;fill-opacity:1;fill-rule:nonzero;stroke:none;stroke-width:0.133333"
       id="path794" />
  </g>
</svg>
