<?xml version="1.0" encoding="UTF-8" standalone="no"?>
<!-- Created with Inkscape (http://www.inkscape.org/) -->

<svg
   width="102.87963"
   height="77.089325"
   viewBox="0 0 102.87963 77.089325"
   version="1.1"
   id="SVGRoot"
   sodipodi:docname="11.svg"
   inkscape:version="1.2 (dc2aedaf03, 2022-05-15)"
   xmlns:inkscape="http://www.inkscape.org/namespaces/inkscape"
   xmlns:sodipodi="http://sodipodi.sourceforge.net/DTD/sodipodi-0.dtd"
   xmlns="http://www.w3.org/2000/svg"
   xmlns:svg="http://www.w3.org/2000/svg">
  <sodipodi:namedview
     id="namedview585"
     pagecolor="#505050"
     bordercolor="#ffffff"
     borderopacity="1"
     inkscape:showpageshadow="0"
     inkscape:pageopacity="0"
     inkscape:pagecheckerboard="1"
     inkscape:deskcolor="#505050"
     inkscape:document-units="px"
     showgrid="false"
     inkscape:zoom="4.1020923"
     inkscape:cx="51.680943"
     inkscape:cy="-51.315276"
     inkscape:window-width="1920"
     inkscape:window-height="1001"
     inkscape:window-x="-9"
     inkscape:window-y="-9"
     inkscape:window-maximized="1"
     inkscape:current-layer="layer1" />
  <defs
     id="defs580" />
  <g
     inkscape:label="Warstwa 1"
     inkscape:groupmode="layer"
     id="layer1"
     transform="translate(41.932473,-45.802542)">
    <path
       d="m 46.976494,89.491871 -4.414667,-0.173333 4.302667,-0.998667 c 5.004,-1.16 6.976,-4.552 6.708,-7.395999 -0.252,-2.694667 -2.576,-5.497334 -7.197333,-5.686667 l -1.208,-0.04933 0.777333,-0.925334 c 1.454667,-1.733333 1.761333,-3.86 0.841333,-5.834666 -1.084,-2.325333 -3.652,-3.716 -5.616,-2.933333 l -1.334666,0.525333 0.572,-1.316 c 0.796,-1.826667 0.566666,-4.22 -0.569334,-5.953333 -1.510666,-2.304 -4.166666,-2.734667 -6.991999,-1.024 l -0.929334,0.564 0.028,-1.086667 c 0.1,-3.808 -0.841333,-6.757333 -2.796,-8.764 -1.657333,-1.701333 -4.027999,-2.637333 -6.677333,-2.637333 -3.52,0 -6.886666,1.701333 -8.005333,4.044 -0.012,0.028 -1.206667,2.634667 -0.526667,4.709333 1.1,3.350667 3.261334,5.116 5.794667,4.708 1.882667,-0.301333 3.301333,-1.776 3.301333,-3.432 h 1.189334 c 0,2.233333 -1.850667,4.213333 -4.304,4.604 -0.273334,0.04533 -0.556,0.06667 -0.845334,0.06667 -2.277333,0 -4.909333,-1.444 -6.265333,-5.576 -0.686667,-2.093333 0.114667,-4.438667 0.445333,-5.262667 -1.442666,-2.250666 -3.7986661,-3.545333 -6.5199994,-3.545333 -2.9893332,0 -6.39733314,1.698667 -7.27599978,5.493333 l -0.24,1.034667 -0.75600002,-0.744 c -1.8506666,-1.824 -4.4239998,-2.828 -7.2453331,-2.828 -3.1919997,0 -6.1066667,1.322667 -7.4266667,3.368 -0.972,1.504 -1.028,3.313333 -0.161333,5.224 l 1.414667,3.129333 -2.384,-2.470667 c -1.848,-1.914666 -3.785334,-2.926666 -5.605334,-2.926666 -1.498666,0 -2.861333,0.688 -3.834666,1.936 -1.132,1.449333 -1.538667,3.386666 -1.090667,5.185333 l 0.241333,0.961333 -0.961333,-0.241333 c -2.898666,-0.724 -6.101333,0.973333 -7.205333,3.716 -0.850667,2.106666 -0.294667,4.32 1.526667,6.072 l 0.885333,0.853333 -1.218667,0.164 c -5.74,0.769333 -7.527999,4.778667 -7.313333,7.978667 0.204,3.018666 2.310667,6.075999 5.946667,6.075999 1.586666,0 3.314666,-0.568 5.133333,-1.686666 l 2.673333,-1.644 -1.888,2.505333 c -1.912,2.542667 -2.424,4.885333 -1.478666,6.776 0.909333,1.826666 3.117333,3.004 5.623999,3.004 2.452,-0.0013 4.534667,-1.118667 5.730667,-3.068 0.104,-0.322667 0.508,-1.406667 1.394667,-2.313333 l 0.104,-0.174667 -0.012,0.08667 c 0.266666,-0.258667 0.562666,-0.504 0.917333,-0.7 0.766667,-0.425334 1.62,-0.594667 2.553333,-0.482667 -0.688,-3.437333 1.574667,-6.348 4.409333,-7.557333 2.7040003,-1.156 6.1360003,-0.904 8.2413335,1.977333 1.456,-3.42 4.7586666,-4.196 7.3533332,-3.753333 3.7359999,0.64 7.3613333,3.872 6.9586663,8.182666 -0.06667,0.726667 -0.224,1.372 -0.414666,1.98 l 0.4,-0.102666 c 0.801333,3.16 3.559999,4.174666 5.931999,3.774666 2.453334,-0.412 4.965334,-2.389333 4.681334,-5.756 l -0.130667,-1.533333 1.125333,1.048 c 3.274667,3.046667 6.776,4.005333 9.864,2.705333 2.754667,-1.161333 4.729333,-4.010666 4.8,-6.929333 0.05867,-2.422666 -1.201333,-4.373333 -3.542667,-5.498666 l -0.729333,-0.348 0.549333,-0.590667 c 2.084,-2.24 2.688,-4.494667 1.702667,-6.346667 -0.953333,-1.796 -3.296,-2.883999 -5.425333,-2.557333 -1.14,0.177333 -3.114667,0.938667 -3.706667,3.926667 1.092,2.992 0.501333,6.608 -1.832,10.254666 l -1,-0.637333 c 2.916,-4.561333 2.909333,-9.029333 -0.02133,-11.950667 -2.462667,-2.455999 -6.272,-3.053333 -8.857333,-1.386666 l -1.054667,0.677333 0.142667,-1.245333 c 0.386666,-3.394667 -1.696,-5.530667 -3.932,-6.144 -1.7920001,-0.485333 -4.32,-0.109333 -5.5293333,2.592 L 4.176495,66.501205 3.6698284,65.150539 c -1.1373333,-3.034667 -3.53733327,-4.410667 -6.3973332,-3.68 -2.4759999,0.630666 -4.9159999,2.974666 -4.5359999,5.665333 l 0.1986667,1.424 -1.1453333,-0.866667 c -1.78,-1.345333 -4.3199997,-1.446666 -6.3213337,-0.257333 -1.939999,1.156 -2.887999,3.225333 -2.535999,5.534666 l -1.174667,0.18 c -0.428,-2.806666 0.732,-5.321333 3.104,-6.735999 2.069333,-1.230667 4.618666,-1.308 6.661333,-0.28 0.2333333,-2.854667 2.7746666,-5.134667 5.4559999,-5.816 2.45999992,-0.622667 5.5479998,-0.02933 7.3079998,3.305333 1.5733333,-2.258667 4.2039999,-2.758667 6.3240003,-2.178667 2.394666,0.657334 4.779999,2.889334 4.847999,6.344 2.966667,-1.290666 6.817334,-0.493333 9.377334,2.061333 0.494666,0.493334 0.895999,1.034667 1.247999,1.597334 0.772,-1.942667 2.270667,-3.209333 4.290667,-3.525333 2.653333,-0.413334 5.46,0.917333 6.657333,3.174666 0.68,1.278667 1.353334,3.850667 -1.376,7.137333 2.318667,1.373334 3.598667,3.605334 3.533333,6.232 -0.08,3.370667 -2.351999,6.658667 -5.523999,7.994667 -0.962667,0.408 -2.392,0.790666 -4.145334,0.613333 -1.448,0.156 -2.878666,1.113333 -3.741333,2.521333 -0.984,1.604 -1.108,3.544 -0.349333,5.457329 l 0.598666,1.51334 -1.431999,-0.77067 c -1.933334,-1.03733 -3.854667,-1.09867 -5.406667,-0.17067 -1.352,0.808 -2.224,2.26267 -2.237333,3.72134 l -0.008,0.092 c -0.129334,1.424 0.317333,2.77733 1.261333,3.80933 1.857333,2.03333 5.317333,2.36133 8.077333,0.63067 l 1.005333,-0.632 -0.09867,1.184 c -0.182667,2.24933 0.36,4.13466 1.570666,5.448 1.108,1.20266 2.756,1.892 4.526667,1.892 1.788,0 3.429333,-0.71067 4.392,-1.89867 0.882667,-1.09067 1.164,-2.536 0.812,-4.17867 l -0.269333,-1.26133 1.134666,0.616 c 1.668,0.904 3.28,1.364 4.788,1.364 2.788,0 5.141333,-1.62667 6.293333,-4.35067 1.325334,-3.12666 0.697334,-6.67866 -1.596,-9.046662 l -0.854666,-0.882667 1.222666,-0.122667 c 2.292,-0.229333 3.768,-2.467999 3.709333,-4.411999 -0.07333,-2.428 -2.295999,-3.961334 -5.942666,-4.105334"
       style="fill:#53c5c7;fill-opacity:1;fill-rule:nonzero;stroke:none;stroke-width:0.133333"
       id="path320" />
    <path
       d="m 18.579161,100.6052 c 0.964,-0.57466 2.844,-1.301329 5.346667,-0.40533 -0.405333,-1.842666 -0.12,-3.659999 0.84,-5.225332 0.633333,-1.033333 1.529333,-1.864 2.534666,-2.409333 -1.176,-0.418667 -2.446666,-1.101334 -3.781333,-2.176 -0.337333,3.3 -3.024,5.244 -5.66,5.686666 -0.396,0.06533 -0.798666,0.1 -1.205333,0.1 -2.325333,0 -4.684,-1.141333 -5.756,-3.822666 -1.1746664,2.393333 -3.3359997,3.595999 -5.4559997,3.595999 -0.1626666,0 -0.3226666,-0.008 -0.4826666,-0.01867 C 2.7058284,95.735871 0.40049512,93.995871 0.66316179,90.635871 l 1.18400001,0.09067 c -0.2013334,2.569333 1.4679999,3.869333 3.2133332,4.018667 2.4439999,0.222666 5.133333,-1.645334 5.502667,-5.604 0.34,-3.622667 -2.7720004,-6.353334 -5.9773336,-6.9 -2.5026667,-0.436 -5.49466658,0.433333 -6.4186666,4.129333 l -0.3893333,1.557333 -0.7173333,-1.436 c -1.6266666,-3.250666 -4.8893332,-3.626666 -7.4013332,-2.553333 -2.506667,1.069333 -4.668,3.728 -3.484,7.038667 l 0.390667,1.096 -1.118667,-0.328 c -1.010666,-0.296 -1.897333,-0.234667 -2.641333,0.178666 -1.282667,0.712 -1.786667,2.221334 -1.853333,2.438667 -0.02267,0.198667 -0.217334,2.346666 1.192,3.953333 1.089333,1.24 2.872,1.869326 5.299999,1.869326 H 0.2071618 l -0.21066666,0.75734 c -0.00533334,0.012 -0.37466666,1.38 0.42666665,2.43866 0.70933331,0.93467 2.12266661,1.408 4.19733321,1.408 h 11.18 c 0.205333,-1.66933 1.246666,-3.268 2.778666,-4.184"
       style="fill:#53c5c7;fill-opacity:1;fill-rule:nonzero;stroke:none;stroke-width:0.133333"
       id="path322" />
    <path
       d="m 21.287161,94.229205 1.524,-1.524 c -0.290666,0.533333 -0.656,1.008 -1.073333,1.421333 -0.149333,0.036 -0.3,0.07067 -0.450667,0.102667 m -8.266666,-0.705334 c -0.708,-0.281333 -1.397333,-0.621333 -2.061333,-1.021333 -0.02133,-0.04933 -0.04133,-0.09867 -0.06133,-0.149333 -0.01467,0.02933 -0.02933,0.05733 -0.044,0.08667 -0.336,-0.208 -0.666666,-0.429333 -0.9893331,-0.666666 0.3573331,-0.74 0.6040001,-1.617334 0.6986671,-2.632 0.214666,-2.288 -0.9480004,-4.22 -2.6413337,-5.470667 l 0.8453333,-0.844 c 1.9226664,1.481333 3.2293334,3.745333 2.9786664,6.425333 -0.06667,0.726667 -0.224,1.372 -0.414666,1.98 l 0.4,-0.102666 c 0.256,1.009333 0.710666,1.798666 1.289333,2.394666 m 13.245333,-1.386666 c -0.590667,-0.28 -1.2,-0.628 -1.826667,-1.06 l 0.857334,-0.858667 c 0.689333,0.457333 1.381333,0.825333 2.073333,1.1 -0.357334,0.293333 -0.726667,0.565333 -1.104,0.818667 m -3.909333,-2.145334 c 0.016,-0.272 0.012,-0.552 -0.012,-0.844 l -0.130667,-1.533333 1.125333,1.048 c 0.06,0.056 0.12,0.110667 0.181334,0.165333 l -1.164,1.164 m 2.662666,-6.713333 -1,-0.637333 c 2.916,-4.561333 2.909333,-9.029333 -0.02133,-11.950667 -0.533333,-0.532 -1.130667,-0.977333 -1.765333,-1.330666 l 0.866666,-0.866667 c 0.621334,0.374667 1.206667,0.828 1.737334,1.357333 0.494666,0.493334 0.895999,1.034667 1.247999,1.597334 0.336,-0.845334 0.810667,-1.564 1.405334,-2.130667 0.301333,0.253333 0.594666,0.52 0.878666,0.801333 -0.657333,0.592 -1.24,1.502667 -1.517333,2.905334 1.092,2.992 0.501333,6.608 -1.832,10.254666 m -10.93334,-13.297337 0.142667,-1.245333 c 0.088,-0.773333 0.048,-1.482667 -0.09333,-2.122667 0.377334,-0.116 0.76,-0.216 1.144,-0.298666 0.108,0.462666 0.170667,0.954666 0.18,1.474666 0.605334,-0.262666 1.246667,-0.438666 1.906667,-0.532 l -1.796,1.796 c -0.146667,0.07733 -0.289333,0.16 -0.429333,0.250667 l -1.054667,0.677333"
       style="fill:#e8f8fa;fill-opacity:1;fill-rule:nonzero;stroke:none;stroke-width:0.133333"
       id="path324" />
    <path
       d="m 17.831161,94.515871 v 0 c -1.637333,-0.048 -3.266666,-0.38 -4.810666,-0.992 -0.578667,-0.596 -1.033333,-1.385333 -1.289333,-2.394666 l -0.4,0.102666 c 0.190666,-0.608 0.348,-1.253333 0.414666,-1.98 0.250667,-2.68 -1.056,-4.944 -2.9786664,-6.425333 L 22.232495,69.359872 c 0.634666,0.353333 1.232,0.798666 1.765333,1.330666 2.930666,2.921334 2.937333,7.389334 0.02133,11.950667 l 1,0.637333 c 2.333333,-3.646666 2.924,-7.262666 1.832,-10.254666 0.277333,-1.402667 0.86,-2.313334 1.517333,-2.905334 0.01733,0.01867 0.036,0.036 0.05333,0.05333 1.830666,1.828 3.06,4.029333 3.690666,6.358666 0.284,1.057334 0.444,2.141334 0.477334,3.230667 0.0093,0.190667 0.01333,0.382667 0.01333,0.573333 0,-0.190666 -0.004,-0.382666 -0.01333,-0.573333 l -9.069333,9.066666 c -0.06133,-0.05467 -0.121334,-0.109333 -0.181334,-0.165333 l -1.125333,-1.048 0.130667,1.533333 c 0.024,0.292 0.028,0.572 0.012,0.844 l -4.525334,4.524 m 9.538667,-3.197333 c -0.692,-0.274667 -1.384,-0.642667 -2.073333,-1.1 l 6.987999,-6.986667 c -0.344,1.661334 -0.992,3.277334 -1.938666,4.752 -0.542667,0.842667 -1.184,1.641334 -1.922667,2.38 -0.0013,0.0013 -0.004,0.004 -0.0053,0.0053 -0.004,0.004 -0.0093,0.0093 -0.01333,0.01333 -0.333333,0.332 -0.678666,0.644 -1.034666,0.936 m -23.3106663,-10.752 v 0 c -0.044,-1.866666 0.2786667,-3.748 0.9693333,-5.521333 0.696,-1.776 1.7613333,-3.438667 3.1959999,-4.873333 1.7106667,-1.710667 3.7480001,-2.897333 5.9106661,-3.558667 0.141334,0.64 0.181334,1.349334 0.09333,2.122667 l -0.142667,1.245333 1.054667,-0.677333 c 0.14,-0.09067 0.282666,-0.173334 0.429333,-0.250667 L 4.0591617,80.566538 M 26.084494,71.447872 c -0.352,-0.562667 -0.753333,-1.104 -1.247999,-1.597334 -0.530667,-0.529333 -1.116,-0.982666 -1.737334,-1.357333 l 1.193334,-1.193333 c -0.330667,-0.156 -0.666667,-0.298667 -1.006667,-0.426667 v 0 c 0.34,0.128 0.676,0.270667 1.006667,0.426667 0.189333,0.08267 0.376,0.172 0.561333,0.264 0.926666,0.476 1.810666,1.061333 2.636,1.753333 -0.594667,0.566667 -1.069334,1.285333 -1.405334,2.130667 M 15.459161,67.789205 c -0.0093,-0.52 -0.072,-1.012 -0.18,-1.474666 0.4,-0.08667 0.801334,-0.156 1.205334,-0.209334 0.581333,-0.072 1.165333,-0.109333 1.748,-0.109333 0.129333,0 0.258666,0.0027 0.389333,0.0053 0.454667,0.0053 0.910667,0.032 1.362667,0.08267 v 0 c -0.452,-0.05067 -0.908,-0.07733 -1.362667,-0.08267 l -1.256,1.256 c -0.66,0.09333 -1.301333,0.269334 -1.906667,0.532"
       style="fill:#8ad8d9;fill-opacity:1;fill-rule:nonzero;stroke:none;stroke-width:0.133333"
       id="path326" />
    <path
       d="m 21.737828,94.126538 c 0.417333,-0.413333 0.782667,-0.888 1.073333,-1.421333 l 1.628,-1.628 c 0.626667,0.432 1.236,0.78 1.826667,1.06 -1.402667,0.937333 -2.936,1.597333 -4.528,1.989333 m -10.778666,-1.624 c -0.03467,-0.02133 -0.06933,-0.04267 -0.105334,-0.06267 0.01467,-0.02933 0.02933,-0.05733 0.044,-0.08667 0.02,0.05067 0.04,0.1 0.06133,0.149333 M 9.8644949,91.773205 c -0.5746667,-0.424 -1.1253333,-0.896 -1.6453333,-1.417334 -0.3426667,-0.341333 -0.6653333,-0.697333 -0.9666666,-1.065333 -0.476,-0.582667 -0.8986667,-1.193333 -1.2693333,-1.828 -0.232,-0.4 -0.4413334,-0.809333 -0.6266667,-1.226667 l 2.5653333,-2.565333 c 1.6933333,1.250667 2.8559997,3.182667 2.6413337,5.470667 -0.09467,1.014666 -0.341334,1.892 -0.6986671,2.632"
       style="fill:#8ad8d9;fill-opacity:1;fill-rule:nonzero;stroke:none;stroke-width:0.133333"
       id="path328" />
    <path
       d="m 18.324495,63.494539 c -4.48,0 -8.6946668,1.742666 -11.8626667,4.913333 -6.53999983,6.54 -6.53999983,17.178666 0,23.718666 3.1679999,3.169333 7.3813327,4.916 11.8626667,4.916 4.48,0 8.691999,-1.746667 11.859999,-4.916 3.169334,-3.165333 4.914667,-7.378667 4.914667,-11.858666 0,-4.481334 -1.745333,-8.694667 -4.916,-11.86 -3.166667,-3.170667 -7.378666,-4.913333 -11.858666,-4.913333 m 0,2.493333 c 3.654666,0 7.309333,1.394667 10.097333,4.184 5.581333,5.573333 5.581333,14.618666 0,20.193333 -2.788,2.793333 -6.442667,4.186666 -10.097333,4.186666 -3.654667,0 -7.309333,-1.393333 -10.1000001,-4.186666 -5.5746665,-5.574667 -5.5746665,-14.62 0,-20.193333 2.7906671,-2.789333 6.4453331,-4.184 10.1000001,-4.184"
       style="fill:#343333;fill-opacity:1;fill-rule:nonzero;stroke:none;stroke-width:0.133333"
       id="path330" />
    <path
       d="m 56.89916,120.30254 -27.502666,-27.505335 1.456,-1.458667 27.504,27.505332 -1.457334,1.45867"
       style="fill:#343333;fill-opacity:1;fill-rule:nonzero;stroke:none;stroke-width:0.133333"
       id="path332" />
    <path
       d="m 60.94716,116.25187 -6.634666,6.64 -19.378666,-19.376 6.642666,-6.635999 19.370666,19.371999"
       style="fill:#fbc508;fill-opacity:1;fill-rule:nonzero;stroke:none;stroke-width:0.133333"
       id="path334" />
    <path
       d="m 7.9218283,83.670538 c -0.9866667,-0.729333 -2.1546666,-1.228 -3.3359999,-1.429333 -0.136,-0.024 -0.2746667,-0.044 -0.4146667,-0.06 -0.00667,-0.048 -0.012,-0.09733 -0.018667,-0.145333 -0.041333,-0.350667 -0.069333,-0.702667 -0.082667,-1.056 0.2426666,0.02 0.4826666,0.04933 0.7173333,0.08933 1.4133333,0.242667 2.8106666,0.854667 3.9799999,1.757333 l -0.8453333,0.844 M 22.232495,69.359872 c -1.176,-0.656 -2.481334,-0.997333 -3.745334,-0.997333 -1.029333,0 -2.030666,0.225333 -2.917333,0.690666 l 1.796,-1.796 c 0.365333,-0.05067 0.737333,-0.076 1.112,-0.076 1.574667,0 3.193333,0.449334 4.621333,1.312 l -0.866666,0.866667"
       style="fill:#f5fcfc;fill-opacity:1;fill-rule:nonzero;stroke:none;stroke-width:0.133333"
       id="path336" />
    <path
       d="M 8.7671616,82.826538 C 7.5978283,81.923872 6.200495,81.311872 4.7871617,81.069205 4.552495,81.029205 4.312495,80.999872 4.0698284,80.979872 4.0631617,80.842538 4.060495,80.705205 4.0591617,80.566538 L 15.569828,69.053205 c 0.886667,-0.465333 1.888,-0.690666 2.917333,-0.690666 1.264,0 2.569334,0.341333 3.745334,0.997333 L 8.7671616,82.826538 M 23.099161,68.493205 c -1.428,-0.862666 -3.046666,-1.312 -4.621333,-1.312 -0.374667,0 -0.746667,0.02533 -1.112,0.076 l 1.256,-1.256 c 0.454667,0.0053 0.910667,0.032 1.362667,0.08267 1.121333,0.130667 2.230666,0.393333 3.301333,0.789333 0.34,0.128 0.676,0.270667 1.006667,0.426667 l -1.193334,1.193333"
       style="fill:#c4ebeb;fill-opacity:1;fill-rule:nonzero;stroke:none;stroke-width:0.133333"
       id="path338" />
    <path
       d="m 5.356495,86.235871 v 0 c -0.2066667,-0.438666 -0.388,-0.884 -0.5453333,-1.336 -0.3026667,-0.886666 -0.516,-1.797333 -0.64,-2.718666 0.14,0.016 0.2786667,0.036 0.4146667,0.06 1.1813333,0.201333 2.3493332,0.7 3.3359999,1.429333 L 5.356495,86.235871"
       style="fill:#c4ebeb;fill-opacity:1;fill-rule:nonzero;stroke:none;stroke-width:0.133333"
       id="path340" />
    <path
       d="m 4.8111617,84.899871 c -0.324,-0.934666 -0.544,-1.893333 -0.6586667,-2.863999 v 0 c 0.00667,0.048 0.012,0.09733 0.018667,0.145333 0.124,0.921333 0.3373333,1.832 0.64,2.718666 v 0 M 23.285828,66.873205 c -1.070667,-0.396 -2.18,-0.658666 -3.301333,-0.789333 1.125333,0.124 2.234666,0.388 3.301333,0.789333"
       style="fill:#979898;fill-opacity:1;fill-rule:nonzero;stroke:none;stroke-width:0.133333"
       id="path342" />
    <path
       d="m 60.94716,116.25187 -3.316,3.32267 -19.377332,-19.37867 3.322666,-3.315999 19.370666,19.371999"
       style="fill:#f9dc06;fill-opacity:1;fill-rule:nonzero;stroke:none;stroke-width:0.133333"
       id="path344" />
    <path
       d="m 18.993828,94.522538 c 1.74,-0.713333 3.232,-2.246667 3.362667,-4.530667 l 1.164,-1.164 c 0.586666,0.530667 1.18,0.994667 1.776,1.390667 l -0.857334,0.858667 c -0.302666,-0.209334 -0.609333,-0.437334 -0.92,-0.688 -0.088,0.866666 -0.338666,1.638666 -0.708,2.316 l -1.524,1.524 v 0 c -0.756,0.168 -1.521333,0.265333 -2.293333,0.293333"
       style="fill:#f5fcfc;fill-opacity:1;fill-rule:nonzero;stroke:none;stroke-width:0.133333"
       id="path346" />
    <path
       d="m 18.496495,94.531871 c -0.221334,0 -0.442667,-0.0053 -0.665334,-0.016 l 4.525334,-4.524 c -0.130667,2.284 -1.622667,3.817334 -3.362667,4.530667 -0.165333,0.0067 -0.330667,0.0093 -0.497333,0.0093 m 6.8,-4.313333 c -0.596,-0.396 -1.189334,-0.86 -1.776,-1.390667 l 9.069333,-9.066666 c 0.0093,0.190667 0.01333,0.382667 0.01333,0.573333 0,0.974667 -0.109333,1.949334 -0.318667,2.897333 v 0 l -6.987999,6.986667"
       style="fill:#c4ebeb;fill-opacity:1;fill-rule:nonzero;stroke:none;stroke-width:0.133333"
       id="path348" />
    <path
       d="m 22.811161,92.705205 c 0.369334,-0.677334 0.62,-1.449334 0.708,-2.316 0.310667,0.250666 0.617334,0.478666 0.92,0.688 l -1.628,1.628"
       style="fill:#c4ebeb;fill-opacity:1;fill-rule:nonzero;stroke:none;stroke-width:0.133333"
       id="path350" />
  </g>
</svg>
