<?xml version="1.0" encoding="UTF-8" standalone="no"?>
<!-- Created with Inkscape (http://www.inkscape.org/) -->

<svg
   width="78.347862"
   height="80.423988"
   viewBox="0 0 78.347862 80.423988"
   version="1.1"
   id="SVGRoot"
   sodipodi:docname="2.svg"
   inkscape:version="1.2 (dc2aedaf03, 2022-05-15)"
   xmlns:inkscape="http://www.inkscape.org/namespaces/inkscape"
   xmlns:sodipodi="http://sodipodi.sourceforge.net/DTD/sodipodi-0.dtd"
   xmlns="http://www.w3.org/2000/svg"
   xmlns:svg="http://www.w3.org/2000/svg">
  <sodipodi:namedview
     id="namedview545"
     pagecolor="#505050"
     bordercolor="#ffffff"
     borderopacity="1"
     inkscape:showpageshadow="0"
     inkscape:pageopacity="0"
     inkscape:pagecheckerboard="1"
     inkscape:deskcolor="#505050"
     inkscape:document-units="px"
     showgrid="false"
     inkscape:zoom="2.9006173"
     inkscape:cx="19.306235"
     inkscape:cy="102.90913"
     inkscape:window-width="1920"
     inkscape:window-height="1001"
     inkscape:window-x="-9"
     inkscape:window-y="-9"
     inkscape:window-maximized="1"
     inkscape:current-layer="layer1" />
  <defs
     id="defs540" />
  <g
     inkscape:label="Warstwa 1"
     inkscape:groupmode="layer"
     id="layer1"
     transform="translate(-14.952473,-10.811631)">
    <path
       d="m 17.597907,44.438291 c 2.026666,-0.97866 4.553333,-1.14666 6.719999,-0.40666 1.432,0.488 2.584,1.33066 3.424,2.44533 0.602667,-1.792 1.690667,-3.00533 2.836,-3.82667 -1.352,-0.31333 -2.474666,-1.09733 -3.246666,-2.29333 -1.166667,-1.808 -1.302667,-4.27867 -0.336,-6.14667 0.682666,-1.31866 1.813333,-2.18133 3.24,-2.492 -2.614667,-3.75466 -1.393334,-7.23066 0.564,-9.14666 1.931999,-1.88934 5.097333,-2.82134 7.385333,-1.38 2.721333,-5.324 6.312,-5.188 7.769333,-4.86667 2.948,0.652 5.257333,3.62133 5.257333,6.76133 0,1.65067 -0.521333,2.96 -1.298667,3.92934 0.854667,0.11733 1.588,0.432 2.2,0.988 0.461334,0.42133 0.841334,0.976 1.156,1.63866 v -9.05866 c 0,-6.416 -4.62,-9.772 -9.185333,-9.772 -3.145333,0 -5.9,1.56533 -7.557333,4.296 l -0.244,0.40133 -0.42,-0.212 c -2.048,-1.03467 -4.926666,-0.192 -6.209333,1.70267 -0.704,1.03866 -0.838667,2.24533 -0.38,3.39466 l 0.345333,0.864 -0.912,-0.176 c -0.344,-0.0667 -0.712,-0.1 -1.090666,-0.1 -2.726667,0 -5.674667,1.62934 -7.337334,4.056 -1.142666,1.668 -2.194666,4.45467 -0.722666,8.25334 l 0.221333,0.57066 -0.602667,0.112 c -2.757333,0.50934 -3.966666,2.85734 -4.181333,4.88534 -0.265333,2.51333 0.806667,4.79333 2.605334,5.57866"
       style="fill:#53c5c7;fill-opacity:1;fill-rule:nonzero;stroke:none;stroke-width:0.133333"
       id="path796" />
    <path
       d="m 31.849906,64.356961 c -0.708,0 -1.393333,-0.12 -2.053333,-0.364 -3.086667,-1.13333 -4.430667,-4.50267 -4.486667,-4.64667 l 1.006667,-0.392 c 0.012,0.0293 1.232,3.06667 3.858667,4.028 1.506666,0.54933 3.214666,0.32133 5.074666,-0.68133 1.812,-0.97733 2.781333,-2.64133 2.661333,-4.56667 -0.105333,-1.688 -1.084,-3.21733 -2.38,-3.72 -1.217333,-0.472 -2.558666,-0.0467 -3.878666,1.22934 l -0.750667,-0.776 c 2.188,-2.11867 4.084,-1.824 5.02,-1.46 1.701333,0.66 2.934667,2.532 3.066667,4.66 0.01067,0.16 -0.0013,0.316 -0.004,0.47333 5.489333,1.62 8.561333,-0.568 9.607999,-3.21467 0.992,-2.50933 0.321334,-5.91066 -2.518666,-7.25866 l -0.854667,-0.40667 0.785333,-0.52933 c 2.358667,-1.588 2.497334,-3.71734 1.588,-5.12134 -0.710666,-1.09733 -2.12,-1.77866 -3.430666,-0.96666 l -0.570667,-0.916 c 1.885333,-1.172 3.934667,-0.208 4.908,1.29466 1.06,1.64 1.066667,4.15334 -1.210667,6.092 2.776,1.82134 3.390667,5.46934 2.308,8.20934 -0.941333,2.38266 -3.234666,4.47066 -7.063999,4.47066 -1.092,0 -2.316,-0.18266 -3.661334,-0.564 -0.352,1.67734 -1.441333,3.12267 -3.108,4.02133 -1.365333,0.736 -2.674666,1.10534 -3.913333,1.10534 z m 19.301333,13.51066 c -0.909333,-0.63066 -2.144,-0.66266 -3.665333,-0.0947 l -1.2,0.44666 0.516,-1.17066 c 1.698666,-3.848 0.848,-6.996 -2.277333,-8.42134 -2.870667,-1.31066 -6.378667,-0.6 -7.36,1.488 l -0.976,-0.46 c 1.374666,-2.91733 5.730666,-3.40266 8.783999,-2.01066 0.568,0.25866 1.108,0.59866 1.597334,1.01066 1.7,-0.33333 2.76,-2.02533 3.057333,-3.65466 0.258667,-1.40934 0.01067,-3.07867 -1.125333,-3.62933 l 0.469333,-0.972 c 1.426667,0.69066 2.117333,2.61733 1.718667,4.79599 -0.328,1.796 -1.449334,3.66267 -3.261334,4.33867 1.257334,1.572 1.816,3.86667 0.776,6.89733 1.398667,-0.308 2.592,-0.12533 3.562667,0.54934 0.608,0.42266 1.108,1.03866 1.501333,1.82666 v -42.94266 h -0.032 c 0,-3.56533 -0.622666,-5.94267 -1.852,-7.06267 -0.656,-0.59866 -1.485333,-0.83733 -2.589333,-0.74933 -0.602667,0.424 -1.26,0.72667 -1.922667,0.86667 -2.074666,0.44133 -4.003999,-0.45867 -4.794666,-2.23867 l 0.986667,-0.43867 c 0.588,1.32267 1.993333,1.95734 3.583999,1.62134 1.606667,-0.34 3.482667,-1.796 3.482667,-4.77734 0,-2.65333 -1.937333,-5.16 -4.410667,-5.70666 -2.643999,-0.58 -5.139999,1.188 -6.845333,4.86 l -0.301333,0.65066 -0.541333,-0.47066 c -1.834667,-1.59334 -4.734667,-0.78267 -6.477334,0.924 -1.846666,1.80666 -2.791999,4.97333 0.092,8.44533 l 0.696,0.83733 -1.087999,0.048 c -1.484,0.0627 -2.656,0.78534 -3.3,2.032 -0.794667,1.536 -0.68,3.572 0.284,5.06534 0.858666,1.33066 2.277333,2.00533 3.993333,1.94266 0.601333,-0.264 1.16,-0.44133 1.601333,-0.55333 0.650667,-0.164 1.314667,-0.26533 1.973333,-0.31867 -1.36,-2.016 -1.022666,-4.584 0.148,-6.27066 1.193334,-1.72 3.578667,-3.076 6.696,-1.72134 l -0.429333,0.99067 c -2.518667,-1.09333 -4.430667,-0.0213 -5.38,1.34667 -1.062667,1.53066 -1.296,3.952 0.308,5.62 2.729333,0.0787 5.136,1.05466 5.784,2.588 l -0.994667,0.42 c -0.617333,-1.45867 -4.357333,-2.48667 -7.841333,-1.608 -1.922667,0.48533 -4.838666,1.83733 -5.582666,5.568 l 0.084,0.14933 -0.117334,0.0507 c -0.146666,0.84 -0.190666,1.788 -0.088,2.876 l -1.074666,0.10133 c -0.108,-1.12933 -0.06,-2.11867 0.08133,-3.00933 -0.886667,-1.7 -2.330667,-2.51467 -3.432,-2.89067 -2.029333,-0.69333 -4.422667,-0.49333 -6.245333,0.52267 l -0.08533,-0.15334 c -1.749334,0.86 -2.186667,2.872 -1.844,4.39334 0.337333,1.5 1.554666,3.10133 3.962666,3.10133 l 2.012,-0.0827 -1.453333,1.00267 c -1.856,1.28267 -2.565333,4.18 -1.722667,7.04667 0.921333,3.13466 3.281333,5.06533 6.310667,5.16399 l 1.492,0.0493 -1.213334,0.87066 c -1.430666,1.02934 -2.004,2.51734 -1.532,3.98134 0.437334,1.356 1.649334,2.268 3.017334,2.268 0.621333,0 1.254666,-0.18 1.885333,-0.53467 l 2.384,-1.34267 -1.744,2.10934 c -1.474667,1.78266 -1.810667,4.00266 -0.9,5.93866 1.310667,2.78267 4.810666,4.19467 8.638666,3.38134 l 0.05733,-0.012 c 0.165333,-0.18 0.350666,-0.352 0.562666,-0.508 -2.692,-0.77467 -3.630666,-2.348 -3.956,-3.30934 -0.558666,-1.644 -0.08133,-3.60933 1.189334,-4.89066 1.037333,-1.04534 2.361333,-1.40267 3.629333,-0.984 l -0.338667,1.02533 c -0.866666,-0.28533 -1.786666,-0.0227 -2.524,0.72 -0.822666,0.828 -1.430666,2.32 -0.934666,3.78133 0.524,1.54267 2.176,2.576 4.654666,2.912 l 2.474667,0.33467 -2.392,0.71733 c -0.844,0.25334 -1.394667,0.67867 -1.76,1.164 0.505333,4.88134 4.68,7.51467 8.497333,7.516 h 0.0013 c 1.942667,0 3.705334,-0.676 4.968,-1.90133 1.321334,-1.28533 2.041334,-3.17067 2.16,-5.44267 -0.08267,-3.01066 -0.805333,-5.14533 -2.069333,-6.024"
       style="fill:#53c5c7;fill-opacity:1;fill-rule:nonzero;stroke:none;stroke-width:0.133333"
       id="path798" />
    <path
       d="m 90.653907,44.438291 c -2.02534,-0.97866 -4.553336,-1.14666 -6.718669,-0.40666 -1.433333,0.488 -2.585333,1.33066 -3.424,2.44533 -0.602666,-1.792 -1.690666,-3.00533 -2.837333,-3.82667 1.353333,-0.31333 2.474667,-1.09733 3.246667,-2.29333 1.168,-1.808 1.302666,-4.27867 0.337333,-6.14667 -0.682667,-1.31866 -1.813333,-2.18133 -3.241333,-2.492 2.614666,-3.75466 1.394666,-7.23066 -0.562667,-9.14666 -1.932,-1.88934 -5.098667,-2.82134 -7.386666,-1.38 -2.721334,-5.324 -6.310667,-5.188 -7.768,-4.86667 -2.949334,0.652 -5.257333,3.62133 -5.257333,6.76133 0,1.65067 0.52,2.96 1.298666,3.92934 -0.856,0.11733 -1.588,0.432 -2.2,0.988 -0.462666,0.42133 -0.842666,0.976 -1.157333,1.63866 v -9.05866 c 0,-6.416 4.621333,-9.772 9.186666,-9.772 3.145334,0 5.898667,1.56533 7.557333,4.296 l 0.244,0.40133 0.418667,-0.212 c 2.049333,-1.03467 4.928,-0.192 6.209333,1.70267 0.705334,1.03866 0.84,2.24533 0.38,3.39466 l -0.345333,0.864 0.913333,-0.176 c 0.344,-0.0667 0.710667,-0.1 1.089334,-0.1 2.726666,0 5.675999,1.62934 7.337333,4.056 1.142662,1.668 2.196002,4.45467 0.724002,8.25334 l -0.22267,0.57066 0.60267,0.112 c 2.75733,0.50934 3.968,2.85734 4.18266,4.88534 0.264,2.51333 -0.80666,4.79333 -2.60666,5.57866"
       style="fill:#53c5c7;fill-opacity:1;fill-rule:nonzero;stroke:none;stroke-width:0.133333"
       id="path800" />
    <path
       d="m 72.488572,63.251621 c -1.665333,-0.89866 -2.754667,-2.34399 -3.108,-4.02133 -1.345333,0.38134 -2.569333,0.564 -3.661333,0.564 -3.828,0 -6.121334,-2.088 -7.064,-4.47066 -1.082667,-2.74 -0.466667,-6.388 2.308,-8.20934 -2.277334,-1.93866 -2.270667,-4.452 -1.209334,-6.092 0.972,-1.50266 3.022667,-2.46666 4.906667,-1.29466 l -0.569333,0.916 c -1.312,-0.812 -2.721334,-0.13067 -3.430667,0.96666 -0.909333,1.404 -0.772,3.53334 1.586667,5.12134 l 0.786666,0.52933 -0.856,0.40667 c -2.838666,1.348 -3.509333,4.74933 -2.517333,7.25866 1.046667,2.64667 4.117333,4.83467 9.606667,3.21467 -0.0027,-0.15733 -0.01333,-0.31333 -0.004,-0.47333 0.133333,-2.128 1.365333,-4 3.066666,-4.66 0.936,-0.364 2.833333,-0.65867 5.021333,1.46 l -0.752,0.776 c -1.318666,-1.276 -2.661333,-1.70134 -3.878666,-1.22934 -1.294667,0.50267 -2.273333,2.032 -2.378667,3.72 -0.121333,1.92534 0.849334,3.58934 2.66,4.56667 1.861333,1.00266 3.568,1.23066 5.074667,0.68133 2.628,-0.96133 3.848,-3.99866 3.86,-4.028 l 1.005333,0.392 c -0.056,0.144 -1.4,3.51334 -4.485333,4.64667 -0.66,0.244 -1.345334,0.364 -2.054667,0.364 -1.238667,0 -2.546667,-0.36934 -3.913333,-1.10534 z m -17.457333,20.64 c 0.118667,2.272 0.838667,4.15734 2.161333,5.44267 1.261333,1.22533 3.025333,1.90133 4.966667,1.90133 h 0.0013 c 3.818667,-10e-4 7.993333,-2.63466 8.498667,-7.516 -0.365334,-0.48533 -0.917334,-0.91066 -1.76,-1.164 l -2.392,-0.71733 2.474666,-0.33467 c 2.477333,-0.336 4.129333,-1.36933 4.653333,-2.912 0.496,-1.46133 -0.112,-2.95333 -0.934666,-3.78133 -0.737334,-0.74267 -1.657333,-1.00533 -2.524,-0.72 l -0.338667,-1.02533 c 1.269334,-0.41867 2.593333,-0.0613 3.629333,0.984 1.270667,1.28133 1.749334,3.24666 1.190667,4.89066 -0.326667,0.96134 -1.265333,2.53467 -3.956,3.30934 0.212,0.156 0.396,0.328 0.562667,0.508 l 0.056,0.012 c 3.828,0.81333 7.329333,-0.59867 8.638666,-3.38134 0.912,-1.936 0.574667,-4.156 -0.9,-5.93866 l -1.744,-2.10934 2.385334,1.34267 c 0.629333,0.35467 1.264,0.53467 1.884,0.53467 1.368,0 2.581333,-0.912 3.018666,-2.268 0.470667,-1.464 -0.102666,-2.952 -1.533333,-3.98134 l -1.212,-0.87066 1.490667,-0.0493 c 3.030666,-0.0987 5.389338,-2.02933 6.310668,-5.16399 0.84267,-2.86667 0.13467,-5.764 -1.722669,-7.04667 l -1.452,-1.00267 2.011999,0.0827 c 2.40667,0 3.62534,-1.60133 3.96267,-3.10133 0.34133,-1.52134 -0.0947,-3.53334 -1.84533,-4.39334 l -0.0853,0.15334 c -1.82266,-1.016 -4.214665,-1.216 -6.243998,-0.52267 -1.102667,0.376 -2.546667,1.19067 -3.433334,2.89067 0.142667,0.89066 0.189334,1.88 0.08267,3.00933 l -1.076,-0.10133 c 0.102667,-1.088 0.05867,-2.036 -0.088,-2.876 l -0.116,-0.0507 0.08267,-0.14933 c -0.742667,-3.73067 -3.66,-5.08267 -5.582667,-5.568 -3.484,-0.87867 -7.222666,0.14933 -7.84,1.608 l -0.994666,-0.42 c 0.648,-1.53334 3.054666,-2.50934 5.782666,-2.588 1.605333,-1.668 1.370667,-4.08934 0.308,-5.62 -0.948,-1.368 -2.86,-2.44 -5.378666,-1.34667 l -0.430667,-0.99067 c 3.117333,-1.35466 5.504,0.001 6.697333,1.72134 1.169333,1.68666 1.506667,4.25466 0.148,6.27066 0.658667,0.0533 1.322667,0.15467 1.973333,0.31867 0.441334,0.112 1,0.28933 1.601334,0.55333 1.714666,0.0627 3.133333,-0.612 3.993333,-1.94266 0.964,-1.49334 1.078667,-3.52934 0.284,-5.06534 -0.644,-1.24666 -1.817333,-1.96933 -3.3,-2.032 l -1.088,-0.048 0.696,-0.83733 c 2.882667,-3.472 1.937333,-6.63867 0.092,-8.44533 -1.744,-1.70667 -4.642667,-2.51734 -6.477333,-0.924 l -0.541333,0.47066 -0.302667,-0.65066 c -1.705333,-3.672 -4.2,-5.44 -6.844,-4.86 -2.473333,0.54666 -4.412,3.05333 -4.412,5.70666 0,2.98134 1.877333,4.43734 3.484,4.77734 1.589333,0.336 2.994667,-0.29867 3.582667,-1.62134 l 0.988,0.43867 c -0.792,1.78 -2.72,2.68 -4.794667,2.23867 -0.664,-0.14 -1.321333,-0.44267 -1.924,-0.86667 -1.104,-0.088 -1.932,0.15067 -2.588,0.74933 -1.229333,1.12 -1.853333,3.49734 -1.853333,7.06267 h -0.032 v 42.94266 c 0.394667,-0.788 0.894667,-1.404 1.502667,-1.82666 0.969333,-0.67467 2.162666,-0.85734 3.562666,-0.54934 -1.04,-3.03066 -0.482667,-5.32533 0.774667,-6.89733 -1.810667,-0.676 -2.932,-2.54267 -3.261333,-4.33867 -0.398667,-2.17866 0.292,-4.10533 1.718666,-4.79599 l 0.470667,0.972 c -1.136,0.55066 -1.385334,2.21999 -1.126667,3.62933 0.298667,1.62933 1.357333,3.32133 3.057333,3.65466 0.489334,-0.412 1.029334,-0.752 1.597334,-1.01066 3.053333,-1.392 7.410666,-0.90667 8.785333,2.01066 l -0.977333,0.46 c -0.981334,-2.088 -4.488,-2.79866 -7.36,-1.488 -3.124,1.42534 -3.976,4.57334 -2.277334,8.42134 l 0.517334,1.17066 -1.2,-0.44666 c -1.522667,-0.568 -2.756,-0.536 -3.666667,0.0947 -1.264,0.87867 -1.985333,3.01334 -2.069333,6.024"
       style="fill:#53c5c7;fill-opacity:1;fill-rule:nonzero;stroke:none;stroke-width:0.133333"
       id="path802" />
  </g>
</svg>
