<?xml version="1.0" encoding="UTF-8" standalone="no"?>
<!-- Created with Inkscape (http://www.inkscape.org/) -->

<svg
   width="99.842506"
   height="44.400261"
   viewBox="0 0 99.842506 44.400261"
   version="1.1"
   id="SVGRoot"
   sodipodi:docname="3.svg"
   xml:space="preserve"
   inkscape:version="1.2 (dc2aedaf03, 2022-05-15)"
   xmlns:inkscape="http://www.inkscape.org/namespaces/inkscape"
   xmlns:sodipodi="http://sodipodi.sourceforge.net/DTD/sodipodi-0.dtd"
   xmlns="http://www.w3.org/2000/svg"
   xmlns:svg="http://www.w3.org/2000/svg"><sodipodi:namedview
     id="namedview545"
     pagecolor="#505050"
     bordercolor="#ffffff"
     borderopacity="1"
     inkscape:showpageshadow="0"
     inkscape:pageopacity="0"
     inkscape:pagecheckerboard="1"
     inkscape:deskcolor="#505050"
     inkscape:document-units="px"
     showgrid="false"
     inkscape:zoom="11.602469"
     inkscape:cx="57.660141"
     inkscape:cy="42.103107"
     inkscape:window-width="1920"
     inkscape:window-height="1001"
     inkscape:window-x="-9"
     inkscape:window-y="-9"
     inkscape:window-maximized="1"
     inkscape:current-layer="layer1" /><defs
     id="defs540" /><g
     inkscape:label="Warstwa 1"
     inkscape:groupmode="layer"
     id="layer1"
     transform="translate(-0.06807714,-30.892158)"><path
       d="m 14.772347,54.610808 -1.076,-0.10533 c 0.18,-1.832 1.468,-3.46933 3.444,-4.37867 2.261333,-1.04133 4.854667,-0.85733 6.764,0.48 l -0.62,0.884 c -1.597333,-1.11733 -3.778667,-1.26266 -5.692,-0.38266 -1.625333,0.74666 -2.68,2.05733 -2.82,3.50266 z m 31.518666,5.30534 c -1.44,-1.684 -3.434667,-2.612 -5.616,-2.612 -3.612,0 -6.549333,2.40266 -6.549333,5.35466 h -1.08 c 0,-3.17066 2.734667,-5.80666 6.32,-6.332 -0.286667,-2.28133 -1.342667,-3.88 -3.030667,-4.524 -1.862666,-0.71333 -4.282666,-0.15466 -5.754666,1.32267 -0.698667,0.70267 -1.745334,2.20667 -0.901334,4.38933 l 0.677334,1.74934 -1.504,-1.12267 c -2.481334,-1.85333 -5.117333,-2.236 -7.42,-1.08 -2.294667,1.15067 -3.776,3.66533 -3.776,6.408 0,2.89733 2.210667,4.76133 4.396,5.104 1.584,0.25333 3.536,-0.29467 4.269333,-2.57067 l 1.028,0.33067 c -0.684,2.12 -2.425333,3.37866 -4.568,3.37866 -0.290666,0 -0.592,-0.0227 -0.897333,-0.0707 -2.638667,-0.41467 -5.309333,-2.668 -5.309333,-6.172 0,-3.148 1.716,-6.04133 4.372,-7.37467 2.282666,-1.14133 4.910666,-0.984 7.374666,0.412 -0.174667,-1.52533 0.34,-2.984 1.494667,-4.14266 0.685333,-0.69067 1.530666,-1.20667 2.438666,-1.536 -1.781333,-2.71467 -1.749333,-5.588 0.165334,-7.78934 1.829333,-2.10533 4.865333,-2.868 6.914666,-1.73333 l -0.522666,0.94533 c -1.618667,-0.896 -4.069334,-0.23733 -5.577334,1.49734 -0.793333,0.912 -2.334666,3.38133 0.110667,6.79066 1.14,-0.21466 2.318667,-0.15066 3.374667,0.25467 1.237333,0.472 3.267999,1.824 3.706666,5.44 l 0.248,-0.009 c 2.502667,0 4.789333,1.06133 6.437333,2.99066 0.932,1.09067 1.638667,2.424 2.132,3.976 v -11.96266 c 0,-6.87867 -2.218666,-8.004 -2.241333,-8.01467 l -0.64,-0.30267 0.446667,-0.544 c 1.546666,-1.80266 1.854666,-3.97733 0.868,-6.12266 -1.402667,-3.05067 -5.048,-5.352 -8.478667,-5.352 -3.074666,0 -5.564,1.81733 -7.010666,5.11866 l -0.432,0.98667 -0.533334,-0.93733 c -0.897333,-1.58534 -2.150666,-2.45734 -3.526666,-2.45734 -2.048,0 -3.889333,1.91334 -4.102667,4.264 l -0.07733,0.85067 -0.736,-0.43333 c -0.654667,-0.38667 -1.448,-0.59067 -2.292,-0.59067 -1.672,0 -3.310667,0.76267 -4.382667,2.04133 -0.765333,0.91067 -1.585333,2.50267 -1.16,4.92 l 0.117334,0.66 -0.905334,-0.0307 c -1.954666,0 -3.891999,0.94933 -5.3173335,2.60666 -1.568,1.82667 -2.261333,4.22667 -1.901333,6.58667 l 0.106667,0.69733 -0.056,-0.007 c 0.442666,3.27066 4.3586665,4.256 4.4000005,4.26533 l 2.561333,0.61733 -2.597333,0.44 c -3.6813345,0.62534 -3.9346675,4.116 -3.8720005,5.58667 l -0.538667,0.0907 h -0.54 c -0.05067,-1.23466 0.076,-4.84666 3.201333,-6.27199 -1.46,-0.71467 -3.449333,-2.184 -3.692,-4.82 -1.592,-0.0333 -3.057333,0.72133 -3.8853329,2.04 -0.9946666,1.58666 -0.9613333,3.75066 0.094667,5.93733 l 0.1706666,0.352 -0.2813333,0.27067 c -1.84666657,1.78799 -2.43066657,4.29599 -1.51999997,6.54399 0.86933337,2.152 2.83333257,3.488 5.12399957,3.488 1.161333,0 2.372,-0.33466 3.594667,-0.99466 l 0.9893335,-0.53334 -0.2013335,1.104 v -10e-4 c 0.004,0 0.016,0.172 0.2453335,0.41067 0.517333,0.53466 2.144,1.43333 7.232,1.43333 5.338666,0 12.797333,0.15333 13.303999,0.16533 1.248,-0.1 4.694667,-0.70533 4.694667,-2.19333 v -1.72533 l 0.984,1.41733 c 0.829333,1.19467 3.178667,2.09467 5.464,2.09467 h 0.0013 c 1.392,0 3.385333,-0.30934 4.98,-1.792 1.070667,-0.99467 1.750667,-2.37734 2.086667,-4.07867 -0.02533,-3.912 -0.953334,-7.05866 -2.698667,-9.09866"
       style="fill:#87ce26;fill-opacity:1;fill-rule:nonzero;stroke:none;stroke-width:0.133333"
       id="path804" /><path
       d="m 82.387012,51.108148 c -1.914667,-0.88 -4.096,-0.73467 -5.693333,0.38266 l -0.62,-0.884 c 1.910667,-1.33733 4.502666,-1.52133 6.764,-0.48 1.977333,0.90934 3.265333,2.54667 3.444,4.37867 l -1.074667,0.10533 c -0.141333,-1.44533 -1.196,-2.756 -2.82,-3.50266 z M 50.98968,69.014808 c 0.336,1.70133 1.014666,3.084 2.085333,4.07867 1.594666,1.48266 3.589333,1.792 4.98,1.792 h 0.0013 c 2.285333,0 4.634667,-0.9 5.464,-2.09467 l 0.984,-1.41733 v 1.72533 c 0,1.488 3.446666,2.09333 4.694666,2.19333 0.508,-0.012 7.965334,-0.16533 13.304,-0.16533 5.089333,0 6.716,-0.89867 7.232,-1.43333 0.229333,-0.23867 0.241333,-0.41067 0.245333,-0.41067 l 0.0013,10e-4 -0.202667,-1.104 0.990667,0.53334 c 1.222666,0.66 2.431996,0.99466 3.593326,0.99466 2.292,0 4.25467,-1.336 5.12534,-3.488 0.909332,-2.248 0.32666,-4.756 -1.52134,-6.54399 l -0.28133,-0.27067 0.17067,-0.352 c 1.056,-2.18667 1.08933,-4.35067 0.0947,-5.93733 -0.828,-1.31867 -2.292,-2.07334 -3.88533,-2.04 -0.24133,2.636 -2.231996,4.10533 -3.690663,4.82 3.123993,1.42533 3.250663,5.03733 3.199993,6.27199 h -0.54 l -0.53733,-0.0907 c 0.0613,-1.47067 -0.191996,-4.96133 -3.87333,-5.58667 l -2.597333,-0.44 2.561333,-0.61733 c 0.04133,-0.009 3.95866,-0.99467 4.40133,-4.26533 l -0.056,0.007 0.10667,-0.69733 c 0.35866,-2.36 -0.33334,-4.76 -1.902666,-6.58667 -1.424,-1.65733 -3.362667,-2.60666 -5.316,-2.60666 l -0.906667,0.0307 0.117333,-0.66 c 0.425334,-2.41733 -0.394666,-4.00933 -1.158666,-4.92 -1.073334,-1.27866 -2.710667,-2.04133 -4.382667,-2.04133 -0.845333,0 -1.638666,0.204 -2.293333,0.59067 l -0.736,0.43333 -0.076,-0.85067 c -0.214667,-2.35066 -2.054667,-4.264 -4.104,-4.264 -1.376,0 -2.628,0.872 -3.526667,2.45734 l -0.533333,0.93733 -0.432,-0.98667 c -1.446667,-3.30133 -3.936,-5.11866 -7.010666,-5.11866 -3.430667,0 -7.076,2.30133 -8.478667,5.352 -0.986666,2.14533 -0.678666,4.32 0.868,6.12266 l 0.446667,0.544 -0.64,0.30267 c -0.02267,0.0107 -2.241333,1.136 -2.241333,8.01467 v 11.96266 c 0.493333,-1.552 1.201333,-2.88533 2.132,-3.976 1.647999,-1.92933 3.934666,-2.99066 6.437333,-2.99066 l 0.249333,0.009 c 0.438667,-3.616 2.468,-4.968 3.706667,-5.44 1.056,-0.40533 2.234666,-0.46933 3.373333,-0.25467 2.445333,-3.40933 0.904,-5.87866 0.110666,-6.79066 -1.507999,-1.73467 -3.958666,-2.39334 -5.577333,-1.49734 l -0.522666,-0.94533 c 2.049333,-1.13467 5.085333,-0.372 6.914666,1.73333 1.914667,2.20134 1.946667,5.07467 0.165333,7.78934 0.908,0.32933 1.753334,0.84533 2.44,1.536 1.154667,1.15866 1.668,2.61733 1.494667,4.14266 2.462667,-1.396 5.090667,-1.55333 7.373333,-0.412 2.656,1.33334 4.372,4.22667 4.372,7.37467 0,3.504 -2.670667,5.75733 -5.308,6.172 -0.306666,0.048 -0.606666,0.0707 -0.898666,0.0707 -2.142667,0 -3.884,-1.25866 -4.568,-3.37866 l 1.029333,-0.33067 c 0.732,2.276 2.684,2.824 4.269333,2.57067 2.184,-0.34267 4.396,-2.20667 4.396,-5.104 0,-2.74267 -1.482667,-5.25733 -3.776,-6.408 -2.304,-1.156 -4.938666,-0.77333 -7.421333,1.08 l -1.504,1.12267 0.677333,-1.74934 c 0.844,-2.18266 -0.201333,-3.68666 -0.901333,-4.38933 -1.470667,-1.47733 -3.892,-2.036 -5.754666,-1.32267 -1.688,0.644 -2.744,2.24267 -3.030667,4.524 3.585333,0.52534 6.321333,3.16134 6.321333,6.332 h -1.081333 c 0,-2.952 -2.937333,-5.35466 -6.549333,-5.35466 -2.181334,0 -4.176,0.928 -5.616,2.612 -1.745333,2.04 -2.673333,5.18666 -2.697333,9.09866"
       style="fill:#87ce26;fill-opacity:1;fill-rule:nonzero;stroke:none;stroke-width:0.133333"
       id="path806" /></g></svg>
