<?xml version="1.0" encoding="UTF-8" standalone="no"?>
<!-- Created with Inkscape (http://www.inkscape.org/) -->

<svg
   width="86.738686"
   height="79.117332"
   viewBox="0 0 86.738685 79.117333"
   version="1.1"
   id="SVGRoot"
   sodipodi:docname="4.svg"
   xml:space="preserve"
   inkscape:version="1.2 (dc2aedaf03, 2022-05-15)"
   xmlns:inkscape="http://www.inkscape.org/namespaces/inkscape"
   xmlns:sodipodi="http://sodipodi.sourceforge.net/DTD/sodipodi-0.dtd"
   xmlns="http://www.w3.org/2000/svg"
   xmlns:svg="http://www.w3.org/2000/svg"><sodipodi:namedview
     id="namedview545"
     pagecolor="#505050"
     bordercolor="#ffffff"
     borderopacity="1"
     inkscape:showpageshadow="0"
     inkscape:pageopacity="0"
     inkscape:pagecheckerboard="1"
     inkscape:deskcolor="#505050"
     inkscape:document-units="px"
     showgrid="false"
     inkscape:zoom="11.602469"
     inkscape:cx="34.647797"
     inkscape:cy="19.090764"
     inkscape:window-width="1920"
     inkscape:window-height="1001"
     inkscape:window-x="-9"
     inkscape:window-y="-9"
     inkscape:window-maximized="1"
     inkscape:current-layer="layer1" /><defs
     id="defs540" /><g
     inkscape:label="Warstwa 1"
     inkscape:groupmode="layer"
     id="layer1"
     transform="translate(-23.063916,-40.11621)"><path
       d="m 109.59725,71.349542 h -9.09467 c -3.434666,0 -6.659999,3.226667 -6.659999,5.173333 0,0.802667 0.449333,1.198667 1.242666,1.826667 0.889334,0.705333 1.996,1.581333 1.996,3.530667 0,1.248 -0.857333,2.398666 -2.410666,3.241333 -1.316,0.712 -3.053334,1.138666 -4.645334,1.138666 -2.976,0 -4.825333,-1.401333 -4.825333,-3.655999 0,-1.906667 1.18,-3.106667 2.128,-4.072 0.696,-0.706667 1.296,-1.318667 1.296,-2.009334 l 0.0013,-0.185333 c 0.0027,-0.890667 0.0067,-1.810667 -0.708,-2.528 -1.012,-1.016 -3.353333,-1.532 -6.961333,-1.532 h -11.5013 v 4.114667 c 0,2.174666 -0.608,3.698666 -1.806666,4.528 -1.034667,0.716 -2.236,0.716 -2.814667,0.716 l -0.134667,-0.54 v 0.54 c -2.192,0 -2.722666,-1.994667 -3.110666,-3.450667 -0.304,-1.136 -0.524,-1.828 -1.022667,-1.828 -0.938667,0 -1.690666,0.44 -2.237333,1.308 -0.514667,0.814667 -0.798667,1.938667 -0.798667,3.165333 0,2.341334 1.042667,4.712 3.036,4.712 1.133333,0 1.684,-0.370666 2.321333,-0.802666 0.665334,-0.448 1.42,-0.957334 2.801334,-0.957334 3.113333,0 3.766666,5.777333 3.766666,10.624 3.622667,0 6.124,0 6.124,0 -0.412,4.449333 4.72,7.419995 9.309333,4.548 -0.809333,9.891995 13.048,9.082665 11.338667,1.079995 9.450669,5.12934 14.766669,-6.123995 9.267999,-11.794662 4.48,-0.453333 4.79467,-7.731999 -0.23733,-8.595999 3.57733,-1.318667 5.14133,-5.108 4.34,-8.294667"
       style="fill:#f1511b;fill-opacity:1;fill-rule:nonzero;stroke:none;stroke-width:0.133333"
       id="path88" /><path
       d="m 84.869248,100.10554 -0.432,-0.910665 c -4.468,2.422665 -9.257334,-0.481334 -8.864,-4.790667 0,0 -1.068,0 -2.809333,0 l 11.735999,24.829332 h 9.409333 l -6.752,-14.28933 c -1.286666,-0.992 -2.203999,-2.58667 -2.287999,-4.83867"
       style="fill:#732c18;fill-opacity:1;fill-rule:nonzero;stroke:none;stroke-width:0.133333"
       id="path92" /><path
       d="m 79.715914,50.386876 c -0.489333,-0.850667 -1.197333,-1.264 -2.162666,-1.264 -1.736,0 -2.417334,1.390667 -3.14,2.864 -0.641334,1.310667 -1.306667,2.665333 -2.798667,2.665333 -3.24,0 -3.24,-2.284 -3.24,-6.069333 v -8.161333 c -0.684,-0.202667 -1.384,-0.305333 -2.086666,-0.305333 -2.297334,0 -5.022667,1.169333 -5.78,4.452 l -0.232,1.005333 -0.693334,-0.764 c -1.278666,-1.406667 -3.478666,-2.213333 -6.038666,-2.213333 -3.162667,0 -6.262667,1.221333 -7.894666,3.110666 -1.046667,1.212 -1.462667,2.614667 -1.234667,4.170667 l 0.22,1.498666 -1.118667,-1.022666 c -0.825333,-0.756 -1.850666,-1.154667 -2.962666,-1.154667 -1.601334,0 -3.24,0.825333 -4.277334,2.154667 -0.94,1.204 -1.26,2.654666 -0.901333,4.086666 l 0.218667,0.872 -0.873334,-0.217333 c -2.351999,-0.585333 -4.959999,0.56 -6.201333,2.664 -0.897333,1.522666 -0.930666,3.26 -0.09467,4.768 0.276,0.516 0.656,1.005333 1.130666,1.46 l 0.809334,0.774666 -1.109334,0.150667 c -3.512,0.476 -5.710666,2.388 -6.12,5.286667 h 15.14 c 4.382667,0 6.674667,-1.869334 6.674667,-3.716 0,-0.725334 -0.642667,-1.126667 -1.693334,-1.722667 -1.169333,-0.662667 -2.626666,-1.489333 -2.626666,-3.342667 0,-2.432 4.356,-4.319999 8.101333,-4.319999 3.338666,0 5.333333,1.465333 5.333333,3.921333 0,1.385333 -1.181333,2.466666 -2.225333,3.42 -0.828,0.758666 -1.682667,1.541333 -1.682667,2.249333 0,2.197333 2.494667,3.510667 6.672,3.510667 h 11.546666 v -3.716 c 0,-7.030667 1.886667,-10.594667 5.605333,-10.594667 1.208,0 1.494667,1.141334 1.725334,2.058667 0.318666,1.274666 0.578666,2.056 1.848,2.056 1.222666,0 2.862666,-3.613333 2.862666,-7.308 0,-1.372 -0.241333,-2.514667 -0.7,-3.308"
       style="fill:#f68912;fill-opacity:1;fill-rule:nonzero;stroke:none;stroke-width:0.133333"
       id="path94" /><path
       d="m 108.66125,70.269542 c -0.98667,-1.98 -3.05467,-3.16 -5.79067,-3.273333 l -1.09867,-0.04533 0.708,-0.841334 c 1.32,-1.572 1.6,-3.5 0.76534,-5.293333 -0.98534,-2.114667 -3.32267,-3.38 -5.110669,-2.670666 l -1.214667,0.479999 0.52,-1.197333 c 0.722667,-1.664 0.514667,-3.842666 -0.518667,-5.418666 -1.372,-2.093334 -3.785333,-2.482667 -6.354666,-0.924 l -0.845334,0.514666 0.02533,-0.989333 c 0.08933,-3.462667 -0.766667,-6.144 -2.545334,-7.969333 -1.507999,-1.546667 -3.663999,-2.398667 -6.071999,-2.398667 -3.201334,0 -6.261334,1.546667 -7.277334,3.68 l -0.436,0.916 -0.516,-0.873333 c -0.821333,-1.392 -2.027999,-2.485333 -3.445333,-3.14 v 7.757333 c 0,4.430667 0.242667,4.990667 2.16,4.990667 0.78,0 1.204,-0.784 1.828,-2.062667 0.758667,-1.544 1.701333,-3.466667 4.110667,-3.466667 1.346666,0 2.418666,0.622667 3.1,1.802667 0.552,0.957333 0.842666,2.286667 0.842666,3.848 0,3.42 -1.536,8.388 -3.942666,8.388 -2.174667,0 -2.609334,-1.729334 -2.896,-2.873334 -0.237334,-0.946666 -0.362667,-1.242666 -0.677334,-1.242666 -3.002666,0 -4.525333,3.202666 -4.525333,9.516 v 3.716 H 80.95591 c 4.016,0 6.470667,0.586666 7.726667,1.847999 1.032,1.034667 1.026666,2.288 1.022666,3.294667 v 0.181333 c 0,1.132 -0.817333,1.964 -1.606666,2.766667 -0.893334,0.909333 -1.818667,1.850667 -1.818667,3.314667 0,2.325333 2.618667,2.576 3.745333,2.576 h 0.0013 c 1.418666,0 2.964,-0.377334 4.130666,-1.009334 0.688,-0.373333 1.842667,-1.166666 1.842667,-2.290666 0,-1.428 -0.733333,-2.009334 -1.585333,-2.684 -0.773334,-0.613334 -1.652,-1.308 -1.652,-2.673334 0,-2.673333 3.826666,-6.253333 7.739997,-6.253333 h 8.15867"
       style="fill:#53c5c7;fill-opacity:1;fill-rule:nonzero;stroke:none;stroke-width:0.133333"
       id="path96" /><path
       d="m 65.687915,84.862875 c -1.050667,0 -1.582667,0.358667 -2.196,0.773333 -0.686667,0.462667 -1.462667,0.986667 -2.926667,0.986667 -2.701333,0 -4.116,-2.913333 -4.116,-5.792 0,-1.429333 0.342667,-2.757333 0.964,-3.741333 0.748,-1.185333 1.837334,-1.810667 3.152,-1.810667 1.365333,0 1.737333,1.396 2.065333,2.629334 0.438667,1.648 0.797334,2.648 2.068,2.648 h 0.134667 c 0.504,0 1.441333,0 2.2,-0.524 0.890667,-0.616 1.341333,-1.841334 1.341333,-3.64 V 72.277542 H 56.827915 c -7.193333,0 -7.753333,-3.512 -7.753333,-4.589333 0,-1.184 1.034666,-2.130667 2.034666,-3.045333 0.922667,-0.842667 1.874667,-1.714667 1.874667,-2.624 0,-2.564 -2.974667,-2.841334 -4.253333,-2.841334 -3.412,0 -7.02,1.665334 -7.02,3.24 0,1.142667 0.784,1.669334 2.077333,2.404 1.050667,0.594667 2.242667,1.270667 2.242667,2.661334 0,2.309333 -2.426667,4.794666 -7.756,4.794666 H 23.063916 c 0.01067,2.008 0.828,4.097333 2.2,5.557333 0.774666,0.826667 2.066666,1.812 3.828,1.812 0.817333,0 1.650666,-0.22 2.474666,-0.654666 l 1.822667,-0.958667 -1.117333,1.730667 c -0.884,1.366666 -0.986667,2.758666 -0.297334,4.025333 0.941333,1.729333 3.216,2.938666 5.532,2.938666 1.212,0 3.46,-0.354666 4.884,-2.729333 l 1.334667,-2.224 -0.336,2.573334 c -0.0027,0.02133 -0.256,2.102666 1.082666,3.627999 0.990667,1.128 2.612,1.701334 4.818667,1.701334 h 11.610666 l -0.192,0.688 c -0.004,0.012 -0.342667,1.257333 0.388,2.221333 0.642667,0.850667 1.925333,1.281333 3.810667,1.281333 h 3.464 c -0.06133,-5.570666 -1.078667,-9.005333 -2.684,-9.005333"
       style="fill:#87ce26;fill-opacity:1;fill-rule:nonzero;stroke:none;stroke-width:0.133333"
       id="path98" /></g></svg>
