<?xml version="1.0" encoding="UTF-8" standalone="no"?>
<!-- Created with Inkscape (http://www.inkscape.org/) -->

<svg
   width="80.497581"
   height="87.170547"
   viewBox="0 0 80.497581 87.170547"
   version="1.1"
   id="SVGRoot"
   sodipodi:docname="9.svg"
   inkscape:version="1.2 (dc2aedaf03, 2022-05-15)"
   xmlns:inkscape="http://www.inkscape.org/namespaces/inkscape"
   xmlns:sodipodi="http://sodipodi.sourceforge.net/DTD/sodipodi-0.dtd"
   xmlns="http://www.w3.org/2000/svg"
   xmlns:svg="http://www.w3.org/2000/svg">
  <sodipodi:namedview
     id="namedview585"
     pagecolor="#505050"
     bordercolor="#ffffff"
     borderopacity="1"
     inkscape:showpageshadow="0"
     inkscape:pageopacity="0"
     inkscape:pagecheckerboard="1"
     inkscape:deskcolor="#505050"
     inkscape:document-units="px"
     showgrid="false"
     inkscape:zoom="4.1020923"
     inkscape:cx="44.61138"
     inkscape:cy="14.748571"
     inkscape:window-width="1920"
     inkscape:window-height="1001"
     inkscape:window-x="-9"
     inkscape:window-y="-9"
     inkscape:window-maximized="1"
     inkscape:current-layer="layer1" />
  <defs
     id="defs580" />
  <g
     inkscape:label="Warstwa 1"
     inkscape:groupmode="layer"
     id="layer1"
     transform="translate(20.502771,31.152597)">
    <path
       d="m 18.828029,-20.147477 c 0,-11.514667 -12.8254661,-14.710667 -17.685466,-6.146667 -3.7795999,-2.042667 -8.9093331,1.806667 -7.2895998,6.146667 -4.9947332,-1.033334 -12.9603592,4.846666 -9.7202532,13.7959992 -5.804693,1.1493334 -5.940106,10.3546665 -1.620307,12.2706664 -3.779173,1.9186666 -2.834386,9.3346664 2.565614,9.0786664 -4.320307,3.194667 -2.43072,13.805333 4.859346,14.06 -4.31924,3.325333 -0.540133,9.717333 3.9156002,7.030666 -4.0504002,5.242667 0.4048,12.636 8.2349331,10.856 0.5396,11.130666 16.7401327,13.028 16.7401327,0 0,-13.029333 0,-67.091998 0,-67.091998"
       style="fill:#717374;fill-opacity:1;fill-rule:nonzero;stroke:none;stroke-width:0.133333"
       id="path566" />
    <path
       d="m 13.072829,-22.258144 c -0.865066,-3.228 -4.1827995,-5.144 -7.4098661,-4.278667 -3.2281332,0.864 -5.1433332,4.181334 -4.2781332,7.409334 1.2702666,4.741333 4.9869332,4.249333 6.1087998,8.437333 l 2.0765333,-0.556 0.1766667,-0.04667 2.0775995,-0.557333 c -0.8636,-3.221334 0.982267,-4.812 1.306134,-7.528 0.205733,-0.922667 0.203733,-1.906667 -0.05773,-2.88"
       style="fill:#fadc25;fill-opacity:1;fill-rule:nonzero;stroke:none;stroke-width:0.133333"
       id="path568" />
    <path
       d="m 14.124963,-7.9541444 c 0.208266,0.776 -0.2548,1.5813333 -1.029734,1.7866666 L 9.4577628,-5.1928111 C 8.6826962,-4.9821445 7.8796295,-5.4474778 7.6717629,-6.2234778 L 6.9196295,-9.0274777 C 6.7129629,-9.800811 7.1769629,-10.604811 7.9514962,-10.812811 l 3.6369328,-0.974667 c 0.775467,-0.208 1.578134,0.257334 1.786,1.032 l 0.750534,2.8013336"
       style="fill:#929292;fill-opacity:1;fill-rule:nonzero;stroke:none;stroke-width:0.133333"
       id="path570" />
    <path
       d="m 9.1025628,-11.119478 -0.4245333,0.110667 c -0.9374666,-3.596 -3.7463999,-7.354666 -3.7750666,-7.393333 l 0.35,-0.262667 c 0.028667,0.03867 2.8890666,3.866667 3.8495999,7.545333"
       style="fill:#ffffff;fill-opacity:1;fill-rule:nonzero;stroke:none;stroke-width:0.133333"
       id="path572" />
    <path
       d="m 10.311896,-11.443478 c -1.0083999,-3.664 -0.4453332,-8.411999 -0.4385332,-8.458666 l 0.4338662,0.05467 c -0.0057,0.04533 -0.5594662,4.706666 0.426534,8.286666 l -0.421867,0.117333"
       style="fill:#ffffff;fill-opacity:1;fill-rule:nonzero;stroke:none;stroke-width:0.133333"
       id="path574" />
    <path
       d="m 7.6728295,-17.610144 -0.1114666,0.0067 c -0.2130667,-0.04 -0.2838667,-0.318667 -0.3526667,-0.588 l -0.056667,-0.208 c -0.1048,-0.313334 -0.1729333,-0.377334 -0.2057333,-0.388 l -0.3136,0.224 -0.088533,0.092 c -0.2505333,0.236 -0.4536,0.492 -0.6697333,0.764 -0.1250667,0.16 -0.2526667,0.318666 -0.3901334,0.474666 l -0.2188,-0.192 c 0.1344,-0.154666 0.2578667,-0.310666 0.3797334,-0.464 0.2134666,-0.268 0.4328,-0.542666 0.6984,-0.794666 l 0.077067,-0.08 c 0.1458667,-0.153334 0.3641333,-0.384 0.6161333,-0.3 0.2256,0.07067 0.3324,0.393333 0.3896,0.565333 l 0.064667,0.234667 0.1285333,0.370666 0.1313334,-0.162666 0.1129333,-0.257334 c 0.054267,-0.16 0.1110666,-0.324 0.2318666,-0.433333 0.2322667,-0.213333 0.4156,-0.052 0.5134667,0.03733 l 0.1057333,0.08533 c 0.1562667,0.106666 0.21,0.118666 0.3396,0.06533 0.5521333,-0.228 1.2521335,-0.809333 1.6084005,-1.242667 l 0.2244,0.188 c -0.3744,0.452 -1.1057338,1.070667 -1.7208005,1.322667 -0.2541333,0.104 -0.4114666,0.04667 -0.6156,-0.09333 l -0.1354666,-0.108 -0.0864,-0.06933 -0.036,0.02933 c -0.066667,0.06 -0.1114667,0.189333 -0.1536,0.314666 l -0.1489334,0.328 c -0.075067,0.109334 -0.1833333,0.244 -0.3177333,0.278667"
       style="fill:#ffffff;fill-opacity:1;fill-rule:nonzero;stroke:none;stroke-width:0.133333"
       id="path576" />
    <path
       d="m 13.095229,-6.1674778 c 0.774934,-0.2053333 1.238,-1.0106666 1.029734,-1.7866666 l -0.750534,-2.8013336 c -0.207866,-0.774666 -1.010533,-1.24 -1.786,-1.032 l -1.8415995,0.494667 1.5057335,5.6199999 1.842666,-0.4946667"
       style="fill:#b2b2b1;fill-opacity:1;fill-rule:nonzero;stroke:none;stroke-width:0.133333"
       id="path578" />
    <path
       d="m 12.992563,-10.730144 -5.7396001,1.5386663 -0.1494667,-0.564 5.7370668,-1.5373333 0.152,0.562667"
       style="fill:#929292;fill-opacity:1;fill-rule:nonzero;stroke:none;stroke-width:0.133333"
       id="path580" />
    <path
       d="m 13.308296,-9.5501443 -5.7386665,1.5386666 -0.1509333,-0.564 5.7385328,-1.5386663 0.151067,0.5639997"
       style="fill:#929292;fill-opacity:1;fill-rule:nonzero;stroke:none;stroke-width:0.133333"
       id="path582" />
    <path
       d="m 13.624429,-8.3701444 -5.7385328,1.5373333 -0.1505333,-0.564 5.7380001,-1.5359999 0.151066,0.5626666"
       style="fill:#929292;fill-opacity:1;fill-rule:nonzero;stroke:none;stroke-width:0.133333"
       id="path584" />
    <path
       d="m 13.940029,-7.1914777 -5.7385328,1.5373333 -0.1510667,-0.5626667 5.7385335,-1.5373333 0.151066,0.5626667"
       style="fill:#929292;fill-opacity:1;fill-rule:nonzero;stroke:none;stroke-width:0.133333"
       id="path586" />
    <path
       d="m 12.699896,-21.956811 -0.563067,0.149334 c -1.1036,-4.12 -4.6749328,-4.130667 -5.9577328,-3.786667 l -0.1505333,-0.562667 c 1.4390666,-0.386666 5.4432001,-0.382666 6.6713331,4.2"
       style="fill:#ffffff;fill-opacity:1;fill-rule:nonzero;stroke:none;stroke-width:0.133333"
       id="path588" />
    <path
       d="M 0.68736303,-5.4968111 C 2.3582963,-8.3901444 1.3660297,-12.091478 -1.5271702,-13.763478 c -2.8937333,-1.668 -6.5942666,-0.677333 -8.2645332,2.216 -2.4542266,4.2493336 0.5222667,6.5306669 -1.6469466,10.2866668 l 1.8620133,1.07466662 0.1572,0.09066667 1.8635999,1.07599997 c 1.6666667,-2.88799996 4.0974666,-2.70533326 6.2469332,-4.39866656 0.79733333,-0.5066666 1.49106664,-1.2053333 1.99626663,-2.0786666"
       style="fill:#fadc25;fill-opacity:1;fill-rule:nonzero;stroke:none;stroke-width:0.133333"
       id="path590" />
    <path
       d="m -8.6850367,5.3631886 c -0.4005334,0.6946667 -1.2968,0.936 -1.9910663,0.5346667 l -3.261494,-1.8826666 c -0.69428,-0.4013334 -0.934906,-1.2973333 -0.533333,-1.992 l 1.45156,-2.51599993 c 0.40104,-0.69333337 1.297387,-0.93199997 1.991147,-0.53199997 l 3.2619862,1.8826666 c 0.6948,0.4013333 0.9344,1.2973333 0.5333334,1.9919999 l -1.4521333,2.5133333"
       style="fill:#929292;fill-opacity:1;fill-rule:nonzero;stroke:none;stroke-width:0.133333"
       id="path592" />
    <path
       d="m -9.99797,-0.4274779 -0.377067,-0.22133333 C -8.4959701,-3.8554778 -7.8235701,-8.4981444 -7.8178368,-8.544811 l 0.4328,0.061333 c -0.00627,0.048 -0.6905333,4.7773332 -2.6129332,8.0559998"
       style="fill:#ffffff;fill-opacity:1;fill-rule:nonzero;stroke:none;stroke-width:0.133333"
       id="path594" />
    <path
       d="m -8.9137034,0.19785542 c 1.8797333,-3.30399992 5.6329332,-6.26133322 5.6709332,-6.28933322 l 0.2702667,0.3426667 c -0.036933,0.029333 -3.724,2.9333333 -5.5598666,6.16266651 L -8.9137034,0.19785542"
       style="fill:#ffffff;fill-opacity:1;fill-rule:nonzero;stroke:none;stroke-width:0.133333"
       id="path596" />
    <path
       d="m -6.4194368,-6.0274778 -0.081733,-0.076 c -0.1234667,-0.1773333 0.023467,-0.4253333 0.1646666,-0.6626666 l 0.1077334,-0.188 c 0.148,-0.2973333 0.1448,-0.3906667 0.1292,-0.4213333 l -0.3797334,-0.062667 -0.1281333,0.00267 c -0.3453333,-0.008 -0.6686666,0.028 -1.0134666,0.066667 -0.2010667,0.024 -0.4037334,0.046667 -0.612,0.061333 l -0.017733,-0.292 c 0.2026666,-0.013333 0.4005333,-0.034667 0.5958666,-0.057333 0.3396,-0.04 0.6906667,-0.081333 1.0557333,-0.070667 h 0.1109333 c 0.2109334,-0.00667 0.5286667,-0.016 0.6484,0.2213333 0.1078667,0.2106667 -0.043733,0.5133333 -0.1249333,0.676 l -0.1198667,0.212 -0.1713333,0.352 c 0.012,-0.004 0.0708,0.00267 0.2073333,-0.021333 l 0.262,-0.1013333 c 0.1504,-0.076 0.3061333,-0.1506666 0.4702667,-0.1426666 0.3156,0.012 0.3301333,0.2573333 0.3374666,0.3879999 l 0.014133,0.1346667 c 0.034267,0.1866667 0.063467,0.2333333 0.1937333,0.2866667 0.5514667,0.2293333 1.4577333,0.312 2.0150666,0.26 l 0.027067,0.2919999 c -0.5844,0.054667 -1.538,-0.026667 -2.1525333,-0.2813333 -0.2537333,-0.1066666 -0.3250667,-0.2573333 -0.3693333,-0.5026666 l -0.0192,-0.1733334 -0.012533,-0.1093333 -0.0464,-0.004 -0.3306666,0.1133333 -0.3376,0.1266667 c -0.1290667,0.024 -0.3014667,0.041333 -0.4224,-0.026667"
       style="fill:#ffffff;fill-opacity:1;fill-rule:nonzero;stroke:none;stroke-width:0.133333"
       id="path598" />
    <path
       d="m -10.676103,5.8978553 c 0.6942663,0.4013333 1.5905329,0.16 1.9910663,-0.5346667 L -7.2329034,2.8498553 C -6.8318368,2.1551887 -7.0714368,1.2591887 -7.7662368,0.8578554 l -1.6531999,-0.95333331 -2.9087863,5.03866651 1.65212,0.9546667"
       style="fill:#b2b2b1;fill-opacity:1;fill-rule:nonzero;stroke:none;stroke-width:0.133333"
       id="path600" />
    <path
       d="M -7.5219701,2.5978554 -12.66781,-0.3714779 -12.375103,-0.87547789 -7.2318368,2.092522 -7.5219701,2.5978554"
       style="fill:#929292;fill-opacity:1;fill-rule:nonzero;stroke:none;stroke-width:0.133333"
       id="path602" />
    <path
       d="M -8.1334368,3.656522 -13.277183,0.68452207 -12.986557,0.17918875 -7.8417034,3.1498553 -8.1334368,3.656522"
       style="fill:#929292;fill-opacity:1;fill-rule:nonzero;stroke:none;stroke-width:0.133333"
       id="path604" />
    <path
       d="M -8.7427701,4.7138553 -13.88813,1.744522 l 0.291667,-0.5079999 5.1452929,2.9719999 -0.2916,0.5053333"
       style="fill:#929292;fill-opacity:1;fill-rule:nonzero;stroke:none;stroke-width:0.133333"
       id="path606" />
    <path
       d="m -9.3542367,5.7698553 -5.1448263,-2.9693333 0.292186,-0.5066666 5.1442403,2.9706666 -0.2916,0.5053333"
       style="fill:#929292;fill-opacity:1;fill-rule:nonzero;stroke:none;stroke-width:0.133333"
       id="path608" />
    <path
       d="m 0.21029637,-5.5474778 -0.50466665,-0.292 C 1.8378963,-9.5314777 -0.6793036,-12.066144 -1.8293036,-12.730144 l 0.2917334,-0.502667 c 1.29013325,0.742667 4.1197332,3.5773333 1.74786657,7.6853332"
       style="fill:#ffffff;fill-opacity:1;fill-rule:nonzero;stroke:none;stroke-width:0.133333"
       id="path610" />
    <path
       d="m -3.1741035,14.181855 c -2.8937333,-1.669333 -6.5942665,-0.677333 -8.2645465,2.214667 -1.670827,2.894666 -0.67916,6.594666 2.2145466,8.265333 4.2494666,2.454666 6.5302665,-0.522667 10.2859998,1.646666 l 1.0739999,-1.861333 0.092133,-0.158667 1.0754666,-1.862666 C 0.4176293,20.759188 0.59629596,18.327188 -1.094904,16.179188 c -0.5078666,-0.797333 -1.2036,-1.490666 -2.0791999,-1.997333"
       style="fill:#fadc25;fill-opacity:1;fill-rule:nonzero;stroke:none;stroke-width:0.133333"
       id="path612" />
    <path
       d="m 7.6868295,23.553855 c 0.6948,0.401333 0.9354667,1.297333 0.5338667,1.992 l -1.8828,3.261333 C 5.9373629,29.501855 5.0410963,29.741855 4.3457629,29.340521 L 1.8310963,27.889855 C 1.137363,27.488521 0.89829636,26.591188 1.2988297,25.897855 l 1.8827999,-3.261333 c 0.4010667,-0.694667 1.2964,-0.934667 1.9912,-0.533334 l 2.5139999,1.450667"
       style="fill:#929292;fill-opacity:1;fill-rule:nonzero;stroke:none;stroke-width:0.133333"
       id="path614" />
    <path
       d="m 1.8952297,24.868521 -0.2218667,0.376 c -3.2057332,-1.878666 -7.8489331,-2.550666 -7.8953331,-2.557333 l 0.0604,-0.433333 c 0.047467,0.0053 4.7765332,0.690667 8.0567998,2.614666"
       style="fill:#ffffff;fill-opacity:1;fill-rule:nonzero;stroke:none;stroke-width:0.133333"
       id="path616" />
    <path
       d="m 2.5212296,23.783188 c -3.30519987,-1.878666 -6.2619998,-5.633333 -6.2901331,-5.672 l 0.3438666,-0.268 c 0.028533,0.036 2.93426662,3.724 6.1623999,5.56 l -0.2161334,0.38"
       style="fill:#ffffff;fill-opacity:1;fill-rule:nonzero;stroke:none;stroke-width:0.133333"
       id="path618" />
    <path
       d="m -3.7047702,21.288522 -0.074533,0.08267 c -0.1790667,0.122667 -0.4249333,-0.02267 -0.6645333,-0.166666 l -0.188,-0.105334 c -0.2953334,-0.146666 -0.3890667,-0.146666 -0.4198667,-0.129333 -0.071867,0.03733 -0.066667,0.258667 -0.062933,0.381333 l 0.00253,0.126667 c -0.0104,0.344 0.028133,0.666667 0.0672,1.013333 0.022933,0.201334 0.0448,0.401334 0.059867,0.612 l -0.2916,0.01867 c -0.013067,-0.204 -0.035467,-0.401333 -0.058933,-0.596 -0.039067,-0.34 -0.078533,-0.690667 -0.068133,-1.057333 l -0.0016,-0.109334 c -0.00627,-0.212 -0.014133,-0.530666 0.2229333,-0.650666 0.2109334,-0.108 0.5125334,0.04533 0.6749334,0.126666 l 0.212,0.12 0.3537333,0.172 c -0.00573,-0.01333 0.00147,-0.07333 -0.0224,-0.209333 l -0.1037334,-0.262667 c -0.073467,-0.148 -0.1483999,-0.304 -0.1410666,-0.468 0.011467,-0.318666 0.2572,-0.330666 0.388,-0.338666 l 0.1353333,-0.01333 c 0.1865333,-0.036 0.2328,-0.06533 0.2865333,-0.194666 0.2301334,-0.550667 0.3134667,-1.458667 0.2598667,-2.014667 l 0.2912,-0.028 c 0.0552,0.584 -0.0256,1.538667 -0.2824,2.152 -0.1057333,0.254667 -0.2566667,0.326667 -0.5009333,0.372 l -0.1724,0.01733 -0.11,0.01067 -0.0036,0.04667 0.112,0.333333 0.1281333,0.336 c 0.0244,0.130667 0.0416,0.302667 -0.0276,0.422667"
       style="fill:#ffffff;fill-opacity:1;fill-rule:nonzero;stroke:none;stroke-width:0.133333"
       id="path620" />
    <path
       d="m 8.2206962,25.545855 c 0.4016,-0.694667 0.1609333,-1.590667 -0.5338667,-1.992 L 5.1728296,22.103188 c -0.6948,-0.401333 -1.5901333,-0.161333 -1.9912,0.533334 l -0.9535999,1.651999 5.0395998,2.910667 0.9530667,-1.653333"
       style="fill:#b2b2b1;fill-opacity:1;fill-rule:nonzero;stroke:none;stroke-width:0.133333"
       id="path622" />
    <path
       d="m 4.9217629,22.392522 -2.9713332,5.145333 -0.5036,-0.290667 2.9691999,-5.146666 0.5057333,0.292"
       style="fill:#929292;fill-opacity:1;fill-rule:nonzero;stroke:none;stroke-width:0.133333"
       id="path624" />
    <path
       d="M 5.9790962,23.004522 3.0082963,28.147188 2.502963,27.856521 5.4749629,22.711188 5.9790962,23.004522"
       style="fill:#929292;fill-opacity:1;fill-rule:nonzero;stroke:none;stroke-width:0.133333"
       id="path626" />
    <path
       d="M 7.0362962,23.613855 4.0649629,28.756521 3.561363,28.467188 6.5305629,23.320522 7.0362962,23.613855"
       style="fill:#929292;fill-opacity:1;fill-rule:nonzero;stroke:none;stroke-width:0.133333"
       id="path628" />
    <path
       d="m 8.0946962,24.224521 -2.9713333,5.144 -0.5052,-0.292 2.9697333,-5.145333 0.5068,0.293333"
       style="fill:#929292;fill-opacity:1;fill-rule:nonzero;stroke:none;stroke-width:0.133333"
       id="path630" />
    <path
       d="m -3.2250369,14.660522 -0.2917333,0.502666 c -3.6926666,-2.133333 -6.2259998,0.385334 -6.8895998,1.536 l -0.505187,-0.290666 c 0.744787,-1.292 3.5781202,-4.12 7.6865201,-1.748"
       style="fill:#ffffff;fill-opacity:1;fill-rule:nonzero;stroke:none;stroke-width:0.133333"
       id="path632" />
    <path
       d="m 4.4805629,14.492522 c 1.6750667,2.890666 5.3777332,3.876 8.2682661,2.201333 2.890667,-1.674667 3.876534,-5.377333 2.201067,-8.2679998 C 12.491096,4.180522 9.0301628,5.6231886 6.8561629,1.868522 l -1.8604,1.0786667 -0.1584,0.090667 -1.8609333,1.0786667 c 1.6713333,2.8853332 0.3037334,4.9026665 0.698,7.6079996 0.0416,0.944 0.2994667,1.894666 0.8061333,2.768"
       style="fill:#fadc25;fill-opacity:1;fill-rule:nonzero;stroke:none;stroke-width:0.133333"
       id="path634" />
    <path
       d="M -0.26050361,0.95252206 C -0.6621036,0.25918875 -0.42503694,-0.6394779 0.27069637,-1.0394779 L 3.5296296,-2.9274778 c 0.6932,-0.404 1.5896,-0.164 1.9916,0.5306666 L 6.9769629,0.11518875 C 7.3785629,0.80852207 7.1384295,1.704522 6.4452296,2.1071887 L 3.187363,3.996522 C 2.492563,4.3978553 1.597763,4.1578553 1.1952297,3.4658553 L -0.26050361,0.95252206"
       style="fill:#929292;fill-opacity:1;fill-rule:nonzero;stroke:none;stroke-width:0.133333"
       id="path636" />
    <path
       d="m 5.4138962,2.700522 0.3824,-0.2133333 c 1.8405333,3.2253332 5.5295998,6.1226665 5.5675998,6.1533332 l -0.2692,0.3453333 C 11.056163,8.9551885 7.2982962,6.0045219 5.4138962,2.700522"
       style="fill:#ffffff;fill-opacity:1;fill-rule:nonzero;stroke:none;stroke-width:0.133333"
       id="path638" />
    <path
       d="m 4.3321629,3.3311887 c 1.9270667,3.2759999 2.6182666,8.0039993 2.6245333,8.0506663 l -0.4333333,0.06267 c -0.00573,-0.04667 -0.686,-4.6920001 -2.5682666,-7.8906667 L 4.3321629,3.3311887"
       style="fill:#ffffff;fill-opacity:1;fill-rule:nonzero;stroke:none;stroke-width:0.133333"
       id="path640" />
    <path
       d="m 8.4837628,8.5965219 0.1068,-0.033333 c 0.2156,-0.018667 0.3566667,0.2333334 0.4926667,0.4733334 l 0.1088,0.1866666 c 0.1829333,0.2773333 0.2662666,0.3186667 0.2996,0.3213333 l 0.2452,-0.2959999 0.061467,-0.112 c 0.1808,-0.2946667 0.3094665,-0.5946667 0.4463995,-0.9146667 0.08067,-0.184 0.163067,-0.3693333 0.254133,-0.5573333 l 0.260934,0.128 c -0.08907,0.1826667 -0.168667,0.364 -0.245334,0.548 -0.135866,0.312 -0.277066,0.636 -0.468133,0.948 l -0.052666,0.096 c -0.1016,0.1866666 -0.252,0.4653333 -0.5177334,0.4506666 -0.2364,-0.00933 -0.4223999,-0.2933333 -0.5229333,-0.444 L 8.82963,9.1831889 8.6086967,8.8578556 c -0.002,0.010667 -0.038,0.057333 -0.083733,0.1893333 l -0.0428,0.2786667 c -0.0104,0.1666666 -0.0224,0.34 -0.1109333,0.4786666 -0.1682667,0.2679998 -0.388,0.1573334 -0.5046667,0.098667 L 7.7420295,9.8498552 c -0.1781333,-0.062667 -0.2337333,-0.061333 -0.3448,0.024 -0.4744,0.3639998 -0.9989333,1.1053328 -1.2295999,1.6159998 l -0.2650667,-0.12 c 0.2426667,-0.534667 0.7874666,-1.322666 1.3161333,-1.7279998 0.2186667,-0.1666667 0.3848,-0.152 0.6197333,-0.069333 l 0.1584,0.069333 0.102,0.046667 0.026133,-0.04 c 0.048933,-0.074667 0.0588,-0.2133333 0.0676,-0.3439999 0.00787,-0.1213334 0.018267,-0.2453334 0.057333,-0.3546667 0.0432,-0.1266667 0.1145333,-0.2826667 0.2338666,-0.3533333"
       style="fill:#ffffff;fill-opacity:1;fill-rule:nonzero;stroke:none;stroke-width:0.133333"
       id="path642" />
    <path
       d="m 0.27069637,-1.0394779 c -0.69573331,0.4 -0.93279997,1.29866665 -0.53119998,1.99199996 L 1.1952297,3.4658553 c 0.4025333,0.692 1.2973333,0.932 1.9921333,0.5306667 L 4.8373629,3.0378553 1.9212297,-1.9941445 0.27069637,-1.0394779"
       style="fill:#b2b2b1;fill-opacity:1;fill-rule:nonzero;stroke:none;stroke-width:0.133333"
       id="path644" />
    <path
       d="M 1.5566963,3.3391887 6.6982962,0.35918874 6.9889629,0.86318873 1.849363,3.8431887 l -0.2926667,-0.504"
       style="fill:#929292;fill-opacity:1;fill-rule:nonzero;stroke:none;stroke-width:0.133333"
       id="path646" />
    <path
       d="M 0.94522969,2.2818554 6.0858962,-0.6954779 6.3785629,-0.19281124 1.2368297,2.7858554 0.94522969,2.2818554"
       style="fill:#929292;fill-opacity:1;fill-rule:nonzero;stroke:none;stroke-width:0.133333"
       id="path648" />
    <path
       d="m 0.3332297,1.2258554 5.1406665,-2.9786666 0.2910667,0.504 -5.1405332,2.9786666 -0.2912,-0.504"
       style="fill:#929292;fill-opacity:1;fill-rule:nonzero;stroke:none;stroke-width:0.133333"
       id="path650" />
    <path
       d="M -0.27930361,0.16852208 4.8613629,-2.8074778 5.1540296,-2.3048112 0.01442971,0.67518874 -0.27930361,0.16852208"
       style="fill:#929292;fill-opacity:1;fill-rule:nonzero;stroke:none;stroke-width:0.133333"
       id="path652" />
    <path
       d="m 4.7624296,14.104522 0.5052,-0.293334 c 2.1363999,3.690667 5.5869334,2.772 6.7363994,2.105334 l 0.2928,0.506666 c -1.289066,0.748 -5.1567995,1.784 -7.5343994,-2.318666"
       style="fill:#ffffff;fill-opacity:1;fill-rule:nonzero;stroke:none;stroke-width:0.133333"
       id="path654" />
    <path
       d="m 13.447229,36.231188 c -0.864533,-3.225333 -4.1827995,-5.141333 -7.4103994,-4.276 -3.2276,0.864 -5.14319991,4.181333 -4.2770666,7.408 1.2698666,4.74 4.9865332,4.248 6.1089332,8.438666 l 2.0759999,-0.557333 0.1765329,-0.048 2.077067,-0.556 c -0.8624,-3.218667 0.983333,-4.810667 1.3068,-7.526667 0.2052,-0.921333 0.2036,-1.905333 -0.05787,-2.882666"
       style="fill:#fadc25;fill-opacity:1;fill-rule:nonzero;stroke:none;stroke-width:0.133333"
       id="path656" />
    <path
       d="m 14.499363,50.540521 c 0.2084,0.773333 -0.254667,1.577333 -1.030667,1.784 l -3.6365332,0.974666 c -0.7754666,0.208 -1.5781333,-0.256 -1.7853333,-1.032 L 7.2941629,49.465854 c -0.2068,-0.776 0.2578666,-1.58 1.0317333,-1.786666 l 3.6375998,-0.976 c 0.775467,-0.206667 1.5776,0.257333 1.785333,1.032 l 0.750534,2.805333"
       style="fill:#929292;fill-opacity:1;fill-rule:nonzero;stroke:none;stroke-width:0.133333"
       id="path658" />
    <path
       d="m 9.4764295,47.373854 -0.4244,0.106667 C 8.1149628,43.887188 5.3066962,40.127188 5.2785629,40.089854 l 0.3489333,-0.262666 c 0.029733,0.03867 2.8885333,3.866666 3.8489333,7.546666"
       style="fill:#ffffff;fill-opacity:1;fill-rule:nonzero;stroke:none;stroke-width:0.133333"
       id="path660" />
    <path
       d="m 10.685896,47.048521 c -1.0089332,-3.666667 -0.4448,-8.412 -0.438133,-8.457333 l 0.433866,0.05067 c -0.0057,0.048 -0.559333,4.709334 0.426667,8.289334 l -0.4224,0.117333"
       style="fill:#ffffff;fill-opacity:1;fill-rule:nonzero;stroke:none;stroke-width:0.133333"
       id="path662" />
    <path
       d="m 8.0472295,40.881854 -0.1113333,0.0053 c -0.2130667,-0.03863 -0.2838667,-0.3173 -0.3526667,-0.5853 l -0.057333,-0.210666 c -0.1041333,-0.313334 -0.1724,-0.376 -0.2052,-0.388 l -0.3129333,0.224 -0.089067,0.09333 c -0.2505333,0.234667 -0.4532,0.492 -0.6698666,0.762667 -0.1249334,0.158666 -0.2525334,0.318666 -0.3896,0.476 l -0.2192,-0.192 c 0.1344,-0.154667 0.2582666,-0.309334 0.3801333,-0.464 0.2136,-0.268 0.4324,-0.545334 0.6985333,-0.797334 l 0.076533,-0.07733 c 0.1464,-0.153333 0.3634667,-0.382667 0.6161334,-0.301333 0.226,0.072 0.3322666,0.392 0.3901333,0.566666 l 0.064533,0.234667 0.1286667,0.369333 0.1302666,-0.161333 0.1134667,-0.257333 c 0.0536,-0.158667 0.1109333,-0.322667 0.2322667,-0.432 0.2318666,-0.217334 0.4146666,-0.05467 0.5125333,0.036 l 0.1062667,0.08267 c 0.1567999,0.108 0.2098666,0.12 0.3395999,0.06533 0.552,-0.226667 1.2519995,-0.806667 1.6071995,-1.238667 l 0.226133,0.184 c -0.374533,0.453333 -1.1052,1.073333 -1.7207991,1.325333 -0.2553334,0.102667 -0.412,0.04533 -0.6166667,-0.096 l -0.1349333,-0.106666 -0.086533,-0.06933 -0.035333,0.03067 c -0.0672,0.06 -0.112,0.186667 -0.1542666,0.312 l -0.1489334,0.330667 c -0.073867,0.108 -0.1833333,0.242666 -0.3177333,0.278666"
       style="fill:#ffffff;fill-opacity:1;fill-rule:nonzero;stroke:none;stroke-width:0.133333"
       id="path664" />
    <path
       d="m 13.468696,52.324521 c 0.776,-0.206667 1.239067,-1.010667 1.030667,-1.784 l -0.750534,-2.805333 c -0.207733,-0.774667 -1.009866,-1.238667 -1.785333,-1.032 l -1.842267,0.493333 1.505734,5.621333 1.841733,-0.493333"
       style="fill:#b2b2b1;fill-opacity:1;fill-rule:nonzero;stroke:none;stroke-width:0.133333"
       id="path666" />
    <path
       d="m 13.367096,47.761854 -5.7395998,1.537334 -0.1494667,-0.562667 5.7374665,-1.54 0.1516,0.565333"
       style="fill:#929292;fill-opacity:1;fill-rule:nonzero;stroke:none;stroke-width:0.133333"
       id="path668" />
    <path
       d="m 13.682163,48.941854 -5.7380002,1.536 -0.1510666,-0.564 5.7385328,-1.534666 0.150534,0.562666"
       style="fill:#929292;fill-opacity:1;fill-rule:nonzero;stroke:none;stroke-width:0.133333"
       id="path670" />
    <path
       d="m 13.998829,50.119188 -5.7385328,1.538666 -0.1505334,-0.564 5.7385332,-1.537333 0.150533,0.562667"
       style="fill:#929292;fill-opacity:1;fill-rule:nonzero;stroke:none;stroke-width:0.133333"
       id="path672" />
    <path
       d="m 14.314963,51.301854 -5.7396002,1.536 -0.1509333,-0.565333 5.7385335,-1.536 0.152,0.565333"
       style="fill:#929292;fill-opacity:1;fill-rule:nonzero;stroke:none;stroke-width:0.133333"
       id="path674" />
    <path
       d="m 13.074429,36.532521 -0.563066,0.150667 c -1.1036,-4.116 -4.6750668,-4.129333 -5.9578668,-3.785333 L 6.4029629,32.336521 c 1.4386666,-0.388 5.4433331,-0.384 6.6714661,4.196"
       style="fill:#ffffff;fill-opacity:1;fill-rule:nonzero;stroke:none;stroke-width:0.133333"
       id="path676" />
    <path
       d="m 20.663896,-20.147477 c 0,-11.514667 12.8256,-14.710667 17.685466,-6.146667 3.780267,-2.042667 8.909867,1.806667 7.290133,6.146667 4.9948,-1.033334 12.959867,4.846666 9.719733,13.7959992 5.804667,1.1493334 5.940134,10.3546665 1.620934,12.2706664 3.779066,1.9186666 2.834266,9.3346664 -2.566267,9.0786664 4.3204,3.194667 2.431333,13.805333 -4.859333,14.06 4.319866,3.325333 0.540666,9.717333 -3.915067,7.030666 4.05,5.242667 -0.4052,12.636 -8.235466,10.856 -0.5396,11.130666 -16.740133,13.028 -16.740133,0 0,-13.029333 0,-67.091998 0,-67.091998"
       style="fill:#717374;fill-opacity:1;fill-rule:nonzero;stroke:none;stroke-width:0.133333"
       id="path678" />
    <path
       d="m 26.419229,-22.258144 c 0.8656,-3.228 4.183333,-5.144 7.4104,-4.278667 3.2276,0.864 5.1432,4.181334 4.278133,7.409334 -1.2704,4.741333 -4.9876,4.249333 -6.108933,8.437333 l -2.077067,-0.556 -0.176,-0.04667 -2.0776,-0.557333 c 0.862934,-3.221334 -0.982266,-4.812 -1.3068,-7.528 -0.205733,-0.922667 -0.203066,-1.906667 0.05787,-2.88"
       style="fill:#fadc25;fill-opacity:1;fill-rule:nonzero;stroke:none;stroke-width:0.133333"
       id="path680" />
    <path
       d="m 25.367096,-7.9541444 c -0.2084,0.776 0.254666,1.5813333 1.030133,1.7866666 l 3.6376,0.9746667 c 0.7744,0.2106666 1.578133,-0.2546667 1.785333,-1.0306667 l 0.752134,-2.8039999 c 0.207333,-0.7733333 -0.257334,-1.5773333 -1.0312,-1.7853333 l -3.6376,-0.974667 c -0.774934,-0.208 -1.578134,0.257334 -1.785334,1.032 l -0.751066,2.8013336"
       style="fill:#929292;fill-opacity:1;fill-rule:nonzero;stroke:none;stroke-width:0.133333"
       id="path682" />
    <path
       d="m 30.390029,-11.119478 0.4244,0.110667 c 0.9376,-3.596 3.745867,-7.354666 3.775067,-7.393333 l -0.350534,-0.262667 c -0.02867,0.03867 -2.888533,3.866667 -3.848933,7.545333"
       style="fill:#ffffff;fill-opacity:1;fill-rule:nonzero;stroke:none;stroke-width:0.133333"
       id="path684" />
    <path
       d="m 29.180562,-11.443478 c 1.0084,-3.664 0.4448,-8.411999 0.438667,-8.458666 l -0.4344,0.05467 c 0.0063,0.04533 0.559333,4.706666 -0.426533,8.286666 l 0.422266,0.117333"
       style="fill:#ffffff;fill-opacity:1;fill-rule:nonzero;stroke:none;stroke-width:0.133333"
       id="path686" />
    <path
       d="m 31.819629,-17.610144 0.111467,0.0067 c 0.212533,-0.04 0.283866,-0.318667 0.352133,-0.588 l 0.05733,-0.208 c 0.104134,-0.313334 0.1724,-0.377334 0.205734,-0.388 l 0.312933,0.224 0.08853,0.092 c 0.250534,0.236 0.454267,0.492 0.6704,0.764 0.1244,0.16 0.252,0.318666 0.3896,0.474666 l 0.218667,-0.192 c -0.133867,-0.154666 -0.257733,-0.310666 -0.3792,-0.464 -0.213467,-0.268 -0.433333,-0.542666 -0.698933,-0.794666 l -0.07653,-0.08 c -0.145866,-0.153334 -0.364,-0.384 -0.616666,-0.3 -0.224934,0.07067 -0.331734,0.393333 -0.3896,0.565333 l -0.064,0.234667 -0.1292,0.370666 -0.130667,-0.162666 -0.113067,-0.257334 c -0.05413,-0.16 -0.110933,-0.324 -0.231733,-0.433333 -0.232933,-0.213333 -0.415733,-0.052 -0.514133,0.03733 l -0.1052,0.08533 c -0.156267,0.106666 -0.2104,0.118666 -0.340134,0.06533 -0.552,-0.228 -1.251466,-0.809333 -1.607733,-1.242667 l -0.225067,0.188 c 0.374534,0.452 1.105734,1.070667 1.7208,1.322667 0.2548,0.104 0.411467,0.04667 0.616267,-0.09333 l 0.135333,-0.108 0.08653,-0.06933 0.03587,0.02933 c 0.06613,0.06 0.110934,0.189333 0.1536,0.314666 l 0.149067,0.328 c 0.07493,0.109334 0.1828,0.244 0.3176,0.278667"
       style="fill:#ffffff;fill-opacity:1;fill-rule:nonzero;stroke:none;stroke-width:0.133333"
       id="path688" />
    <path
       d="m 26.397229,-6.1674778 c -0.775467,-0.2053333 -1.238533,-1.0106666 -1.030133,-1.7866666 l 0.751066,-2.8013336 c 0.2072,-0.774666 1.0104,-1.24 1.785334,-1.032 l 1.842266,0.494667 -1.506266,5.6199999 -1.842267,-0.4946667"
       style="fill:#b2b2b1;fill-opacity:1;fill-rule:nonzero;stroke:none;stroke-width:0.133333"
       id="path690" />
    <path
       d="m 26.499362,-10.730144 5.7396,1.5386663 0.15,-0.564 -5.736933,-1.5373333 -0.152667,0.562667"
       style="fill:#929292;fill-opacity:1;fill-rule:nonzero;stroke:none;stroke-width:0.133333"
       id="path692" />
    <path
       d="m 26.184296,-9.5501443 5.738533,1.5386666 0.151067,-0.564 -5.738534,-1.5386663 -0.151066,0.5639997"
       style="fill:#929292;fill-opacity:1;fill-rule:nonzero;stroke:none;stroke-width:0.133333"
       id="path694" />
    <path
       d="m 25.868162,-8.3701444 5.738,1.5373333 0.151067,-0.564 -5.738,-1.5359999 -0.151067,0.5626666"
       style="fill:#929292;fill-opacity:1;fill-rule:nonzero;stroke:none;stroke-width:0.133333"
       id="path696" />
    <path
       d="m 25.552029,-7.1914777 5.739067,1.5373333 0.150933,-0.5626667 -5.739067,-1.5373333 -0.150933,0.5626667"
       style="fill:#929292;fill-opacity:1;fill-rule:nonzero;stroke:none;stroke-width:0.133333"
       id="path698" />
    <path
       d="m 26.792029,-21.956811 0.5636,0.149334 c 1.103067,-4.12 4.674933,-4.130667 5.957867,-3.786667 l 0.15,-0.562667 c -1.438534,-0.386666 -5.443334,-0.382666 -6.671467,4.2"
       style="fill:#ffffff;fill-opacity:1;fill-rule:nonzero;stroke:none;stroke-width:0.133333"
       id="path700" />
    <path
       d="m 38.804562,-5.4968111 c -1.670267,-2.8933333 -0.678133,-6.5946669 2.215067,-8.2666669 2.893866,-1.668 6.594266,-0.677333 8.264133,2.216 2.454666,4.2493336 -0.521867,6.5306669 1.647333,10.2866668 l -1.861867,1.07466662 -0.157866,0.09066667 -1.863067,1.07599997 C 45.381629,-1.9074779 42.950429,-1.7248112 40.801495,-3.4181445 40.004029,-3.9248111 39.309762,-4.6234778 38.804562,-5.4968111"
       style="fill:#fadc25;fill-opacity:1;fill-rule:nonzero;stroke:none;stroke-width:0.133333"
       id="path702" />
    <path
       d="m 48.176962,5.3631886 c 0.400533,0.6946667 1.296933,0.936 1.991733,0.5346667 l 3.260933,-1.8826666 c 0.6948,-0.4013334 0.9348,-1.2973333 0.533334,-1.992 l -1.451067,-2.51599993 c -0.401067,-0.69333337 -1.298,-0.93199997 -1.991733,-0.53199997 l -3.261867,1.8826666 c -0.6944,0.4013333 -0.933866,1.2973333 -0.532933,1.9919999 l 1.4516,2.5133333"
       style="fill:#929292;fill-opacity:1;fill-rule:nonzero;stroke:none;stroke-width:0.133333"
       id="path704" />
    <path
       d="m 49.490562,-0.4274779 0.376533,-0.22133333 C 47.988429,-3.8554778 47.315495,-8.4981444 47.309762,-8.544811 l -0.4328,0.061333 c 0.0068,0.048 0.690667,4.7773332 2.6136,8.0559998"
       style="fill:#ffffff;fill-opacity:1;fill-rule:nonzero;stroke:none;stroke-width:0.133333"
       id="path706" />
    <path
       d="M 48.405629,0.19785542 C 46.525895,-3.1061445 42.772829,-6.0634778 42.735362,-6.0914778 l -0.2704,0.3426667 c 0.03707,0.029333 3.724,2.9333333 5.56,6.16266651 l 0.380667,-0.21599999"
       style="fill:#ffffff;fill-opacity:1;fill-rule:nonzero;stroke:none;stroke-width:0.133333"
       id="path708" />
    <path
       d="m 45.911362,-6.0274778 0.08227,-0.076 c 0.122933,-0.1773333 -0.02347,-0.4253333 -0.164534,-0.6626666 l -0.1084,-0.188 c -0.147866,-0.2973333 -0.1448,-0.3906667 -0.129066,-0.4213333 l 0.3796,-0.062667 0.128133,0.00267 c 0.345333,-0.008 0.6688,0.028 1.014133,0.066667 0.200934,0.024 0.4036,0.046667 0.611867,0.061333 l 0.0172,-0.292 c -0.202,-0.013333 -0.4,-0.034667 -0.595333,-0.057333 -0.34,-0.04 -0.690534,-0.081333 -1.056134,-0.070667 h -0.110533 c -0.210933,-0.00667 -0.528533,-0.016 -0.6484,0.2213333 -0.108267,0.2106667 0.0432,0.5133333 0.125067,0.676 l 0.119733,0.212 0.1708,0.352 c -0.01147,-0.004 -0.0708,0.00267 -0.206667,-0.021333 l -0.262533,-0.1013333 c -0.15,-0.076 -0.305733,-0.1506666 -0.469867,-0.1426666 -0.316133,0.012 -0.330133,0.2573333 -0.338,0.3879999 l -0.01347,0.1346667 c -0.0344,0.1866667 -0.06413,0.2333333 -0.194267,0.2866667 -0.551067,0.2293333 -1.457333,0.312 -2.0152,0.26 l -0.02707,0.2919999 c 0.584934,0.054667 1.538534,-0.026667 2.1532,-0.2813333 0.253067,-0.1066666 0.3244,-0.2573333 0.368667,-0.5026666 l 0.01987,-0.1733334 0.01253,-0.1093333 0.04573,-0.004 0.331334,0.1133333 0.336933,0.1266667 c 0.129733,0.024 0.302133,0.041333 0.4224,-0.026667"
       style="fill:#ffffff;fill-opacity:1;fill-rule:nonzero;stroke:none;stroke-width:0.133333"
       id="path710" />
    <path
       d="m 50.168695,5.8978553 c -0.6948,0.4013333 -1.5912,0.16 -1.991733,-0.5346667 l -1.4516,-2.5133333 C 46.324429,2.1551887 46.563895,1.2591887 47.258295,0.8578554 l 1.653067,-0.95333331 2.9088,5.03866651 -1.651467,0.9546667"
       style="fill:#b2b2b1;fill-opacity:1;fill-rule:nonzero;stroke:none;stroke-width:0.133333"
       id="path712" />
    <path
       d="m 47.014429,2.5978554 5.145866,-2.9693333 -0.2932,-0.50399999 -5.1432,2.96799989 0.290534,0.5053334"
       style="fill:#929292;fill-opacity:1;fill-rule:nonzero;stroke:none;stroke-width:0.133333"
       id="path714" />
    <path
       d="M 47.625362,3.656522 52.769628,0.68452207 52.478562,0.17918875 47.334295,3.1498553 47.625362,3.656522"
       style="fill:#929292;fill-opacity:1;fill-rule:nonzero;stroke:none;stroke-width:0.133333"
       id="path716" />
    <path
       d="M 48.235362,4.7138553 53.380162,1.744522 53.088428,1.2365221 47.943095,4.208522 48.235362,4.7138553"
       style="fill:#929292;fill-opacity:1;fill-rule:nonzero;stroke:none;stroke-width:0.133333"
       id="path718" />
    <path
       d="M 48.846295,5.7698553 53.991628,2.800522 53.699362,2.2938554 48.554562,5.264522 48.846295,5.7698553"
       style="fill:#929292;fill-opacity:1;fill-rule:nonzero;stroke:none;stroke-width:0.133333"
       id="path720" />
    <path
       d="m 39.281629,-5.5474778 0.504666,-0.292 c -2.132266,-3.6919999 0.384934,-6.2266662 1.535467,-6.8906662 l -0.2916,-0.502667 c -1.290667,0.742667 -4.119867,3.5773333 -1.748533,7.6853332"
       style="fill:#ffffff;fill-opacity:1;fill-rule:nonzero;stroke:none;stroke-width:0.133333"
       id="path722" />
    <path
       d="m 42.666029,14.181855 c 2.893733,-1.669333 6.594266,-0.677333 8.265066,2.214667 1.6704,2.894666 0.678667,6.594666 -2.215067,8.265333 -4.248933,2.454666 -6.529733,-0.522667 -10.285466,1.646666 l -1.0744,-1.861333 -0.09173,-0.158667 -1.075467,-1.862666 c 2.886,-1.666667 2.7068,-4.098667 4.3984,-6.246667 0.507867,-0.797333 1.203733,-1.490666 2.078667,-1.997333"
       style="fill:#fadc25;fill-opacity:1;fill-rule:nonzero;stroke:none;stroke-width:0.133333"
       id="path724" />
    <path
       d="m 31.805629,23.553855 c -0.6948,0.401333 -0.936,1.297333 -0.5344,1.992 l 1.8828,3.261333 c 0.400533,0.694667 1.297467,0.934667 1.9928,0.533333 l 2.514,-1.450666 c 0.693733,-0.401334 0.9328,-1.298667 0.532266,-1.992 l -1.8828,-3.261333 c -0.401066,-0.694667 -1.295866,-0.934667 -1.990666,-0.533334 l -2.514,1.450667"
       style="fill:#929292;fill-opacity:1;fill-rule:nonzero;stroke:none;stroke-width:0.133333"
       id="path726" />
    <path
       d="m 37.597229,24.868521 0.222,0.376 c 3.205733,-1.878666 7.848933,-2.550666 7.894666,-2.557333 l -0.0604,-0.433333 c -0.04733,0.0053 -4.776533,0.690667 -8.056266,2.614666"
       style="fill:#ffffff;fill-opacity:1;fill-rule:nonzero;stroke:none;stroke-width:0.133333"
       id="path728" />
    <path
       d="m 36.970695,23.783188 c 3.3052,-1.878666 6.262534,-5.633333 6.290667,-5.672 l -0.343733,-0.268 c -0.02867,0.036 -2.9344,3.724 -6.163067,5.56 l 0.216133,0.38"
       style="fill:#ffffff;fill-opacity:1;fill-rule:nonzero;stroke:none;stroke-width:0.133333"
       id="path730" />
    <path
       d="m 43.197229,21.288522 0.074,0.08267 c 0.1792,0.122667 0.4256,-0.02267 0.665066,-0.166666 l 0.188134,-0.105334 c 0.2948,-0.146666 0.388533,-0.146666 0.4192,-0.129333 0.0724,0.03733 0.0672,0.258667 0.06307,0.381333 l -0.0027,0.126667 c 0.0104,0.344 -0.02813,0.666667 -0.0672,1.013333 -0.0224,0.201334 -0.0448,0.401334 -0.05987,0.612 l 0.292267,0.01867 c 0.0124,-0.204 0.0348,-0.401333 0.05827,-0.596 0.03907,-0.34 0.07867,-0.690667 0.06827,-1.057333 l 0.002,-0.109334 c 0.0057,-0.212 0.0136,-0.530666 -0.223333,-0.650666 -0.210934,-0.108 -0.512,0.04533 -0.675067,0.126666 l -0.211467,0.12 -0.3536,0.172 c 0.0052,-0.01333 -0.0021,-0.07333 0.0224,-0.209333 l 0.103067,-0.262667 c 0.074,-0.148 0.148533,-0.304 0.141733,-0.468 -0.012,-0.318666 -0.257333,-0.330666 -0.388,-0.338666 l -0.135466,-0.01333 c -0.1864,-0.036 -0.233334,-0.06533 -0.2864,-0.194666 -0.2308,-0.550667 -0.314134,-1.458667 -0.26,-2.014667 l -0.291067,-0.028 c -0.0552,0.584 0.02547,1.538667 0.281733,2.152 0.106267,0.254667 0.257334,0.326667 0.5016,0.372 l 0.1724,0.01733 0.109334,0.01067 0.0036,0.04667 -0.112,0.333333 -0.128,0.336 c -0.024,0.130667 -0.04173,0.302667 0.028,0.422667"
       style="fill:#ffffff;fill-opacity:1;fill-rule:nonzero;stroke:none;stroke-width:0.133333"
       id="path732" />
    <path
       d="m 31.271229,25.545855 c -0.4016,-0.694667 -0.1604,-1.590667 0.5344,-1.992 l 2.514,-1.450667 c 0.6948,-0.401333 1.5896,-0.161333 1.990666,0.533334 l 0.954134,1.651999 -5.039467,2.910667 -0.953733,-1.653333"
       style="fill:#b2b2b1;fill-opacity:1;fill-rule:nonzero;stroke:none;stroke-width:0.133333"
       id="path734" />
    <path
       d="m 34.570162,22.392522 2.971467,5.145333 0.504133,-0.290667 -2.969866,-5.146666 -0.505734,0.292"
       style="fill:#929292;fill-opacity:1;fill-rule:nonzero;stroke:none;stroke-width:0.133333"
       id="path736" />
    <path
       d="m 33.512962,23.004522 2.9708,5.142666 0.5052,-0.290667 -2.971333,-5.145333 -0.504667,0.293334"
       style="fill:#929292;fill-opacity:1;fill-rule:nonzero;stroke:none;stroke-width:0.133333"
       id="path738" />
    <path
       d="m 32.455629,23.613855 2.971333,5.142666 0.504133,-0.289333 -2.969199,-5.146666 -0.506267,0.293333"
       style="fill:#929292;fill-opacity:1;fill-rule:nonzero;stroke:none;stroke-width:0.133333"
       id="path740" />
    <path
       d="m 31.397762,24.224521 2.971467,5.144 0.5052,-0.292 -2.9704,-5.145333 -0.506267,0.293333"
       style="fill:#929292;fill-opacity:1;fill-rule:nonzero;stroke:none;stroke-width:0.133333"
       id="path742" />
    <path
       d="m 42.717629,14.660522 0.2916,0.502666 c 3.6928,-2.133333 6.226133,0.385334 6.889066,1.536 l 0.5052,-0.290666 c -0.7448,-1.292 -3.578133,-4.12 -7.685866,-1.748"
       style="fill:#ffffff;fill-opacity:1;fill-rule:nonzero;stroke:none;stroke-width:0.133333"
       id="path744" />
    <path
       d="m 35.011896,14.492522 c -1.6756,2.890666 -5.3776,3.876 -8.268267,2.201333 -2.890667,-1.674667 -3.877067,-5.377333 -2.2016,-8.2679998 2.459467,-4.2453332 5.9204,-2.8026666 8.093867,-6.5573332 l 1.860933,1.0786667 0.158267,0.090667 1.860399,1.0786667 c -1.670799,2.8853332 -0.303066,4.9026665 -0.697866,7.6079996 -0.04173,0.944 -0.299467,1.894666 -0.805733,2.768"
       style="fill:#fadc25;fill-opacity:1;fill-rule:nonzero;stroke:none;stroke-width:0.133333"
       id="path746" />
    <path
       d="M 39.752562,0.95252206 C 40.154029,0.25918875 39.917629,-0.6394779 39.221229,-1.0394779 l -3.258267,-1.8879999 c -0.693333,-0.404 -1.5896,-0.164 -1.992266,0.5306666 L 32.514962,0.11518875 C 32.113896,0.80852207 32.353496,1.704522 33.046829,2.1071887 l 3.257733,1.8893333 c 0.6948,0.4013333 1.590133,0.1613333 1.992267,-0.5306667 l 1.455733,-2.51333324"
       style="fill:#929292;fill-opacity:1;fill-rule:nonzero;stroke:none;stroke-width:0.133333"
       id="path748" />
    <path
       d="M 34.078029,2.700522 33.696296,2.4871887 c -1.840667,3.2253332 -5.530267,6.1226665 -5.567734,6.1533332 l 0.2692,0.3453333 c 0.03853,-0.030667 3.7964,-2.9813333 5.680267,-6.2853332"
       style="fill:#ffffff;fill-opacity:1;fill-rule:nonzero;stroke:none;stroke-width:0.133333"
       id="path750" />
    <path
       d="m 35.160296,3.3311887 c -1.927067,3.2759999 -2.618667,8.0039993 -2.6244,8.0506663 l 0.4328,0.06267 c 0.0063,-0.04667 0.6864,-4.6920001 2.568133,-7.8906667 L 35.160296,3.3311887"
       style="fill:#ffffff;fill-opacity:1;fill-rule:nonzero;stroke:none;stroke-width:0.133333"
       id="path752" />
    <path
       d="m 31.008296,8.5965219 -0.106267,-0.033333 c -0.215733,-0.018667 -0.3568,0.2333334 -0.493333,0.4733334 l -0.108267,0.1866666 c -0.183333,0.2773333 -0.266667,0.3186667 -0.299467,0.3213333 l -0.245866,-0.2959999 -0.06093,-0.112 c -0.1812,-0.2946667 -0.309333,-0.5946667 -0.446933,-0.9146667 -0.08067,-0.184 -0.1624,-0.3693333 -0.2536,-0.5573333 l -0.261467,0.128 c 0.0896,0.1826667 0.1688,0.364 0.245867,0.548 0.135867,0.312 0.276533,0.636 0.468267,0.948 l 0.05253,0.096 c 0.1016,0.1866666 0.252133,0.4653333 0.5172,0.4506666 0.236533,-0.00933 0.422933,-0.2933333 0.522933,-0.444 l 0.124,-0.208 0.2208,-0.3253333 c 0.0016,0.010667 0.03747,0.057333 0.08387,0.1893333 l 0.04213,0.2786667 c 0.0104,0.1666666 0.02293,0.34 0.111467,0.4786666 0.167733,0.2679998 0.388,0.1573334 0.504133,0.098667 l 0.124534,-0.053333 c 0.178666,-0.062667 0.233866,-0.061333 0.345333,0.024 0.4744,0.3639998 0.9984,1.1053328 1.229733,1.6159998 l 0.265067,-0.12 c -0.2428,-0.534667 -0.788,-1.322666 -1.316667,-1.7279998 -0.2188,-0.1666667 -0.3844,-0.152 -0.619866,-0.069333 l -0.157734,0.069333 -0.102666,0.046667 -0.026,-0.04 c -0.0484,-0.074667 -0.0584,-0.2133333 -0.06773,-0.3439999 -0.0077,-0.1213334 -0.01827,-0.2453334 -0.05733,-0.3546667 -0.04267,-0.1266667 -0.114533,-0.2826667 -0.233733,-0.3533333"
       style="fill:#ffffff;fill-opacity:1;fill-rule:nonzero;stroke:none;stroke-width:0.133333"
       id="path754" />
    <path
       d="m 39.221229,-1.0394779 c 0.6964,0.4 0.9328,1.29866665 0.531333,1.99199996 L 38.296829,3.4658553 c -0.402134,0.692 -1.297467,0.932 -1.992267,0.5306667 l -1.649466,-0.9586667 2.915599,-5.0319998 1.650534,0.9546666"
       style="fill:#b2b2b1;fill-opacity:1;fill-rule:nonzero;stroke:none;stroke-width:0.133333"
       id="path756" />
    <path
       d="m 37.935895,3.3391887 -5.142266,-2.97999996 -0.290667,0.50399999 5.1396,2.97999997 0.293333,-0.504"
       style="fill:#929292;fill-opacity:1;fill-rule:nonzero;stroke:none;stroke-width:0.133333"
       id="path758" />
    <path
       d="m 38.546829,2.2818554 -5.140667,-2.9773333 -0.292266,0.50266666 5.141199,2.97866664 0.291734,-0.504"
       style="fill:#929292;fill-opacity:1;fill-rule:nonzero;stroke:none;stroke-width:0.133333"
       id="path760" />
    <path
       d="m 39.158695,1.2258554 -5.140533,-2.9786666 -0.2912,0.504 5.1412,2.9786666 0.290533,-0.504"
       style="fill:#929292;fill-opacity:1;fill-rule:nonzero;stroke:none;stroke-width:0.133333"
       id="path762" />
    <path
       d="m 39.771229,0.16852208 -5.140667,-2.97599988 -0.292666,0.5026666 5.140133,2.97999994 0.2932,-0.50666666"
       style="fill:#929292;fill-opacity:1;fill-rule:nonzero;stroke:none;stroke-width:0.133333"
       id="path764" />
    <path
       d="m 34.730162,14.104522 -0.5052,-0.293334 c -2.137066,3.690667 -5.5876,2.772 -6.736533,2.105334 l -0.2932,0.506666 c 1.289067,0.748 5.157333,1.784 7.534933,-2.318666"
       style="fill:#ffffff;fill-opacity:1;fill-rule:nonzero;stroke:none;stroke-width:0.133333"
       id="path766" />
    <path
       d="m 26.045229,36.231188 c 0.864,-3.225333 4.1828,-5.141333 7.409867,-4.276 3.227599,0.864 5.143199,4.181333 4.277066,7.408 -1.2692,4.74 -4.985866,4.248 -6.108266,8.438666 l -2.076667,-0.557333 -0.176,-0.048 -2.0776,-0.556 c 0.862533,-3.218667 -0.983333,-4.810667 -1.3068,-7.526667 -0.2052,-0.921333 -0.2036,-1.905333 0.0584,-2.882666"
       style="fill:#fadc25;fill-opacity:1;fill-rule:nonzero;stroke:none;stroke-width:0.133333"
       id="path768" />
    <path
       d="m 24.992562,50.540521 c -0.207733,0.773333 0.254667,1.577333 1.0308,1.784 l 3.636934,0.974666 c 0.7756,0.208 1.578133,-0.256 1.784933,-1.032 l 0.752533,-2.801333 c 0.207334,-0.776 -0.257733,-1.58 -1.031733,-1.786666 l -3.637467,-0.976 c -0.7756,-0.206667 -1.577066,0.257333 -1.784933,1.032 l -0.751067,2.805333"
       style="fill:#929292;fill-opacity:1;fill-rule:nonzero;stroke:none;stroke-width:0.133333"
       id="path770" />
    <path
       d="m 30.015496,47.373854 0.424533,0.106667 c 0.936933,-3.593333 3.745867,-7.353333 3.773467,-7.390667 l -0.349067,-0.262666 c -0.02907,0.03867 -2.888533,3.866666 -3.848933,7.546666"
       style="fill:#ffffff;fill-opacity:1;fill-rule:nonzero;stroke:none;stroke-width:0.133333"
       id="path772" />
    <path
       d="m 28.806696,47.048521 c 1.008266,-3.666667 0.4448,-8.412 0.437466,-8.457333 l -0.433866,0.05067 c 0.0063,0.048 0.559333,4.709334 -0.426,8.289334 l 0.4224,0.117333"
       style="fill:#ffffff;fill-opacity:1;fill-rule:nonzero;stroke:none;stroke-width:0.133333"
       id="path774" />
    <path
       d="m 31.444696,40.881854 0.112,0.0053 c 0.212933,-0.03867 0.283866,-0.317334 0.352,-0.585334 l 0.05733,-0.210666 c 0.104133,-0.313334 0.172933,-0.376 0.2052,-0.388 l 0.313067,0.224 0.0896,0.09333 c 0.250533,0.234667 0.452533,0.492 0.669733,0.762667 0.125067,0.158666 0.252667,0.318666 0.389067,0.476 l 0.219866,-0.192 c -0.1344,-0.154667 -0.258933,-0.309334 -0.380266,-0.464 -0.214,-0.268 -0.432267,-0.545334 -0.698934,-0.797334 l -0.07613,-0.07733 c -0.146267,-0.153333 -0.364,-0.382667 -0.616667,-0.301333 -0.226,0.072 -0.331733,0.392 -0.389466,0.566666 l -0.06467,0.234667 -0.1292,0.369333 -0.130133,-0.161333 -0.113067,-0.257333 c -0.05413,-0.158667 -0.111467,-0.322667 -0.2328,-0.432 -0.2312,-0.217334 -0.414533,-0.05467 -0.512,0.036 l -0.106267,0.08267 c -0.156666,0.108 -0.2104,0.12 -0.339466,0.06533 -0.552134,-0.226667 -1.252134,-0.806667 -1.607867,-1.238667 l -0.225467,0.184 c 0.373867,0.453333 1.1052,1.073333 1.720267,1.325333 0.2552,0.102667 0.412533,0.04533 0.616667,-0.096 l 0.135466,-0.106666 0.08587,-0.06933 0.036,0.03067 c 0.0672,0.06 0.111867,0.186667 0.154133,0.312 l 0.1484,0.330667 c 0.07453,0.108 0.183334,0.242666 0.317734,0.278666"
       style="fill:#ffffff;fill-opacity:1;fill-rule:nonzero;stroke:none;stroke-width:0.133333"
       id="path776" />
    <path
       d="m 26.023362,52.324521 c -0.776133,-0.206667 -1.238533,-1.010667 -1.0308,-1.784 l 0.751067,-2.805333 c 0.207867,-0.774667 1.009333,-1.238667 1.784933,-1.032 l 1.842667,0.493333 -1.506267,5.621333 -1.8416,-0.493333"
       style="fill:#b2b2b1;fill-opacity:1;fill-rule:nonzero;stroke:none;stroke-width:0.133333"
       id="path778" />
    <path
       d="m 26.124962,47.761854 5.739467,1.537334 0.15,-0.562667 -5.738,-1.54 -0.151467,0.565333"
       style="fill:#929292;fill-opacity:1;fill-rule:nonzero;stroke:none;stroke-width:0.133333"
       id="path780" />
    <path
       d="m 25.809762,48.941854 5.738534,1.536 0.151066,-0.564 -5.739066,-1.534666 -0.150534,0.562666"
       style="fill:#929292;fill-opacity:1;fill-rule:nonzero;stroke:none;stroke-width:0.133333"
       id="path782" />
    <path
       d="m 25.493629,50.119188 5.738,1.538666 0.150533,-0.564 -5.738533,-1.537333 -0.15,0.562667"
       style="fill:#929292;fill-opacity:1;fill-rule:nonzero;stroke:none;stroke-width:0.133333"
       id="path784" />
    <path
       d="m 25.176962,51.301854 5.7396,1.536 0.151067,-0.565333 -5.738,-1.536 -0.152667,0.565333"
       style="fill:#929292;fill-opacity:1;fill-rule:nonzero;stroke:none;stroke-width:0.133333"
       id="path786" />
    <path
       d="m 26.418162,36.532521 0.562934,0.150667 c 1.103733,-4.116 4.674533,-4.129333 5.957866,-3.785333 l 0.150534,-0.561334 c -1.439067,-0.388 -5.443734,-0.384 -6.671334,4.196"
       style="fill:#ffffff;fill-opacity:1;fill-rule:nonzero;stroke:none;stroke-width:0.133333"
       id="path788" />
  </g>
</svg>
