<?xml version="1.0" encoding="UTF-8" standalone="no"?>
<!-- Created with Inkscape (http://www.inkscape.org/) -->

<svg
   width="91.411995"
   height="63.643997"
   viewBox="0 0 91.411995 63.643997"
   version="1.1"
   id="SVGRoot"
   sodipodi:docname="7.svg"
   inkscape:version="1.2 (dc2aedaf03, 2022-05-15)"
   xmlns:inkscape="http://www.inkscape.org/namespaces/inkscape"
   xmlns:sodipodi="http://sodipodi.sourceforge.net/DTD/sodipodi-0.dtd"
   xmlns="http://www.w3.org/2000/svg"
   xmlns:svg="http://www.w3.org/2000/svg">
  <sodipodi:namedview
     id="namedview585"
     pagecolor="#505050"
     bordercolor="#ffffff"
     borderopacity="1"
     inkscape:showpageshadow="0"
     inkscape:pageopacity="0"
     inkscape:pagecheckerboard="1"
     inkscape:deskcolor="#505050"
     inkscape:document-units="px"
     showgrid="false"
     inkscape:zoom="4.1020923"
     inkscape:cx="29.497142"
     inkscape:cy="-57.897283"
     inkscape:window-width="1920"
     inkscape:window-height="1001"
     inkscape:window-x="-9"
     inkscape:window-y="-9"
     inkscape:window-maximized="1"
     inkscape:current-layer="layer1" />
  <defs
     id="defs580" />
  <g
     inkscape:label="Warstwa 1"
     inkscape:groupmode="layer"
     id="layer1"
     transform="translate(6.2139539,-53.012753)">
    <path
       d="m 26.906045,94.926086 c 0,2.982666 -2.416,5.401334 -5.398666,5.401334 -2.984,0 -5.4,-2.418668 -5.4,-5.401334 0,-2.981334 2.416,-5.398667 5.4,-5.398667 2.982666,0 5.398666,2.417333 5.398666,5.398667"
       style="fill:#f68912;fill-opacity:1;fill-rule:nonzero;stroke:none;stroke-width:0.133333"
       id="path120" />
    <path
       d="m 9.2687123,84.126086 c 0,1.492 -1.2106666,2.701333 -2.7013332,2.701333 -1.492,0 -2.7,-1.209333 -2.7,-2.701333 0,-1.490667 1.208,-2.7 2.7,-2.7 1.4906666,0 2.7013332,1.209333 2.7013332,2.7"
       style="fill:#53c5c7;fill-opacity:1;fill-rule:nonzero;stroke:none;stroke-width:0.133333"
       id="path122" />
    <path
       d="m -2.9726207,85.927419 c 0,0.894667 -0.7253333,1.62 -1.6213333,1.62 -0.8933333,0 -1.6199999,-0.725333 -1.6199999,-1.62 0,-0.896 0.7266666,-1.62 1.6199999,-1.62 0.896,0 1.6213333,0.724 1.6213333,1.62"
       style="fill:#f9dc06;fill-opacity:1;fill-rule:nonzero;stroke:none;stroke-width:0.133333"
       id="path124" />
    <path
       d="m 28.943379,68.726086 c 0,1.492 -1.208,2.7 -2.7,2.7 -1.490667,0 -2.698667,-1.208 -2.698667,-2.7 0,-1.490666 1.208,-2.698666 2.698667,-2.698666 1.492,0 2.7,1.208 2.7,2.698666"
       style="fill:#2d778f;fill-opacity:1;fill-rule:nonzero;stroke:none;stroke-width:0.133333"
       id="path126" />
    <path
       d="m 65.504711,105.18742 c 0,2.088 -1.690667,3.78 -3.778667,3.78 -2.088,0 -3.78,-1.692 -3.78,-3.78 0,-2.088 1.692,-3.78133 3.78,-3.78133 2.088,0 3.778667,1.69333 3.778667,3.78133"
       style="fill:#f9dc06;fill-opacity:1;fill-rule:nonzero;stroke:none;stroke-width:0.133333"
       id="path128" />
    <path
       d="m 7.1073791,100.32742 c 0,0.89467 -0.7253333,1.61867 -1.62,1.61867 -0.896,0 -1.62,-0.724 -1.62,-1.61867 0,-0.896001 0.724,-1.621334 1.62,-1.621334 0.8946667,0 1.62,0.725333 1.62,1.621334"
       style="fill:#2d778f;fill-opacity:1;fill-rule:nonzero;stroke:none;stroke-width:0.133333"
       id="path130" />
    <path
       d="m 30.564712,107.25942 c 0,0.89467 -0.726667,1.62 -1.621333,1.62 -0.892,0 -1.618667,-0.72533 -1.618667,-1.62 0,-0.896 0.726667,-1.62 1.618667,-1.62 0.894666,0 1.621333,0.724 1.621333,1.62"
       style="fill:#87ce26;fill-opacity:1;fill-rule:nonzero;stroke:none;stroke-width:0.133333"
       id="path132" />
    <path
       d="m 39.204712,97.087419 c 0,0.894667 -0.726667,1.618667 -1.618667,1.618667 -0.896,0 -1.622667,-0.724 -1.622667,-1.618667 0,-0.896 0.726667,-1.62 1.622667,-1.62 0.892,0 1.618667,0.724 1.618667,1.62"
       style="fill:#f1511b;fill-opacity:1;fill-rule:nonzero;stroke:none;stroke-width:0.133333"
       id="path134" />
    <path
       d="m 19.346045,75.036753 c 0,0.894667 -0.724,1.62 -1.62,1.62 -0.893333,0 -1.618666,-0.725333 -1.618666,-1.62 0,-0.894667 0.725333,-1.62 1.618666,-1.62 0.896,0 1.62,0.725333 1.62,1.62"
       style="fill:#87ce26;fill-opacity:1;fill-rule:nonzero;stroke:none;stroke-width:0.133333"
       id="path136" />
    <path
       d="m 14.126046,66.02742 c 0,2.086666 -1.690667,3.78 -3.78,3.78 -2.086667,0 -3.7786669,-1.693334 -3.7786669,-3.78 0,-2.088 1.6919999,-3.78 3.7786669,-3.78 2.089333,0 3.78,1.692 3.78,3.78"
       style="fill:#f1511b;fill-opacity:1;fill-rule:nonzero;stroke:none;stroke-width:0.133333"
       id="path138" />
    <path
       d="m 46.764711,61.652753 c 0,2.982667 -2.417333,5.4 -5.399999,5.4 -2.984,0 -5.401334,-2.417333 -5.401334,-5.4 0,-2.982666 2.417334,-5.4 5.401334,-5.4 2.982666,0 5.399999,2.417334 5.399999,5.4"
       style="fill:#87ce26;fill-opacity:1;fill-rule:nonzero;stroke:none;stroke-width:0.133333"
       id="path140" />
    <path
       d="m 32.184712,81.067419 c 0,0.894667 -0.726667,1.62 -1.62,1.62 -0.896,0 -1.621333,-0.725333 -1.621333,-1.62 0,-0.896 0.725333,-1.62 1.621333,-1.62 0.893333,0 1.62,0.724 1.62,1.62"
       style="fill:#f9dc06;fill-opacity:1;fill-rule:nonzero;stroke:none;stroke-width:0.133333"
       id="path142" />
    <path
       d="m 30.564712,54.632753 c 0,0.894667 -0.726667,1.62 -1.621333,1.62 -0.892,0 -1.618667,-0.725333 -1.618667,-1.62 0,-0.894666 0.726667,-1.62 1.618667,-1.62 0.894666,0 1.621333,0.725334 1.621333,1.62"
       style="fill:#f68912;fill-opacity:1;fill-rule:nonzero;stroke:none;stroke-width:0.133333"
       id="path144" />
    <path
       d="m 55.003378,89.527419 c 0,1.490667 -1.206667,2.698667 -2.698667,2.698667 -1.492,0 -2.7,-1.208 -2.7,-2.698667 0,-1.492 1.208,-2.7 2.7,-2.7 1.492,0 2.698667,1.208 2.698667,2.7"
       style="fill:#2d778f;fill-opacity:1;fill-rule:nonzero;stroke:none;stroke-width:0.133333"
       id="path146" />
    <path
       d="m 70.906044,70.716753 c 0,1.492 -1.209333,2.7 -2.7,2.7 -1.489333,0 -2.701333,-1.208 -2.701333,-2.7 0,-1.490667 1.212,-2.7 2.701333,-2.7 1.490667,0 2.7,1.209333 2.7,2.7"
       style="fill:#53c5c7;fill-opacity:1;fill-rule:nonzero;stroke:none;stroke-width:0.133333"
       id="path148" />
    <path
       d="m 77.126044,98.706086 c 0,1.492004 -1.208,2.700004 -2.698667,2.700004 -1.492,0 -2.701333,-1.208 -2.701333,-2.700004 0,-1.490667 1.209333,-2.7 2.701333,-2.7 1.490667,0 2.698667,1.209333 2.698667,2.7"
       style="fill:#2d778f;fill-opacity:1;fill-rule:nonzero;stroke:none;stroke-width:0.133333"
       id="path150" />
    <path
       d="m 45.143378,84.126086 c 0,2.088 -1.690667,3.78 -3.778666,3.78 -2.088,0 -3.778667,-1.692 -3.778667,-3.78 0,-2.086667 1.690667,-3.778667 3.778667,-3.778667 2.087999,0 3.778666,1.692 3.778666,3.778667"
       style="fill:#53c5c7;fill-opacity:1;fill-rule:nonzero;stroke:none;stroke-width:0.133333"
       id="path152" />
    <path
       d="m 55.783378,55.712753 c 0,1.490667 -1.208,2.7 -2.7,2.7 -1.489333,0 -2.698667,-1.209333 -2.698667,-2.7 0,-1.490666 1.209334,-2.7 2.698667,-2.7 1.492,0 2.7,1.209334 2.7,2.7"
       style="fill:#f9dc06;fill-opacity:1;fill-rule:nonzero;stroke:none;stroke-width:0.133333"
       id="path154" />
    <path
       d="m 50.004711,101.94609 c 0,0.89466 -0.726666,1.62133 -1.618666,1.62133 -0.896,0 -1.621334,-0.72667 -1.621334,-1.62133 0,-0.89334 0.725334,-1.61867 1.621334,-1.61867 0.892,0 1.618666,0.72533 1.618666,1.61867"
       style="fill:#f9dc06;fill-opacity:1;fill-rule:nonzero;stroke:none;stroke-width:0.133333"
       id="path156" />
    <path
       d="m 61.187378,115.03675 c 0,0.89467 -0.726667,1.62 -1.622667,1.62 -0.893333,0 -1.618667,-0.72533 -1.618667,-1.62 0,-0.89466 0.725334,-1.61866 1.618667,-1.61866 0.896,0 1.622667,0.724 1.622667,1.61866"
       style="fill:#87ce26;fill-opacity:1;fill-rule:nonzero;stroke:none;stroke-width:0.133333"
       id="path158" />
    <path
       d="m 73.346044,114.32609 c 0,0.89466 -0.724,1.62 -1.62,1.62 -0.893333,0 -1.618667,-0.72534 -1.618667,-1.62 0,-0.896 0.725334,-1.62 1.618667,-1.62 0.896,0 1.62,0.724 1.62,1.62"
       style="fill:#53c5c7;fill-opacity:1;fill-rule:nonzero;stroke:none;stroke-width:0.133333"
       id="path160" />
    <path
       d="m 85.198044,97.087419 c 0,0.894667 -0.726667,1.618667 -1.62,1.618667 -0.894667,0 -1.62,-0.724 -1.62,-1.618667 0,-0.896 0.725333,-1.62 1.62,-1.62 0.893333,0 1.62,0.724 1.62,1.62"
       style="fill:#f1511b;fill-opacity:1;fill-rule:nonzero;stroke:none;stroke-width:0.133333"
       id="path162" />
    <path
       d="m 61.726044,77.82742 c 0,0.894666 -0.725333,1.619999 -1.618666,1.619999 -0.894667,0 -1.62,-0.725333 -1.62,-1.619999 0,-0.896 0.725333,-1.62 1.62,-1.62 0.893333,0 1.618666,0.724 1.618666,1.62"
       style="fill:#f1511b;fill-opacity:1;fill-rule:nonzero;stroke:none;stroke-width:0.133333"
       id="path164" />
    <path
       d="m 57.403378,67.646086 c 0,0.896 -0.725334,1.621334 -1.62,1.621334 -0.894667,0 -1.618667,-0.725334 -1.618667,-1.621334 0,-0.894666 0.724,-1.618666 1.618667,-1.618666 0.894666,0 1.62,0.724 1.62,1.618666"
       style="fill:#f68912;fill-opacity:1;fill-rule:nonzero;stroke:none;stroke-width:0.133333"
       id="path166" />
    <path
       d="m 83.195377,80.347419 c 0,2.088 -1.693333,3.778667 -3.781333,3.778667 -2.086667,0 -3.781333,-1.690667 -3.781333,-3.778667 0,-2.089333 1.694666,-3.779999 3.781333,-3.779999 2.088,0 3.781333,1.690666 3.781333,3.779999"
       style="fill:#87ce26;fill-opacity:1;fill-rule:nonzero;stroke:none;stroke-width:0.133333"
       id="path168" />
    <path
       d="m 66.179378,87.906086 c 0,0.896 -0.725334,1.621333 -1.62,1.621333 -0.892,0 -1.618667,-0.725333 -1.618667,-1.621333 0,-0.894667 0.726667,-1.618667 1.618667,-1.618667 0.894666,0 1.62,0.724 1.62,1.618667"
       style="fill:#f68912;fill-opacity:1;fill-rule:nonzero;stroke:none;stroke-width:0.133333"
       id="path170" />
    <path
       d="m -3.2206207,84.946086 -0.7986666,-0.601333 11.6946664,-15.606667 0.7999999,0.6 -11.6959997,15.608"
       style="fill:#2d778f;fill-opacity:1;fill-rule:nonzero;stroke:none;stroke-width:0.133333"
       id="path172" />
    <path
       d="m -2.9152873,86.164753 -0.1586667,-0.986667 6.8906665,-1.113333 0.1586666,0.988 -6.8906664,1.112"
       style="fill:#2d778f;fill-opacity:1;fill-rule:nonzero;stroke:none;stroke-width:0.133333"
       id="path174" />
    <path
       d="m 16.316712,74.108753 -3.964,-4.838667 0.773334,-0.633333 3.963999,4.837333 -0.773333,0.634667"
       style="fill:#2d778f;fill-opacity:1;fill-rule:nonzero;stroke:none;stroke-width:0.133333"
       id="path176" />
    <path
       d="m 8.9740457,82.807419 -0.6333333,-0.774666 7.8199996,-6.372 0.632,0.774667 -7.8186663,6.371999"
       style="fill:#2d778f;fill-opacity:1;fill-rule:nonzero;stroke:none;stroke-width:0.133333"
       id="path178" />
    <path
       d="m 7.6047124,81.583419 -0.98,-0.205333 2.4506666,-11.750666 0.98,0.205333 -2.4506666,11.750666"
       style="fill:#2d778f;fill-opacity:1;fill-rule:nonzero;stroke:none;stroke-width:0.133333"
       id="path180" />
    <path
       d="m 13.820712,64.47542 -0.521333,-0.852 14.009333,-8.576 0.521333,0.853333 -14.009333,8.574667"
       style="fill:#2d778f;fill-opacity:1;fill-rule:nonzero;stroke:none;stroke-width:0.133333"
       id="path182" />
    <path
       d="m 36.416712,59.430087 -6.318667,-3.574667 0.492,-0.869333 6.318667,3.574666 -0.492,0.869334"
       style="fill:#2d778f;fill-opacity:1;fill-rule:nonzero;stroke:none;stroke-width:0.133333"
       id="path184" />
    <path
       d="m 46.402045,59.658087 -0.450667,-0.892 4.502667,-2.28 0.450666,0.892 -4.502666,2.28"
       style="fill:#2d778f;fill-opacity:1;fill-rule:nonzero;stroke:none;stroke-width:0.133333"
       id="path186" />
    <path
       d="m 41.860712,80.347419 h -1 V 67.052753 h 1 v 13.294666"
       style="fill:#2d778f;fill-opacity:1;fill-rule:nonzero;stroke:none;stroke-width:0.133333"
       id="path188" />
    <path
       d="m 26.488712,92.784752 -0.477333,-0.878666 11.794666,-6.414667 0.476,0.878667 -11.793333,6.414666"
       style="fill:#2d778f;fill-opacity:1;fill-rule:nonzero;stroke:none;stroke-width:0.133333"
       id="path190" />
    <path
       d="m 31.774045,79.910086 -0.876,-0.486667 7.4,-13.294666 0.874667,0.485333 -7.398667,13.296"
       style="fill:#2d778f;fill-opacity:1;fill-rule:nonzero;stroke:none;stroke-width:0.133333"
       id="path192" />
    <path
       d="m 28.892712,68.034086 -0.424,-0.905333 7.785333,-3.64 0.424,0.905334 -7.785333,3.639999"
       style="fill:#2d778f;fill-opacity:1;fill-rule:nonzero;stroke:none;stroke-width:0.133333"
       id="path194" />
    <path
       d="m 27.238045,66.174086 -0.981333,-0.189333 1.889333,-9.86 0.981334,0.189334 -1.889334,9.859999"
       style="fill:#2d778f;fill-opacity:1;fill-rule:nonzero;stroke:none;stroke-width:0.133333"
       id="path196" />
    <path
       d="m 19.324712,74.474086 -0.597333,-0.804 5.045333,-3.737333 0.596,0.804 -5.044,3.737333"
       style="fill:#2d778f;fill-opacity:1;fill-rule:nonzero;stroke:none;stroke-width:0.133333"
       id="path198" />
    <path
       d="m 20.014045,89.716753 -2.472,-13.002667 0.981334,-0.186666 2.473333,13.002666 -0.982667,0.186667"
       style="fill:#2d778f;fill-opacity:1;fill-rule:nonzero;stroke:none;stroke-width:0.133333"
       id="path200" />
    <path
       d="m 16.842045,92.178086 -8.390666,-6.069333 0.5866667,-0.810667 8.3906663,6.069333 -0.586667,0.810667"
       style="fill:#2d778f;fill-opacity:1;fill-rule:nonzero;stroke:none;stroke-width:0.133333"
       id="path202" />
    <path
       d="m 7.1660457,100.28209 -0.3213333,-0.948004 9.3973336,-3.164 0.319999,0.948 -9.3959993,3.164004"
       style="fill:#2d778f;fill-opacity:1;fill-rule:nonzero;stroke:none;stroke-width:0.133333"
       id="path204" />
    <path
       d="m 4.1553791,99.296752 -8.2293331,-11.750666 0.82,-0.574667 8.2293331,11.750667 -0.82,0.574666"
       style="fill:#2d778f;fill-opacity:1;fill-rule:nonzero;stroke:none;stroke-width:0.133333"
       id="path206" />
    <path
       d="m 27.680712,106.14609 -3.812,-6.338671 0.856,-0.516 3.813333,6.338671 -0.857333,0.516"
       style="fill:#2d778f;fill-opacity:1;fill-rule:nonzero;stroke:none;stroke-width:0.133333"
       id="path208" />
    <path
       d="m 30.368712,106.35275 -0.762667,-0.648 6.556,-7.710664 0.762667,0.646666 -6.556,7.711998"
       style="fill:#2d778f;fill-opacity:1;fill-rule:nonzero;stroke:none;stroke-width:0.133333"
       id="path210" />
    <path
       d="m 24.878045,90.686086 -0.838666,-0.546667 5.216,-7.992 0.838666,0.546667 -5.216,7.992"
       style="fill:#2d778f;fill-opacity:1;fill-rule:nonzero;stroke:none;stroke-width:0.133333"
       id="path212" />
    <path
       d="m 29.559379,79.712753 -2.904,-8.272 0.942666,-0.330667 2.904,8.272 -0.942666,0.330667"
       style="fill:#2d778f;fill-opacity:1;fill-rule:nonzero;stroke:none;stroke-width:0.133333"
       id="path214" />
    <path
       d="m 49.662045,88.776753 -5.130667,-2.526667 0.442667,-0.897333 5.130666,2.526666 -0.442666,0.897334"
       style="fill:#2d778f;fill-opacity:1;fill-rule:nonzero;stroke:none;stroke-width:0.133333"
       id="path216" />
    <path
       d="m 38.514045,95.682086 -0.96,-0.28 2.268,-7.786667 0.96,0.28 -2.268,7.786667"
       style="fill:#2d778f;fill-opacity:1;fill-rule:nonzero;stroke:none;stroke-width:0.133333"
       id="path218" />
    <path
       d="m 30.626045,107.32075 -0.262667,-0.964 16.330667,-4.47066 0.262666,0.964 -16.330666,4.47066"
       style="fill:#2d778f;fill-opacity:1;fill-rule:nonzero;stroke:none;stroke-width:0.133333"
       id="path220" />
    <path
       d="m 27.254045,107.28609 -20.3679993,-6.02667 0.2826667,-0.95867 20.3693326,6.02667 -0.284,0.95867"
       style="fill:#2d778f;fill-opacity:1;fill-rule:nonzero;stroke:none;stroke-width:0.133333"
       id="path222" />
    <path
       d="m 47.322045,100.62875 -5.044,-12.809331 0.930666,-0.365333 5.042667,12.808004 -0.929333,0.36666"
       style="fill:#2d778f;fill-opacity:1;fill-rule:nonzero;stroke:none;stroke-width:0.133333"
       id="path224" />
    <path
       d="m 49.340711,100.56342 -0.952,-0.3 2.624,-8.305334 0.953334,0.3 -2.625334,8.305334"
       style="fill:#2d778f;fill-opacity:1;fill-rule:nonzero;stroke:none;stroke-width:0.133333"
       id="path226" />
    <path
       d="m 54.107378,67.480753 -7.946667,-3.293333 0.382667,-0.924 8.254667,3.422666 v 0.333334 l -0.502667,0.0053 -0.188,0.456"
       style="fill:#2d778f;fill-opacity:1;fill-rule:nonzero;stroke:none;stroke-width:0.133333"
       id="path228" />
    <path
       d="m 53.215378,86.938086 -0.988,-0.158667 2.809333,-17.613333 0.986667,0.157334 -2.808,17.614666"
       style="fill:#2d778f;fill-opacity:1;fill-rule:nonzero;stroke:none;stroke-width:0.133333"
       id="path230" />
    <path
       d="M 44.220711,81.615419 43.467378,80.956753 54.352711,68.526086 55.106045,69.184753 44.220711,81.615419"
       style="fill:#2d778f;fill-opacity:1;fill-rule:nonzero;stroke:none;stroke-width:0.133333"
       id="path232" />
    <path
       d="m 54.944711,66.17942 -1.749333,-7.721333 0.973333,-0.221334 1.750667,7.721333 -0.974667,0.221334"
       style="fill:#2d778f;fill-opacity:1;fill-rule:nonzero;stroke:none;stroke-width:0.133333"
       id="path234" />
    <path
       d="m 50.366045,56.092753 -19.838667,-0.886666 0.044,-0.998667 19.838667,0.886667 -0.044,0.998666"
       style="fill:#2d778f;fill-opacity:1;fill-rule:nonzero;stroke:none;stroke-width:0.133333"
       id="path236" />
    <path
       d="m 65.934044,69.16742 -11.274666,-11.2 0.705333,-0.709333 11.274667,11.198666 -0.705334,0.710667"
       style="fill:#2d778f;fill-opacity:1;fill-rule:nonzero;stroke:none;stroke-width:0.133333"
       id="path238" />
    <path
       d="m 76.231377,78.26342 -6.296,-5.410667 0.650667,-0.758667 6.297333,5.412 -0.652,0.757334"
       style="fill:#2d778f;fill-opacity:1;fill-rule:nonzero;stroke:none;stroke-width:0.133333"
       id="path240" />
    <path
       d="m 82.704711,95.640752 -2.864,-11.511999 0.972,-0.24 2.862666,11.511999 -0.970666,0.24"
       style="fill:#2d778f;fill-opacity:1;fill-rule:nonzero;stroke:none;stroke-width:0.133333"
       id="path242" />
    <path
       d="m 73.060711,113.27942 -0.825334,-0.56667 10.012,-14.579998 0.825334,0.565334 -10.012,14.581334"
       style="fill:#2d778f;fill-opacity:1;fill-rule:nonzero;stroke:none;stroke-width:0.133333"
       id="path244" />
    <path
       d="m 61.208711,115.43809 -0.05733,-0.99867 8.941333,-0.51867 0.05733,0.99867 -8.941333,0.51867"
       style="fill:#2d778f;fill-opacity:1;fill-rule:nonzero;stroke:none;stroke-width:0.133333"
       id="path246" />
    <path
       d="m 58.140711,114.14075 -9.093333,-10.648 0.76,-0.65066 9.093333,10.64933 -0.76,0.64933"
       style="fill:#2d778f;fill-opacity:1;fill-rule:nonzero;stroke:none;stroke-width:0.133333"
       id="path248" />
    <path
       d="m 59.356711,102.20475 -6.092,-10.109331 0.856,-0.514666 6.093333,10.107997 -0.857333,0.516"
       style="fill:#2d778f;fill-opacity:1;fill-rule:nonzero;stroke:none;stroke-width:0.133333"
       id="path250" />
    <path
       d="m 65.327378,103.91542 -0.456,-0.89067 6.921333,-3.531998 0.456,0.890668 -6.921333,3.532"
       style="fill:#2d778f;fill-opacity:1;fill-rule:nonzero;stroke:none;stroke-width:0.133333"
       id="path252" />
    <path
       d="m 72.235377,97.056752 -6.957333,-7.623999 0.74,-0.674667 6.957333,7.624 -0.74,0.674666"
       style="fill:#2d778f;fill-opacity:1;fill-rule:nonzero;stroke:none;stroke-width:0.133333"
       id="path254" />
    <path
       d="m 55.044711,89.666086 -0.130666,-0.990667 7.981333,-1.048 0.130666,0.990667 -7.981333,1.048"
       style="fill:#2d778f;fill-opacity:1;fill-rule:nonzero;stroke:none;stroke-width:0.133333"
       id="path256" />
    <path
       d="m 54.218045,87.556753 -0.830667,-0.554667 5.410666,-8.110667 0.830667,0.554667 -5.410666,8.110667"
       style="fill:#2d778f;fill-opacity:1;fill-rule:nonzero;stroke:none;stroke-width:0.133333"
       id="path258" />
    <path
       d="m 61.648711,77.136753 -0.658667,-0.750667 4.86,-4.266666 0.658667,0.752 -4.86,4.265333"
       style="fill:#2d778f;fill-opacity:1;fill-rule:nonzero;stroke:none;stroke-width:0.133333"
       id="path260" />
    <path
       d="m 65.383378,86.422086 -0.98,-0.208 2.754666,-12.96 0.978667,0.209334 -2.753333,12.958666"
       style="fill:#2d778f;fill-opacity:1;fill-rule:nonzero;stroke:none;stroke-width:0.133333"
       id="path262" />
    <path
       d="m 75.595377,96.219419 -0.969333,-0.252 3.164,-12.150666 0.969333,0.253333 -3.164,12.149333"
       style="fill:#2d778f;fill-opacity:1;fill-rule:nonzero;stroke:none;stroke-width:0.133333"
       id="path264" />
    <path
       d="m 70.182044,113.64209 -6.178666,-5.356 0.657333,-0.756 6.177333,5.35733 -0.656,0.75467"
       style="fill:#2d778f;fill-opacity:1;fill-rule:nonzero;stroke:none;stroke-width:0.133333"
       id="path266" />
    <path
       d="m 72.492711,112.82209 -0.985334,-0.17067 1.966667,-11.372 0.984,0.16933 -1.965333,11.37334"
       style="fill:#2d778f;fill-opacity:1;fill-rule:nonzero;stroke:none;stroke-width:0.133333"
       id="path268" />
  </g>
</svg>
