<?xml version="1.0" encoding="UTF-8" standalone="no"?>
<!-- Created with Inkscape (http://www.inkscape.org/) -->

<svg
   width="77.535553"
   height="81.802666"
   viewBox="0 0 77.535553 81.802666"
   version="1.1"
   id="SVGRoot"
   sodipodi:docname="10.svg"
   inkscape:version="1.2 (dc2aedaf03, 2022-05-15)"
   xmlns:inkscape="http://www.inkscape.org/namespaces/inkscape"
   xmlns:sodipodi="http://sodipodi.sourceforge.net/DTD/sodipodi-0.dtd"
   xmlns="http://www.w3.org/2000/svg"
   xmlns:svg="http://www.w3.org/2000/svg">
  <sodipodi:namedview
     id="namedview585"
     pagecolor="#505050"
     bordercolor="#ffffff"
     borderopacity="1"
     inkscape:showpageshadow="0"
     inkscape:pageopacity="0"
     inkscape:pagecheckerboard="1"
     inkscape:deskcolor="#505050"
     inkscape:document-units="px"
     showgrid="false"
     inkscape:zoom="4.1020923"
     inkscape:cx="9.7511214"
     inkscape:cy="-5.4850058"
     inkscape:window-width="1920"
     inkscape:window-height="1001"
     inkscape:window-x="-9"
     inkscape:window-y="-9"
     inkscape:window-maximized="1"
     inkscape:current-layer="layer1" />
  <defs
     id="defs580" />
  <g
     inkscape:label="Warstwa 1"
     inkscape:groupmode="layer"
     id="layer1"
     transform="translate(-34.853188,-20.286953)">
    <path
       d="m 109.7578,54.400285 -0.168,0.072 c -1.97467,-0.861333 -4.372,-0.98 -6.44133,-0.274666 -1.43334,0.488 -2.584,1.329333 -3.425336,2.444 -0.602666,-1.793334 -1.690666,-3.005334 -2.837333,-3.826667 1.353333,-0.313333 2.474667,-1.096 3.246669,-2.293333 1.168,-1.808 1.304,-4.278667 0.33733,-6.145333 -0.682666,-1.318667 -1.813332,-2.181334 -3.239999,-2.492 2.614667,-3.756 1.394667,-7.230667 -0.564,-9.148 -1.930666,-1.890667 -5.096,-2.82 -7.385333,-1.38 -0.76,-1.485333 -1.586667,-2.533333 -2.416,-3.284 2.062667,-0.258667 3.378667,-1.232 4.157333,-2.102667 0.325334,-0.364 0.609334,-0.769333 0.848,-1.2 1.954667,-0.868 4.585333,-0.06267 5.806667,1.729334 0.710666,1.04 0.850666,2.250666 0.397333,3.408 l -0.421333,1.076 1.133333,-0.222667 c 0.334667,-0.06533 0.694667,-0.09867 1.064,-0.09867 2.641329,0 5.521329,1.604 7.169329,3.990667 1.168,1.692 2.24934,4.525333 0.77334,8.410666 l -0.268,0.708 0.74266,0.14 c 2.67734,0.505334 3.86267,2.837333 4.07867,4.853333 0.27467,2.557334 -0.78933,4.876 -2.588,5.636"
       style="fill:#f1511b;fill-opacity:1;fill-rule:nonzero;stroke:none;stroke-width:0.133333"
       id="path352" />
    <path
       d="m 83.383135,20.286953 c 3.058666,0 5.738666,1.541333 7.38,4.224 -0.158667,0.253333 -0.333334,0.501333 -0.545334,0.738666 -0.794666,0.888 -2.269333,1.904 -4.793333,1.797334 -1.621333,-0.854667 -3.1,-0.734667 -3.912,-0.557334 -2.948,0.650667 -5.258666,3.621334 -5.258666,6.76 0,3.396 2.18,5.377333 4.34,5.836 2.074666,0.44 4.002666,-0.46 4.793333,-2.242667 l -0.986667,-0.437333 c -0.586667,1.321333 -1.992,1.958667 -3.582666,1.622667 -1.606667,-0.341334 -3.484,-1.797334 -3.484,-4.778667 0,-2.653333 1.937333,-5.16 4.412,-5.705333 2.650666,-0.582667 5.139999,1.186667 6.843999,4.86 l 0.301334,0.650666 0.541333,-0.470666 c 1.834667,-1.592 4.736,-0.782667 6.478667,0.924 1.845333,1.806666 2.790666,4.974666 -0.09333,8.445333 l -0.696,0.837333 1.088,0.04667 c 1.901333,0.08267 2.845333,1.152 3.3,2.034667 0.794665,1.534666 0.679995,3.570666 -0.284,5.063999 -0.858667,1.332 -2.270667,2.012 -3.994666,1.942667 -0.6,-0.264 -1.157334,-0.441333 -1.597334,-0.552 -3.856,-0.974667 -8.194666,0.09067 -9.102666,2.232 l 0.994666,0.422667 c 0.617334,-1.46 4.358667,-2.490667 7.844,-1.608 1.92,0.485333 4.836,1.836 5.58,5.566666 l -0.084,0.150667 0.117333,0.05067 c 0.146667,0.838666 0.190667,1.787999 0.088,2.875999 l 1.075992,0.101334 c 0.10667,-1.130667 0.0587,-2.121333 -0.0827,-3.012 0.88666,-1.698667 2.33066,-2.512 3.43333,-2.886667 2.028,-0.694666 4.42133,-0.492 6.244,0.522667 l 0.0747,-0.133333 c 1.66533,0.869333 2.06933,2.852 1.724,4.359999 -0.16267,0.710667 -0.92,3.034667 -3.82667,3.034667 l -2.412,-0.105333 1.77333,1.250666 c 1.84267,1.298667 2.52267,4.238667 1.65334,7.148 -0.92534,3.096 -3.232,5.004 -6.17067,5.102667 l -1.83067,0.06133 1.47734,1.082667 c 1.404,1.028 1.95733,2.512 1.48133,3.968 -0.43067,1.316 -1.59067,2.198666 -2.888,2.198666 -0.596,0 -1.207995,-0.177333 -1.818662,-0.529333 l -2.950666,-1.693333 2.142666,2.641333 c 1.466667,1.810667 1.786667,4.054666 0.856,6.008 -1.308,2.745333 -4.730666,4.125333 -8.463999,3.317333 l -0.728,-0.158667 -0.004,0.064 c -0.141334,-0.141333 -0.282667,-0.284 -0.454667,-0.410666 2.690667,-0.773334 3.629333,-2.345334 3.956,-3.306667 0.558667,-1.644 0.08133,-3.609333 -1.189333,-4.890666 -1.037334,-1.046667 -2.358667,-1.404 -3.628,-0.984 l 0.338666,1.025333 c 0.866667,-0.290667 1.784,-0.02267 2.521334,0.718667 0.824,0.829333 1.432,2.321333 0.934666,3.782666 -0.522666,1.541333 -2.176,2.574667 -4.653333,2.909333 l -2.474667,0.334667 2.392,0.717333 c 1.185334,0.357334 1.802667,1.054667 2.117334,1.785334 -0.724,4.585333 -4.688,7.047999 -8.316,7.047999 -1.906667,0 -3.638667,-0.676 -4.876,-1.904 -1.424,-1.410666 -2.176,-3.523999 -2.176,-6.111999 V 30.138953 c 0,-6.468 4.557333,-9.852 9.06,-9.852"
       style="fill:#f1511b;fill-opacity:1;fill-rule:nonzero;stroke:none;stroke-width:0.133333"
       id="path354" />
    <path
       d="m 37.483136,54.400285 0.169333,0.072 c 1.973334,-0.861333 4.372,-0.98 6.44,-0.274666 1.433333,0.488 2.585333,1.329333 3.425333,2.444 0.602667,-1.793334 1.692,-3.005334 2.837334,-3.826667 -1.352,-0.313333 -2.474667,-1.096 -3.246667,-2.293333 -1.168,-1.808 -1.302667,-4.278667 -0.337333,-6.145333 0.682666,-1.318667 1.813333,-2.181334 3.24,-2.492 -2.613334,-3.756 -1.393334,-7.230667 0.564,-9.148 1.930666,-1.890667 5.096,-2.82 7.386666,-1.38 0.758667,-1.485333 1.586667,-2.533333 2.416,-3.284 -2.062667,-0.258667 -3.378667,-1.232 -4.158667,-2.102667 -0.325333,-0.364 -0.609333,-0.769333 -0.846666,-1.2 -1.954667,-0.868 -4.585333,-0.06267 -5.808,1.729334 -0.709333,1.04 -0.850667,2.250666 -0.396,3.408 l 0.421333,1.076 -1.134666,-0.222667 c -0.334667,-0.06533 -0.693334,-0.09867 -1.064,-0.09867 -2.64,0 -5.521333,1.604 -7.168,3.990667 -1.168,1.692 -2.250667,4.525333 -0.774667,8.410666 l 0.269334,0.708 -0.744,0.14 c -2.677334,0.505334 -3.861334,2.837333 -4.077334,4.853333 -0.276,2.557334 0.789334,4.876 2.586667,5.636"
       style="fill:#f1511b;fill-opacity:1;fill-rule:nonzero;stroke:none;stroke-width:0.133333"
       id="path356" />
    <path
       d="m 63.859135,20.286953 c -3.058666,0 -5.74,1.541333 -7.381333,4.224 0.158667,0.253333 0.334667,0.501333 0.546667,0.738666 0.794666,0.888 2.268,1.904 4.792,1.797334 1.621333,-0.854667 3.1,-0.734667 3.912,-0.557334 2.949333,0.650667 5.258666,3.621334 5.258666,6.76 0,3.396 -2.178666,5.377333 -4.338666,5.836 -2.074667,0.44 -4.004,-0.46 -4.794667,-2.242667 l 0.988,-0.437333 c 0.586667,1.321333 1.992,1.958667 3.582667,1.622667 1.606666,-0.341334 3.483999,-1.797334 3.483999,-4.778667 0,-2.653333 -1.938666,-5.16 -4.411999,-5.705333 -2.650667,-0.582667 -5.14,1.186667 -6.844,4.86 l -0.301334,0.650666 -0.542666,-0.470666 c -1.834667,-1.592 -4.736,-0.782667 -6.477333,0.924 -1.846667,1.806666 -2.792,4.974666 0.092,8.445333 l 0.696,0.837333 -1.088,0.04667 c -1.901334,0.08267 -2.844,1.152 -3.3,2.034667 -0.794667,1.534666 -0.68,3.570666 0.284,5.063999 0.858666,1.332 2.270666,2.012 3.994666,1.942667 0.6,-0.264 1.157334,-0.441333 1.598667,-0.552 3.854666,-0.974667 8.194666,0.09067 9.102666,2.232 l -0.994666,0.422667 c -0.618667,-1.46 -4.36,-2.490667 -7.844,-1.608 -1.921333,0.485333 -4.836,1.836 -5.58,5.566666 l 0.084,0.150667 -0.117333,0.05067 c -0.146667,0.838666 -0.192,1.787999 -0.088,2.875999 l -1.076,0.101334 c -0.106667,-1.130667 -0.06,-2.121333 0.08133,-3.012 -0.886667,-1.698667 -2.330667,-2.512 -3.432,-2.886667 -2.029333,-0.694666 -4.422666,-0.492 -6.244,0.522667 l -0.07467,-0.133333 c -1.666667,0.869333 -2.069334,2.852 -1.724,4.359999 0.162666,0.710667 0.92,3.034667 3.826666,3.034667 l 2.410667,-0.105333 -1.772,1.250666 c -1.842667,1.298667 -2.522667,4.238667 -1.654667,7.148 0.925334,3.096 3.232,5.004 6.172,5.102667 l 1.830667,0.06133 -1.478667,1.082667 c -1.402667,1.028 -1.956,2.512 -1.48,3.968 0.429333,1.316 1.590667,2.198666 2.886667,2.198666 0.597333,0 1.209333,-0.177333 1.818666,-0.529333 l 2.950667,-1.693333 -2.142667,2.641333 c -1.466666,1.810667 -1.786666,4.054666 -0.856,6.008 1.308,2.745333 4.732,4.125333 8.464,3.317333 l 0.729333,-0.158667 0.0027,0.064 c 0.141333,-0.141333 0.284,-0.284 0.454667,-0.410666 -2.689333,-0.773334 -3.629333,-2.345334 -3.956,-3.306667 -0.558667,-1.644 -0.08,-3.609333 1.190667,-4.890666 1.035999,-1.046667 2.357333,-1.404 3.627999,-0.984 l -0.338666,1.025333 c -0.868,-0.290667 -1.785334,-0.02267 -2.522667,0.718667 -0.822666,0.829333 -1.430666,2.321333 -0.934666,3.782666 0.524,1.541333 2.177333,2.574667 4.654666,2.909333 l 2.474667,0.334667 -2.392,0.717333 c -1.186667,0.357334 -1.804,1.054667 -2.118667,1.785334 0.724,4.585333 4.688,7.047999 8.316,7.047999 1.908,0 3.64,-0.676 4.877333,-1.904 1.424,-1.410666 2.176,-3.523999 2.176,-6.111999 V 30.138953 c 0,-6.468 -4.557333,-9.852 -9.06,-9.852"
       style="fill:#f1511b;fill-opacity:1;fill-rule:nonzero;stroke:none;stroke-width:0.133333"
       id="path358" />
    <path
       d="m 81.787135,93.884284 -8.562667,-39.187999 -7.170666,24.832 -4.844,-12.953333 -3.330667,5.937333 H 43.572469 v -2.666667 h 12.745333 l 5.378667,-9.588 4.032,10.786667 7.854666,-27.199999 8.092,37.031999 2.214666,-11.049333 6.250667,0.0067 3.928,-6.830666 3.589333,6.837333 7.415999,0.0053 -0.001,2.666667 -9.026669,-0.0053 -2.084,-3.969334 -2.28,3.965334 -5.608,-0.0067 -4.286666,21.387999"
       style="fill:#732c18;fill-opacity:1;fill-rule:nonzero;stroke:none;stroke-width:0.133333"
       id="path360" />
  </g>
</svg>
