<?xml version="1.0" encoding="UTF-8" standalone="no"?>
<!-- Created with Inkscape (http://www.inkscape.org/) -->

<svg
   width="23.263573mm"
   height="21.043129mm"
   viewBox="0 0 23.263573 21.043129"
   version="1.1"
   id="svg248"
   sodipodi:docname="13.svg"
   inkscape:version="1.2 (dc2aedaf03, 2022-05-15)"
   xmlns:inkscape="http://www.inkscape.org/namespaces/inkscape"
   xmlns:sodipodi="http://sodipodi.sourceforge.net/DTD/sodipodi-0.dtd"
   xmlns="http://www.w3.org/2000/svg"
   xmlns:svg="http://www.w3.org/2000/svg">
  <sodipodi:namedview
     id="namedview250"
     pagecolor="#505050"
     bordercolor="#ffffff"
     borderopacity="1"
     inkscape:showpageshadow="0"
     inkscape:pageopacity="0"
     inkscape:pagecheckerboard="1"
     inkscape:deskcolor="#505050"
     inkscape:document-units="mm"
     showgrid="false"
     inkscape:zoom="0.72515432"
     inkscape:cx="63.434773"
     inkscape:cy="-157.89742"
     inkscape:window-width="1920"
     inkscape:window-height="1001"
     inkscape:window-x="-9"
     inkscape:window-y="-9"
     inkscape:window-maximized="1"
     inkscape:current-layer="layer1" />
  <defs
     id="defs245" />
  <g
     inkscape:label="Warstwa 1"
     inkscape:groupmode="layer"
     id="layer1"
     transform="translate(-27.043889,-255.46492)">
    <path
       d="m 41.205983,269.93827 c 0,0 -1.249997,0 -2.821658,0 -1.57166,0 -1.250174,-1.10698 -1.250174,-1.10698 h -2.881312 c -1.916854,0 -1.702576,-1.57209 -1.702576,-1.57209 -1.029935,1.71496 -4.35791,0.5479 -2.619517,-1.76166 -2.980696,1.83374 -4.191028,-2.80998 -1.000178,-3.23854 -1.261872,-1.21461 0.07152,-2.95271 1.500407,-2.59609 -0.333347,-1.33311 1.154934,-2.82152 2.774114,-1.14226 -0.904805,-2.00036 2.250369,-3.07234 3.798041,-1.54809 0.381,-1.64289 2.714449,-1.97623 3.619394,-0.45227 0.714516,-1.50001 4.572212,-1.80936 4.476997,1.8335 1.571626,-0.95293 2.500031,0.76189 2.023781,1.85772 1.024008,-0.40541 2.309848,1.14226 1.309829,2.33289 2.333554,0.0959 2.60738,2.85789 0.144533,3.43006 2.266456,0.0886 1.72974,2.21368 0.545994,2.33288 1.452739,1.50001 0.04766,4.47682 -2.452511,3.11962 0.452296,2.11914 -3.214688,2.33328 -3.000517,-0.28568 -1.214332,0.76164 -2.571856,-0.024 -2.464647,-1.20301"
       style="fill:#f9dc06;fill-opacity:1;fill-rule:nonzero;stroke:none;stroke-width:0.0352778"
       id="path406" />
    <path
       d="m 43.665656,271.44749 -0.114229,-0.2413 c -1.181947,0.64064 -2.448913,-0.12732 -2.345444,-1.26792 0,0 -0.28194,0 -0.743302,0 l 3.105538,6.56978 h 2.489694 l -1.787314,-3.78146 c -0.340218,-0.26169 -0.582612,-0.68407 -0.604943,-1.2791"
       style="fill:#f68912;fill-opacity:1;fill-rule:nonzero;stroke:none;stroke-width:0.0352778"
       id="path408" />
    <path
       d="m 33.595649,263.84939 c 0,1.03823 -1.878965,2.01634 -1.878965,2.01634 0,0 -1.879505,-0.97811 -1.879505,-2.01634 0,-1.03751 1.509088,-1.45672 1.879505,-0.34727 0.404177,-1.12212 1.878965,-0.69024 1.878965,0.34727"
       style="fill:#f1511b;fill-opacity:1;fill-rule:nonzero;stroke:none;stroke-width:0.0352778"
       id="path410" />
    <path
       d="m 38.504199,259.25612 v -0.29834 c -0.155716,-0.009 -0.281657,-0.028 -0.37786,-0.0547 -0.09589,-0.0262 -0.175401,-0.0511 -0.238513,-0.0744 v -0.49227 h 0.546664 c 0,0.0498 0.0099,0.0866 0.02988,0.11081 0.01986,0.024 0.06121,0.036 0.124178,0.036 0.05486,0 0.09356,-0.008 0.116875,-0.0247 0.023,-0.0165 0.035,-0.0412 0.035,-0.0744 l -0.02882,-0.061 c -0.01901,-0.0172 -0.05771,-0.0378 -0.115605,-0.0606 -0.122661,-0.0463 -0.230011,-0.0907 -0.321627,-0.133 -0.09193,-0.0427 -0.168134,-0.0893 -0.228777,-0.14083 -0.06047,-0.0507 -0.10541,-0.11148 -0.135325,-0.17984 -0.03002,-0.0692 -0.04463,-0.15212 -0.04463,-0.24942 0,-0.0812 0.01101,-0.15557 0.0332,-0.22295 0.02261,-0.0671 0.05856,-0.1257 0.108338,-0.17639 0.04988,-0.0505 0.115041,-0.0918 0.196215,-0.12418 0.08131,-0.0325 0.18161,-0.0544 0.300813,-0.0656 v -0.28582 h 0.325367 v 0.28084 c 0.07772,0.005 0.146756,0.0127 0.206446,0.0236 0.05951,0.0102 0.114088,0.0237 0.16383,0.0375 0.0496,0.0136 0.09536,0.0288 0.136842,0.0444 0.04121,0.0158 0.07525,0.0318 0.101847,0.0484 v 0.44525 h -0.521723 c 0,-0.0484 -0.01337,-0.0812 -0.03983,-0.0985 -0.02674,-0.0173 -0.05898,-0.0265 -0.09701,-0.0265 -0.05486,0 -0.09398,0.008 -0.118251,0.0212 -0.02385,0.0141 -0.03567,0.0389 -0.03567,0.0733 l 0.03828,0.0629 c 0.02579,0.0127 0.0641,0.0275 0.115641,0.0445 0.09592,0.0313 0.186725,0.0645 0.272168,0.0991 0.0853,0.0349 0.160408,0.0776 0.224755,0.12912 0.06477,0.0511 0.115605,0.11398 0.152823,0.18658 0.03732,0.0728 0.05595,0.16235 0.05595,0.26818 0,0.19043 -0.05542,0.33832 -0.166475,0.44373 -0.111055,0.10555 -0.274109,0.16757 -0.489621,0.18739 v 0.30085 h -0.325367"
       style="fill:#2a9941;fill-opacity:1;fill-rule:nonzero;stroke:none;stroke-width:0.0352778"
       id="path412" />
    <path
       d="m 42.475031,259.43569 h -0.154764 v -1.72297 h 0.154764 v 1.72297"
       style="fill:#85471b;fill-opacity:1;fill-rule:nonzero;stroke:none;stroke-width:0.0352778"
       id="path414" />
    <path
       d="m 42.397737,259.43569 c 0,-0.85122 -2.439423,-1.2481 -2.439423,0.87146 0,2.12051 1.839278,2.74987 2.042548,2.74987 0.203095,0 0.396875,-0.19336 0.396875,-0.19336 0,0 0.193605,0.19336 0.397122,0.19336 0.202848,0 2.042407,-0.62936 2.042407,-2.74987 0,-2.11956 -2.439529,-1.72268 -2.439529,-0.87146"
       style="fill:#d53e21;fill-opacity:1;fill-rule:nonzero;stroke:none;stroke-width:0.0352778"
       id="path416" />
    <path
       d="m 42.389024,258.7647 c 0,0 -0.07867,-0.92149 1.153971,-1.01134 -0.112853,0.60674 -0.528461,1.1242 -1.153971,1.01134"
       style="fill:#299740;fill-opacity:1;fill-rule:nonzero;stroke:none;stroke-width:0.0352778"
       id="path418" />
    <path
       d="m 42.397737,259.43569 c 0,-0.85122 2.439529,-1.2481 2.439529,0.87146 0,2.12051 -1.839559,2.74987 -2.042407,2.74987 -0.203517,0 -0.397122,-0.19336 -0.397122,-0.19336 v -3.42797"
       style="fill:#e6531c;fill-opacity:1;fill-rule:nonzero;stroke:none;stroke-width:0.0352778"
       id="path420" />
    <path
       d="m 44.745474,260.38431 h -0.155011 c 0,-1.31795 -0.940364,-1.35598 -1.047468,-1.35598 v -0.15532 c 0.446511,0 1.202479,0.31887 1.202479,1.5113"
       style="fill:#ffffff;fill-opacity:1;fill-rule:nonzero;stroke:none;stroke-width:0.0352778"
       id="path422" />
    <path
       d="m 46.737575,266.16739 c 0.677721,-0.5679 0.767009,-1.57759 0.199672,-2.25598 -0.567867,-0.67705 -1.577552,-0.76662 -2.255168,-0.199 -0.995609,0.83358 -0.462879,1.67047 -1.342742,2.40704 l 0.365195,0.43642 0.03097,0.0366 0.365478,0.43643 c 0.676204,-0.56625 1.263932,-0.30029 1.951567,-0.526 0.244334,-0.0536 0.48013,-0.16443 0.685024,-0.33556"
       style="fill:#f9f344;fill-opacity:1;fill-rule:nonzero;stroke:none;stroke-width:0.0352778"
       id="path424" />
    <path
       d="m 43.422557,268.01602 c -0.162454,0.13617 -0.40707,0.11465 -0.54349,-0.0484 l -0.63955,-0.76369 c -0.136279,-0.16277 -0.114512,-0.40721 0.04822,-0.54338 l 0.588998,-0.49347 c 0.162595,-0.13586 0.407211,-0.11395 0.543207,0.0482 l 0.639975,0.76387 c 0.135995,0.16302 0.11437,0.40746 -0.04837,0.54363 l -0.588998,0.49319"
       style="fill:#2d778f;fill-opacity:1;fill-rule:nonzero;stroke:none;stroke-width:0.0352778"
       id="path426" />
    <path
       d="m 43.621841,266.45748 -0.07373,-0.0893 c 0.757908,-0.62618 1.346624,-1.71909 1.352268,-1.73038 l 0.101988,0.0543 c -0.0061,0.0117 -0.60526,1.125 -1.380525,1.7654"
       style="fill:#ffffff;fill-opacity:1;fill-rule:nonzero;stroke:none;stroke-width:0.0352778"
       id="path428" />
    <path
       d="m 43.834601,266.71145 c 0.766869,-0.65084 1.968112,-1.04497 1.980107,-1.04885 l 0.03595,0.1101 c -0.01182,0.003 -1.191719,0.39085 -1.940948,1.02694 l -0.07511,-0.0882"
       style="fill:#ffffff;fill-opacity:1;fill-rule:nonzero;stroke:none;stroke-width:0.0352778"
       id="path430" />
    <path
       d="m 45.019441,265.39058 -0.01351,-0.0267 c -0.01446,-0.0551 0.04424,-0.10336 0.101142,-0.14926 l 0.04371,-0.0371 c 0.06378,-0.0604 0.07151,-0.0839 0.07056,-0.0934 l -0.08876,-0.0497 -0.0321,-0.0111 c -0.08502,-0.0331 -0.168804,-0.0536 -0.257986,-0.0755 -0.05221,-0.012 -0.104564,-0.0249 -0.157622,-0.0405 l 0.02205,-0.0741 c 0.05154,0.0151 0.102658,0.0282 0.153211,0.0402 0.08805,0.0205 0.179035,0.0423 0.268747,0.078 l 0.02769,0.0102 c 0.05306,0.0176 0.132679,0.0441 0.14097,0.11398 0.0077,0.0621 -0.05733,0.12347 -0.09232,0.15625 l -0.04907,0.0421 -0.0744,0.0723 c 0.0033,0 0.01736,0.007 0.05316,0.0133 l 0.07472,-0.001 c 0.0441,-0.005 0.08971,-0.01 0.129646,0.007 0.07733,0.0321 0.0587,0.0943 0.04865,0.12732 l -0.0087,0.035 c -0.0084,0.0494 -0.0054,0.0638 0.02219,0.0885 0.11631,0.10735 0.333904,0.21029 0.477096,0.24779 l -0.01958,0.0751 c -0.150354,-0.0396 -0.380083,-0.14609 -0.509728,-0.26529 -0.0532,-0.0495 -0.05733,-0.0936 -0.0459,-0.15847 l 0.01076,-0.0448 0.0067,-0.0282 -0.01104,-0.005 c -0.02205,-0.009 -0.05771,-0.006 -0.09246,-0.002 -0.03196,0.003 -0.06516,0.006 -0.09536,7.1e-4 -0.03429,-0.006 -0.07881,-0.017 -0.102517,-0.0448"
       style="fill:#ffffff;fill-opacity:1;fill-rule:nonzero;stroke:none;stroke-width:0.0352778"
       id="path432" />
    <path
       d="m 42.879067,267.96765 c 0.13642,0.16302 0.381036,0.18454 0.54349,0.0484 l 0.588998,-0.49319 c 0.162736,-0.13617 0.184361,-0.38061 0.04837,-0.54363 l -0.324415,-0.38668 -1.180289,0.98845 0.32385,0.38668"
       style="fill:#358da3;fill-opacity:1;fill-rule:nonzero;stroke:none;stroke-width:0.0352778"
       id="path434" />
    <path
       d="m 43.962624,267.43422 -1.009403,-1.20509 0.118498,-0.0988 1.008874,1.20442 -0.117969,0.0995"
       style="fill:#2d778f;fill-opacity:1;fill-rule:nonzero;stroke:none;stroke-width:0.0352778"
       id="path436" />
    <path
       d="m 43.714586,267.64176 -1.008733,-1.20594 0.11811,-0.0991 1.009121,1.20551 -0.118498,0.0995"
       style="fill:#2d778f;fill-opacity:1;fill-rule:nonzero;stroke:none;stroke-width:0.0352778"
       id="path438" />
    <path
       d="m 43.467219,267.84915 -1.009262,-1.20508 0.118498,-0.0999 1.009015,1.20576 -0.118251,0.0992"
       style="fill:#2d778f;fill-opacity:1;fill-rule:nonzero;stroke:none;stroke-width:0.0352778"
       id="path440" />
    <path
       d="m 43.219463,268.05613 -1.009298,-1.20495 0.118534,-0.0995 1.00898,1.20537 -0.118216,0.0991"
       style="fill:#2d778f;fill-opacity:1;fill-rule:nonzero;stroke:none;stroke-width:0.0352778"
       id="path442" />
    <path
       d="m 46.623627,266.1113 -0.09909,-0.11811 c 0.865117,-0.72429 0.469371,-1.58267 0.24377,-1.8518 l 0.11811,-0.0988 c 0.2534,0.30166 0.699346,1.26269 -0.262785,2.06872"
       style="fill:#ffffff;fill-opacity:1;fill-rule:nonzero;stroke:none;stroke-width:0.0352778"
       id="path444" />
    <path
       d="m 39.734124,266.97038 c 0,0.23178 -0.18796,0.41974 -0.419912,0.41974 h -2.99406 c -0.231775,0 -0.419735,-0.18796 -0.419735,-0.41974 v -2.40703 c 0,-0.23178 0.18796,-0.41974 0.419735,-0.41974 h 2.99406 c 0.231952,0 0.419912,0.18796 0.419912,0.41974 v 2.40703"
       style="fill:#2d778f;fill-opacity:1;fill-rule:nonzero;stroke:none;stroke-width:0.0352778"
       id="path446" />
    <path
       d="m 39.314636,264.14319 h -1.497507 v 3.24665 h 1.497507 c 0.231634,0 0.419488,-0.18839 0.419488,-0.41988 v -2.40704 c 0,-0.23177 -0.187854,-0.41973 -0.419488,-0.41973"
       style="fill:#358da3;fill-opacity:1;fill-rule:nonzero;stroke:none;stroke-width:0.0352778"
       id="path448" />
    <path
       d="m 38.034299,266.06308 c -0.01309,-0.10489 -0.02646,-0.20963 -0.0405,-0.32287 -0.0042,-0.0342 -0.0084,-0.0695 -0.01298,-0.10544 0.120474,-0.0607 0.203412,-0.18422 0.203412,-0.32784 0,-0.20285 -0.164253,-0.36682 -0.366818,-0.36682 -0.202848,0 -0.367524,0.16397 -0.367524,0.36682 0,0.14362 0.08364,0.26709 0.204082,0.32784 -0.0047,0.036 -0.009,0.0713 -0.01323,0.10544 -0.01407,0.11324 -0.02716,0.21798 -0.04039,0.32287 -0.01295,0.10474 -0.02618,0.20944 -0.04008,0.32233 -0.01408,0.11366 -0.02925,0.23562 -0.04646,0.37507 0.121144,0 0.212513,0 0.303601,0 0.09109,0 0.182315,0 0.303706,0 -0.01764,-0.13945 -0.03281,-0.26141 -0.04671,-0.37507 -0.01432,-0.11289 -0.0273,-0.21759 -0.04011,-0.32233"
       style="fill:#2d2c2c;fill-opacity:1;fill-rule:nonzero;stroke:none;stroke-width:0.0352778"
       id="path450" />
    <path
       d="m 37.00574,264.14319 v -0.74965 c 0,-0.48299 0.364067,-0.87602 0.811672,-0.87602 0.447286,0 0.81153,0.39303 0.81153,0.87602 h 0.419735 c 0,-0.71438 -0.55245,-1.29537 -1.231265,-1.29537 -0.678851,0 -1.231442,0.58099 -1.231442,1.29537 v 0.74965 h 0.41977"
       style="fill:#2d778f;fill-opacity:1;fill-rule:nonzero;stroke:none;stroke-width:0.0352778"
       id="path452" />
    <path
       d="m 47.124819,270.30438 v -0.29806 c -0.155716,-0.009 -0.281693,-0.0283 -0.377719,-0.055 -0.09592,-0.0262 -0.175578,-0.0509 -0.238549,-0.0744 v -0.49181 h 0.546524 c 0,0.0493 0.0099,0.0861 0.03006,0.11039 0.01969,0.0244 0.06103,0.0364 0.124143,0.0364 0.05472,0 0.09359,-0.009 0.116734,-0.0247 0.02314,-0.0167 0.035,-0.0416 0.035,-0.0744 l -0.02879,-0.061 c -0.01891,-0.0176 -0.05761,-0.0382 -0.115641,-0.0611 -0.122484,-0.0463 -0.229834,-0.0907 -0.321486,-0.13296 -0.09204,-0.0423 -0.168134,-0.0893 -0.228741,-0.14083 -0.0605,-0.0507 -0.105446,-0.11148 -0.135467,-0.17957 -0.02991,-0.0695 -0.04466,-0.1524 -0.04466,-0.24941 0,-0.0815 0.01118,-0.15586 0.03334,-0.22299 0.02247,-0.0674 0.0586,-0.1258 0.108338,-0.17667 0.04974,-0.0504 0.115041,-0.0918 0.196215,-0.12415 0.08131,-0.0321 0.181504,-0.0544 0.300708,-0.0653 v -0.28607 h 0.325331 v 0.28085 c 0.07772,0.005 0.146756,0.0127 0.206446,0.024 0.05951,0.0102 0.114229,0.0233 0.163971,0.037 0.04964,0.0136 0.09525,0.029 0.136702,0.0444 0.0412,0.0158 0.07539,0.0321 0.101846,0.0487 v 0.44496 h -0.521723 c 0,-0.0481 -0.01323,-0.0811 -0.03983,-0.0985 -0.02674,-0.0172 -0.05884,-0.026 -0.09687,-0.026 -0.05486,0 -0.09412,0.007 -0.118251,0.0208 -0.02395,0.014 -0.03581,0.0391 -0.03581,0.0733 l 0.03845,0.0628 c 0.02561,0.0127 0.06406,0.0276 0.115605,0.0445 0.09592,0.0314 0.186725,0.0649 0.272168,0.0991 0.08516,0.0349 0.160267,0.0776 0.224755,0.12954 0.06477,0.0507 0.115464,0.11352 0.152823,0.18616 0.03736,0.0727 0.05595,0.16231 0.05595,0.26843 0,0.1906 -0.05553,0.33831 -0.166617,0.44347 -0.110914,0.10555 -0.274073,0.16757 -0.489621,0.18768 v 0.30053 h -0.325331"
       style="fill:#2a9941;fill-opacity:1;fill-rule:nonzero;stroke:none;stroke-width:0.0352778"
       id="path454" />
    <path
       d="m 34.217702,261.58597 h 1.059956 v 0.73089 h -1.059956 z m 0,-0.20934 v -0.24045 c 0,-0.12499 0.01983,-0.23153 0.06008,-0.32039 0.04008,-0.0893 0.09123,-0.1669 0.153635,-0.23181 0.0623,-0.0656 0.128446,-0.12277 0.198155,-0.17184 0.06988,-0.0487 0.13589,-0.0962 0.198297,-0.14249 0.06244,-0.0459 0.113559,-0.0938 0.15367,-0.1422 0.04025,-0.0493 0.06022,-0.10612 0.06022,-0.1717 0,-0.0505 -0.01944,-0.0929 -0.05803,-0.12707 -0.0387,-0.0342 -0.108444,-0.0511 -0.209303,-0.0511 -0.08625,0 -0.172403,0.008 -0.258375,0.0244 -0.08629,0.0165 -0.169227,0.0374 -0.24959,0.0627 -0.08004,0.0251 -0.156527,0.0533 -0.229164,0.0847 -0.07288,0.031 -0.140406,0.0613 -0.202848,0.0914 l -0.235902,-0.90911 c 0.08004,-0.0384 0.169756,-0.0777 0.269416,-0.11821 0.09962,-0.0398 0.207645,-0.0762 0.325191,-0.10901 0.117263,-0.0325 0.244193,-0.0599 0.380894,-0.0826 0.136419,-0.0219 0.280564,-0.0328 0.432012,-0.0328 0.199002,0 0.378566,0.024 0.538974,0.0733 0.160372,0.0488 0.296262,0.11712 0.407458,0.20461 0.111372,0.088 0.196779,0.19019 0.256187,0.30759 0.05955,0.11712 0.08904,0.24377 0.08904,0.38075 0,0.1753 -0.02508,0.3175 -0.07553,0.42746 -0.05073,0.10986 -0.112995,0.20257 -0.187149,0.27838 -0.0744,0.0759 -0.155998,0.14111 -0.245004,0.19622 -0.08915,0.055 -0.170745,0.11288 -0.245004,0.17349 -0.07429,0.0611 -0.136596,0.13367 -0.187008,0.21844 -0.05059,0.0843 -0.07595,0.19361 -0.07595,0.32727 h -1.064366"
       style="fill:#732c18;fill-opacity:1;fill-rule:nonzero;stroke:none;stroke-width:0.0352778"
       id="path456" />
  </g>
</svg>
