<?xml version="1.0" encoding="UTF-8" standalone="no"?>
<!-- Created with Inkscape (http://www.inkscape.org/) -->

<svg
   width="27.060232mm"
   height="16.159439mm"
   viewBox="0 0 27.060232 16.159439"
   version="1.1"
   id="svg248"
   sodipodi:docname="14.svg"
   inkscape:version="1.2 (dc2aedaf03, 2022-05-15)"
   xmlns:inkscape="http://www.inkscape.org/namespaces/inkscape"
   xmlns:sodipodi="http://sodipodi.sourceforge.net/DTD/sodipodi-0.dtd"
   xmlns="http://www.w3.org/2000/svg"
   xmlns:svg="http://www.w3.org/2000/svg">
  <sodipodi:namedview
     id="namedview250"
     pagecolor="#505050"
     bordercolor="#ffffff"
     borderopacity="1"
     inkscape:showpageshadow="0"
     inkscape:pageopacity="0"
     inkscape:pagecheckerboard="1"
     inkscape:deskcolor="#505050"
     inkscape:document-units="mm"
     showgrid="false"
     inkscape:zoom="2.0510461"
     inkscape:cx="-101.89922"
     inkscape:cy="-84.3472"
     inkscape:window-width="1920"
     inkscape:window-height="1001"
     inkscape:window-x="-9"
     inkscape:window-y="-9"
     inkscape:window-maximized="1"
     inkscape:current-layer="layer1" />
  <defs
     id="defs245" />
  <g
     inkscape:label="Warstwa 1"
     inkscape:groupmode="layer"
     id="layer1"
     transform="translate(-74.402311,-234.91987)">
    <path
       d="M 78.387323,241.3487 78.095929,241.32 c 0.04868,-0.49635 0.397933,-0.94008 0.93345,-1.18635 0.613128,-0.28261 1.315861,-0.23287 1.833386,0.12982 l -0.167922,0.23992 c -0.433211,-0.30275 -1.024114,-0.34258 -1.54305,-0.10375 -0.440267,0.20257 -0.726017,0.55739 -0.76447,0.94904 z m 8.542868,1.43824 c -0.390173,-0.45695 -0.930981,-0.70802 -1.521884,-0.70802 -0.979311,0 -1.775531,0.65084 -1.775531,1.45094 h -0.292805 c 0,-0.85909 0.741539,-1.57371 1.713089,-1.71595 -0.07761,-0.61845 -0.363714,-1.05156 -0.821267,-1.22657 -0.504825,-0.19265 -1.160992,-0.0416 -1.559631,0.35913 -0.189441,0.19014 -0.472722,0.59792 -0.244475,1.18949 l 0.183445,0.47378 -0.407458,-0.30398 c -0.672748,-0.50243 -1.38677,-0.60579 -2.011187,-0.29285 -0.621594,0.31186 -1.023408,0.99343 -1.023408,1.73634 0,0.7856 0.599369,1.29082 1.191683,1.38437 0.429331,0.0677 0.958145,-0.0807 1.156759,-0.69716 l 0.279047,0.0896 c -0.185208,0.57411 -0.657578,0.91585 -1.237897,0.91585 -0.07902,0 -0.160514,-0.006 -0.24377,-0.0194 -0.714728,-0.11215 -1.438628,-0.72319 -1.438628,-1.67319 0,-0.85259 0.464962,-1.63724 1.184981,-1.99817 0.618772,-0.30963 1.330678,-0.26663 1.998486,0.11148 -0.04727,-0.41338 0.09207,-0.80888 0.404989,-1.12282 0.186267,-0.18701 0.41522,-0.32674 0.661106,-0.41631 -0.4826,-0.73544 -0.473781,-1.51444 0.0448,-2.11099 0.496005,-0.57013 1.319036,-0.77724 1.874308,-0.46923 l -0.141817,0.25576 c -0.438855,-0.24267 -1.102783,-0.0645 -1.511653,0.40542 -0.214841,0.24761 -0.63253,0.91651 0.02999,1.84079 0.309033,-0.0583 0.628297,-0.041 0.9144,0.0692 0.335844,0.1276 0.885825,0.49414 1.004711,1.47422 l 0.06773,-0.002 c 0.678039,0 1.29787,0.28748 1.744486,0.81072 0.252236,0.29488 0.444148,0.6569 0.57785,1.07734 v -3.24199 c 0,-1.86489 -0.601486,-2.16997 -0.607483,-2.17247 l -0.173567,-0.0819 0.121003,-0.14771 c 0.419453,-0.48824 0.502708,-1.07777 0.235656,-1.65918 -0.380295,-0.82695 -1.368425,-1.45024 -2.298348,-1.45024 -0.833261,0 -1.507772,0.49238 -1.900061,1.38646 l -0.117122,0.26776 -0.144286,-0.25439 c -0.243417,-0.42873 -0.583142,-0.66573 -0.956028,-0.66573 -0.555272,0 -1.0541,0.51855 -1.111956,1.15574 l -0.02081,0.23029 -0.199319,-0.11744 c -0.1778,-0.10404 -0.392642,-0.16013 -0.621595,-0.16013 -0.452966,0 -0.897114,0.20701 -1.187802,0.55386 -0.207081,0.24653 -0.429684,0.6784 -0.313973,1.3335 l 0.0314,0.17847 -0.245534,-0.008 c -0.529519,0 -1.054805,0.25781 -1.440744,0.70651 -0.425098,0.49568 -0.613128,1.14585 -0.515761,1.78537 l 0.02893,0.18881 -0.01517,-0.001 c 0.120297,0.8865 1.181453,1.15313 1.193094,1.15602 l 0.693914,0.16718 -0.704144,0.11934 c -0.997303,0.1692 -1.066447,1.1151 -1.049514,1.51406 l -0.145697,0.0247 H 76.11932 c -0.01376,-0.33476 0.02046,-1.31343 0.86748,-1.69997 -0.395463,-0.19375 -0.934861,-0.592 -1.000477,-1.30595 -0.431448,-0.009 -0.828675,0.19541 -1.053042,0.55231 -0.269522,0.43007 -0.26035,1.01642 0.02575,1.60941 l 0.04621,0.0952 -0.0762,0.0735 c -0.500592,0.48398 -0.658989,1.16378 -0.412045,1.77384 0.235656,0.58303 0.767645,0.94505 1.388886,0.94505 0.314678,0 0.642409,-0.0907 0.97402,-0.26955 l 0.268111,-0.14496 -0.05468,0.29986 3.53e-4,-4.2e-4 c 0.0011,0 0.0042,0.0466 0.06632,0.11081 0.140053,0.14538 0.581025,0.38872 1.960034,0.38872 1.447094,0 3.468511,0.0416 3.606094,0.0445 0.337962,-0.0269 1.272117,-0.1906 1.272117,-0.59408 v -0.46743 l 0.2667,0.38421 c 0.225072,0.32382 0.861484,0.56787 1.480961,0.56787 h 3.53e-4 c 0.37712,0 0.917575,-0.0846 1.349728,-0.48616 0.290336,-0.26942 0.474486,-0.64453 0.565503,-1.10518 -0.0067,-1.06042 -0.258233,-1.91315 -0.731308,-2.46589"
       style="fill:#53c5c7;fill-opacity:1;fill-rule:nonzero;stroke:none;stroke-width:0.0352778"
       id="path298" />
    <path
       d="m 96.713072,240.39966 c -0.518936,-0.23883 -1.109839,-0.199 -1.54305,0.10375 l -0.167923,-0.23992 c 0.517878,-0.36269 1.220612,-0.41243 1.833387,-0.12982 0.535516,0.24627 0.884766,0.69 0.93345,1.18635 l -0.291395,0.0287 c -0.0381,-0.39165 -0.324203,-0.74647 -0.764469,-0.94904 z m -8.509706,4.85317 c 0.09102,0.46065 0.275166,0.83576 0.565502,1.10518 0.432153,0.40156 0.972609,0.48616 1.349728,0.48616 h 3.53e-4 c 0.619478,0 1.255889,-0.24405 1.480961,-0.56787 l 0.2667,-0.38421 v 0.46743 c 0,0.40348 0.934156,0.5672 1.272117,0.59408 0.137583,-0.003 2.159,-0.0445 3.606095,-0.0445 1.379008,0 1.81998,-0.24334 1.960033,-0.38872 0.06209,-0.0642 0.06526,-0.11081 0.06632,-0.11081 l 3.53e-4,4.2e-4 -0.05468,-0.29986 0.268111,0.14496 c 0.331611,0.17886 0.659341,0.26955 0.974019,0.26955 0.621242,0 1.153232,-0.36202 1.388892,-0.94505 0.24694,-0.61006 0.0885,-1.28986 -0.41205,-1.77384 l -0.0762,-0.0735 0.0462,-0.0952 c 0.2861,-0.59299 0.29527,-1.17934 0.0258,-1.60941 -0.22437,-0.3569 -0.6216,-0.56155 -1.053045,-0.55231 -0.06562,0.71395 -0.605014,1.1122 -1.000478,1.30595 0.84702,0.38654 0.881239,1.36521 0.867481,1.69997 h -0.146403 l -0.145697,-0.0247 c 0.01693,-0.39896 -0.05221,-1.34486 -1.049514,-1.51406 l -0.704145,-0.11934 0.693914,-0.16718 c 0.01164,-0.003 1.072797,-0.26952 1.193095,-1.15602 l -0.01517,10e-4 0.02893,-0.18881 c 0.09737,-0.63952 -0.09066,-1.28969 -0.515761,-1.78537 -0.385939,-0.4487 -0.911225,-0.70651 -1.440745,-0.70651 l -0.245533,0.008 0.0314,-0.17847 c 0.115711,-0.6551 -0.106891,-1.08697 -0.313972,-1.3335 -0.290689,-0.34685 -0.734836,-0.55386 -1.187803,-0.55386 -0.228953,0 -0.443794,0.0561 -0.621594,0.16013 l -0.19932,0.11744 -0.02081,-0.23029 c -0.05785,-0.63719 -0.556683,-1.15574 -1.111955,-1.15574 -0.372886,0 -0.712612,0.237 -0.956028,0.66573 l -0.144286,0.25439 -0.117123,-0.26776 c -0.392288,-0.89408 -1.0668,-1.38646 -1.900061,-1.38646 -0.929922,0 -1.918053,0.62329 -2.297994,1.45024 -0.267406,0.58141 -0.18415,1.17094 0.235302,1.65918 l 0.121003,0.14771 -0.173566,0.0819 c -0.006,0.002 -0.607484,0.30758 -0.607484,2.17247 v 3.24199 c 0.133703,-0.42044 0.325614,-0.78246 0.57785,-1.07734 0.446617,-0.52324 1.066447,-0.81072 1.744839,-0.81072 l 0.06738,0.002 c 0.118886,-0.98008 0.668866,-1.34662 1.004711,-1.47422 0.286103,-0.11014 0.605367,-0.12749 0.9144,-0.0692 0.662517,-0.92428 0.244828,-1.59318 0.02999,-1.84079 -0.408869,-0.4699 -1.072797,-0.64809 -1.511653,-0.40542 l -0.141816,-0.25576 c 0.555272,-0.30801 1.378302,-0.1009 1.874308,0.46923 0.518583,0.59655 0.527403,1.37555 0.0448,2.11099 0.245886,0.0896 0.474839,0.2293 0.661105,0.41631 0.312914,0.31394 0.452262,0.70944 0.404989,1.12282 0.667809,-0.37811 1.379714,-0.42111 1.998487,-0.11148 0.720019,0.36093 1.18498,1.14558 1.18498,1.99817 0,0.95 -0.7239,1.56104 -1.438628,1.67319 -0.08326,0.0131 -0.164747,0.0194 -0.243769,0.0194 -0.58032,0 -1.052689,-0.34174 -1.237897,-0.91585 l 0.279047,-0.0896 c 0.198614,0.61641 0.727428,0.76482 1.156758,0.69716 0.592314,-0.0936 1.191684,-0.59877 1.191684,-1.38437 0,-0.74291 -0.401814,-1.42448 -1.023409,-1.73634 -0.624417,-0.31294 -1.338439,-0.20958 -2.011186,0.29285 l -0.407811,0.30398 0.183797,-0.47378 c 0.2286,-0.59157 -0.05503,-0.99935 -0.244475,-1.18949 -0.398639,-0.40076 -1.054806,-0.55178 -1.559631,-0.35913 -0.457552,0.17501 -0.743655,0.60812 -0.821266,1.22657 0.97155,0.14224 1.713089,0.85686 1.713089,1.71595 h -0.293159 c 0,-0.8001 -0.795866,-1.45094 -1.774825,-1.45094 -0.591255,0 -1.132064,0.25107 -1.522236,0.70802 -0.473075,0.55274 -0.724606,1.40547 -0.731308,2.46589"
       style="fill:#53c5c7;fill-opacity:1;fill-rule:nonzero;stroke:none;stroke-width:0.0352778"
       id="path300" />
    <path
       d="m 89.026749,242.42923 -1.094317,1.03392 -1.094316,-1.03392 h -5.548842 v 8.59578 c 0,0 3.409244,-1.87674 6.590594,0.0229 l 0.05256,0.0314 0.05256,-0.0314 c 3.180998,-1.89962 6.590595,-0.0229 6.590595,-0.0229 v -8.59578 h -5.548842"
       style="fill:#f1511b;fill-opacity:1;fill-rule:nonzero;stroke:none;stroke-width:0.0352778"
       id="path302" />
    <path
       d="m 89.026749,242.27707 -1.094317,1.03368 -1.094316,-1.03368 h -5.548842 v 8.59622 c 0,0 3.409244,-1.87746 6.590594,0.0229 l 0.05256,0.0307 0.05256,-0.0307 c 3.180998,-1.90033 6.590595,-0.0229 6.590595,-0.0229 v -8.59622 h -5.548842"
       style="fill:#f68912;fill-opacity:1;fill-rule:nonzero;stroke:none;stroke-width:0.0352778"
       id="path304" />
    <path
       d="m 87.984996,243.56514 c -2.639836,-3.24626 -6.252281,-1.50703 -6.252281,-1.50703 v 8.15303 c 4.040364,-1.48416 6.252281,0.44345 6.252281,0.44345 0,0 2.535061,-1.83624 6.252634,-0.44345 v -8.15303 c 0,0 -3.612092,-1.73923 -6.252634,1.50703"
       style="fill:#deded6;fill-opacity:1;fill-rule:nonzero;stroke:none;stroke-width:0.0352778"
       id="path306" />
    <path
       d="m 81.732715,249.69783 v -8.15277 c 0,0 3.612445,-1.73909 6.252281,1.50647 v 7.09002 c 0,0 -2.724503,-2.19675 -6.252281,-0.44372"
       style="fill:#e7e8da;fill-opacity:1;fill-rule:nonzero;stroke:none;stroke-width:0.0352778"
       id="path308" />
    <path
       d="m 94.23763,249.69783 v -8.15277 c 0,0 -3.612092,-1.73909 -6.252634,1.50647 v 7.09002 c 0,0 2.724856,-2.19675 6.252634,-0.44372"
       style="fill:#f8f8eb;fill-opacity:1;fill-rule:nonzero;stroke:none;stroke-width:0.0352778"
       id="path310" />
    <path
       d="m 83.218263,241.1617 v 4.19421 l 0.817738,-0.947 0.746126,0.947 v -4.19421 c 0,0 -0.948973,-0.18493 -1.563864,0"
       style="fill:#f1511b;fill-opacity:1;fill-rule:nonzero;stroke:none;stroke-width:0.0352778"
       id="path312" />
    <path
       d="m 88.773807,243.787 -0.183444,-0.1753 c 0.01799,-0.0183 1.799519,-1.84573 4.622447,-1.28968 l -0.04904,0.2479 c -2.682875,-0.52847 -4.373033,1.19986 -4.389967,1.21708"
       style="fill:#5c5d5f;fill-opacity:1;fill-rule:nonzero;stroke:none;stroke-width:0.0352778"
       id="path314" />
    <path
       d="m 88.773807,244.95117 -0.183444,-0.17502 c 0.01799,-0.0186 1.799519,-1.84559 4.622447,-1.28997 l -0.04904,0.249 c -2.682875,-0.52889 -4.373033,1.19877 -4.389967,1.21599"
       style="fill:#5c5d5f;fill-opacity:1;fill-rule:nonzero;stroke:none;stroke-width:0.0352778"
       id="path316" />
    <path
       d="m 88.773807,246.11576 -0.183444,-0.17502 c 0.01799,-0.0183 1.799519,-1.84644 4.622447,-1.28972 l -0.04904,0.24832 c -2.682875,-0.52804 -4.373033,1.19906 -4.389967,1.21642"
       style="fill:#5c5d5f;fill-opacity:1;fill-rule:nonzero;stroke:none;stroke-width:0.0352778"
       id="path318" />
  </g>
</svg>
