<?xml version="1.0" encoding="UTF-8" standalone="no"?>
<!-- Created with Inkscape (http://www.inkscape.org/) -->

<svg
   width="24.366011mm"
   height="21.070768mm"
   viewBox="0 0 24.366011 21.070768"
   version="1.1"
   id="svg248"
   sodipodi:docname="15.svg"
   inkscape:version="1.2 (dc2aedaf03, 2022-05-15)"
   xmlns:inkscape="http://www.inkscape.org/namespaces/inkscape"
   xmlns:sodipodi="http://sodipodi.sourceforge.net/DTD/sodipodi-0.dtd"
   xmlns="http://www.w3.org/2000/svg"
   xmlns:svg="http://www.w3.org/2000/svg">
  <sodipodi:namedview
     id="namedview250"
     pagecolor="#505050"
     bordercolor="#ffffff"
     borderopacity="1"
     inkscape:showpageshadow="0"
     inkscape:pageopacity="0"
     inkscape:pagecheckerboard="1"
     inkscape:deskcolor="#505050"
     inkscape:document-units="mm"
     showgrid="false"
     inkscape:zoom="2.0510461"
     inkscape:cx="-72.158298"
     inkscape:cy="66.795182"
     inkscape:window-width="1920"
     inkscape:window-height="1001"
     inkscape:window-x="-9"
     inkscape:window-y="-9"
     inkscape:window-maximized="1"
     inkscape:current-layer="layer1" />
  <defs
     id="defs245" />
  <g
     inkscape:label="Warstwa 1"
     inkscape:groupmode="layer"
     id="layer1"
     transform="translate(7.926031,-1.3325424)">
    <path
       d="m -6.9654171,18.06938 h -0.3175 v -2.824974 h 0.3175 v 2.824974"
       style="fill:#87ce26;fill-opacity:1;fill-rule:nonzero;stroke:none;stroke-width:0.0352778"
       id="path12" />
    <path
       d="m -3.6094419,13.977157 h -0.3175 V 6.1515577 h 0.3175 v 7.8255993"
       style="fill:#87ce26;fill-opacity:1;fill-rule:nonzero;stroke:none;stroke-width:0.0352778"
       id="path14" />
    <path
       d="m -3.880728,10.926335 -2.1240751,-2.1239696 0.2247194,-0.22479 2.1240752,2.1241106 -0.2247195,0.224649"
       style="fill:#87ce26;fill-opacity:1;fill-rule:nonzero;stroke:none;stroke-width:0.0352778"
       id="path16" />
    <path
       d="m -1.1481112,12.766141 h -0.3175 v -1.016035 h 0.3175 v 1.016035"
       style="fill:#87ce26;fill-opacity:1;fill-rule:nonzero;stroke:none;stroke-width:0.0352778"
       id="path18" />
    <path
       d="M 0.61330839,12.442291 H 0.29545559 V 9.4982549 L 1.1883362,8.6058329 1.4130557,8.8304465 0.61330839,9.6298763 v 2.8124147"
       style="fill:#87ce26;fill-opacity:1;fill-rule:nonzero;stroke:none;stroke-width:0.0352778"
       id="path20" />
    <path
       d="m -7.1245199,14.246009 c -0.2667,0 -0.4840111,0.217311 -0.4840111,0.484399 0,0.26663 0.2173111,0.483694 0.4840111,0.483694 0.2674056,0 0.4843639,-0.217064 0.4843639,-0.483694 0,-0.267088 -0.2169583,-0.484399 -0.4843639,-0.484399 z m 0,1.28584 c -0.4416778,0 -0.8015111,-0.359798 -0.8015111,-0.801441 0,-0.442348 0.3598333,-0.801899 0.8015111,-0.801899 0.4423834,0 0.801864,0.359551 0.801864,0.801899 0,0.441643 -0.3594806,0.801441 -0.801864,0.801441"
       style="fill:#87ce26;fill-opacity:1;fill-rule:nonzero;stroke:none;stroke-width:0.0352778"
       id="path22" />
    <path
       d="m 3.4475252,12.958793 h -0.3175 V 6.8475883 L 1.5845057,5.3019982 1.8092251,5.0776668 3.4475252,6.7160022 v 6.2427908"
       style="fill:#87ce26;fill-opacity:1;fill-rule:nonzero;stroke:none;stroke-width:0.0352778"
       id="path24" />
    <path
       d="m -7.1245199,10.784518 c -0.2667,0 -0.4840111,0.217734 -0.4840111,0.484399 0,0.267053 0.2173111,0.484364 0.4840111,0.484364 0.2674056,0 0.4843639,-0.217311 0.4843639,-0.484364 0,-0.266665 -0.2169583,-0.484399 -0.4843639,-0.484399 z m 0,1.286263 c -0.4416778,0 -0.8015111,-0.359516 -0.8015111,-0.801864 0,-0.442101 0.3598333,-0.801899 0.8015111,-0.801899 0.4423834,0 0.801864,0.359798 0.801864,0.801899 0,0.442348 -0.3594806,0.801864 -0.801864,0.801864"
       style="fill:#87ce26;fill-opacity:1;fill-rule:nonzero;stroke:none;stroke-width:0.0352778"
       id="path26" />
    <path
       d="m -6.3187754,7.7245939 c -0.2670528,0 -0.4843639,0.2168878 -0.4843639,0.4839759 0,0.2670528 0.2173111,0.4843639 0.4843639,0.4843639 0.2670528,0 0.4840112,-0.2173111 0.4840112,-0.4843639 0,-0.2670881 -0.2169584,-0.4839759 -0.4840112,-0.4839759 z m 0,1.2854165 c -0.4420306,0 -0.8015111,-0.3593747 -0.8015111,-0.8014406 0,-0.4421011 0.3594805,-0.8014759 0.8015111,-0.8014759 0.4420306,0 0.801864,0.3593748 0.801864,0.8014759 0,0.4420659 -0.3598334,0.8014406 -0.801864,0.8014406"
       style="fill:#87ce26;fill-opacity:1;fill-rule:nonzero;stroke:none;stroke-width:0.0352778"
       id="path28" />
    <path
       d="m -3.7681919,5.1041252 c -0.2674056,0 -0.4843639,0.2176991 -0.4843639,0.4843639 0,0.2670528 0.2169583,0.4839758 0.4843639,0.4839758 0.2663473,0 0.4836584,-0.216923 0.4836584,-0.4839758 0,-0.2666648 -0.2173111,-0.4843639 -0.4836584,-0.4843639 z m 0,1.2858398 c -0.4423834,0 -0.8022167,-0.3597981 -0.8022167,-0.8014759 0,-0.4420659 0.3598333,-0.8014759 0.8022167,-0.8014759 0.4416778,0 0.8011584,0.35941 0.8011584,0.8014759 0,0.4416778 -0.3594806,0.8014759 -0.8011584,0.8014759"
       style="fill:#87ce26;fill-opacity:1;fill-rule:nonzero;stroke:none;stroke-width:0.0352778"
       id="path30" />
    <path
       d="m -3.6560085,10.926335 -0.2247195,-0.224649 2.1244279,-2.1241106 0.2240139,0.22479 -2.1237223,2.1239696"
       style="fill:#87ce26;fill-opacity:1;fill-rule:nonzero;stroke:none;stroke-width:0.0352778"
       id="path32" />
    <path
       d="m -1.2176084,7.7245939 c -0.2670528,0 -0.4843639,0.2168878 -0.4843639,0.4839759 0,0.2670528 0.2173111,0.4843639 0.4843639,0.4843639 0.26670002,0 0.48436392,-0.2173111 0.48436392,-0.4843639 0,-0.2670881 -0.2176639,-0.4839759 -0.48436392,-0.4839759 z m 0,1.2854165 c -0.4423834,0 -0.8018639,-0.3593747 -0.8018639,-0.8014406 0,-0.4421011 0.3594805,-0.8014759 0.8018639,-0.8014759 0.44203059,0 0.80186394,0.3593748 0.80186394,0.8014759 0,0.4420659 -0.35983335,0.8014406 -0.80186394,0.8014406"
       style="fill:#87ce26;fill-opacity:1;fill-rule:nonzero;stroke:none;stroke-width:0.0352778"
       id="path34" />
    <path
       d="m -1.307214,10.622311 c -0.2667,0 -0.4836583,0.217346 -0.4836583,0.483976 0,0.267335 0.2169583,0.484399 0.4836583,0.484399 0.2674056,0 0.48436396,-0.217064 0.48436396,-0.484399 0,-0.26663 -0.21695836,-0.483976 -0.48436396,-0.483976 z m 0,1.285452 c -0.4416778,0 -0.8011583,-0.35941 -0.8011583,-0.801476 0,-0.442066 0.3594805,-0.801864 0.8011583,-0.801864 0.4423834,0 0.80221676,0.359798 0.80221676,0.801864 0,0.442066 -0.35983336,0.801476 -0.80221676,0.801476"
       style="fill:#87ce26;fill-opacity:1;fill-rule:nonzero;stroke:none;stroke-width:0.0352778"
       id="path36" />
    <path
       d="m 1.7552501,7.7781809 c -0.2670528,0 -0.4843639,0.2173111 -0.4843639,0.4843992 0,0.2666294 0.2173111,0.4836936 0.4843639,0.4836936 0.2670528,0 0.4840112,-0.2170642 0.4840112,-0.4836936 0,-0.2670881 -0.2169584,-0.4843992 -0.4840112,-0.4843992 z m 0,1.2858751 c -0.4420306,0 -0.80186391,-0.3598334 -0.80186391,-0.8014759 0,-0.4423481 0.35983331,-0.8018992 0.80186391,-0.8018992 0.4420306,0 0.8015112,0.3595511 0.8015112,0.8018992 0,0.4416425 -0.3594806,0.8014759 -0.8015112,0.8014759"
       style="fill:#87ce26;fill-opacity:1;fill-rule:nonzero;stroke:none;stroke-width:0.0352778"
       id="path38" />
    <path
       d="m 4.4155475,15.244406 h -0.3175 V 2.6477686 h 0.3175 V 15.244406"
       style="fill:#87ce26;fill-opacity:1;fill-rule:nonzero;stroke:none;stroke-width:0.0352778"
       id="path40" />
    <path
       d="m 1.2423112,4.2504029 c -0.26740557,0 -0.48436391,0.216923 -0.48436391,0.4843992 0,0.2666294 0.21695834,0.4843639 0.48436391,0.4843639 0.2667,0 0.4840111,-0.2177345 0.4840111,-0.4843639 0,-0.2674762 -0.2173111,-0.4843992 -0.4840111,-0.4843992 z m 0,1.2862631 c -0.44203058,0 -0.80186393,-0.3599392 -0.80186393,-0.8018639 0,-0.4420659 0.35983335,-0.801617 0.80186393,-0.801617 0.4420306,0 0.8015112,0.3595511 0.8015112,0.801617 0,0.4419247 -0.3594806,0.8018639 -0.8015112,0.8018639"
       style="fill:#87ce26;fill-opacity:1;fill-rule:nonzero;stroke:none;stroke-width:0.0352778"
       id="path42" />
    <path
       d="m 15.797218,18.06938 h -0.317853 v -2.824974 h 0.317853 v 2.824974"
       style="fill:#87ce26;fill-opacity:1;fill-rule:nonzero;stroke:none;stroke-width:0.0352778"
       id="path44" />
    <path
       d="m 12.44089,14.00044 h -0.3175 V 6.1515577 h 0.3175 V 14.00044"
       style="fill:#87ce26;fill-opacity:1;fill-rule:nonzero;stroke:none;stroke-width:0.0352778"
       id="path46" />
    <path
       d="m 4.2567975,1.6500424 c -0.2670528,0 -0.4843639,0.2170642 -0.4843639,0.4836937 0,0.267335 0.2173111,0.4843992 0.4843639,0.4843992 0.2670528,0 0.4843639,-0.2170642 0.4843639,-0.4843992 0,-0.2666295 -0.2173111,-0.4836937 -0.4843639,-0.4836937 z m 0,1.2858751 c -0.4423834,0 -0.8022167,-0.3598333 -0.8022167,-0.8021814 0,-0.4416425 0.3598333,-0.8011937 0.8022167,-0.8011937 0.4423834,0 0.8018639,0.3595512 0.8018639,0.8011937 0,0.4423481 -0.3594805,0.8021814 -0.8018639,0.8021814"
       style="fill:#87ce26;fill-opacity:1;fill-rule:nonzero;stroke:none;stroke-width:0.0352778"
       id="path48" />
    <path
       d="m 12.394676,10.926335 -0.22472,-0.224649 2.124075,-2.1241106 0.224367,0.22479 -2.123722,2.1239696"
       style="fill:#87ce26;fill-opacity:1;fill-rule:nonzero;stroke:none;stroke-width:0.0352778"
       id="path50" />
    <path
       d="M 8.2177866,12.442291 H 7.9006394 V 9.6298763 l -0.8001,-0.7994298 0.2243666,-0.2246136 0.8928806,0.892422 v 2.9440361"
       style="fill:#87ce26;fill-opacity:1;fill-rule:nonzero;stroke:none;stroke-width:0.0352778"
       id="path52" />
    <path
       d="m 15.638468,14.246009 c -0.267053,0 -0.484364,0.217311 -0.484364,0.484399 0,0.26663 0.217311,0.483694 0.484364,0.483694 0.2667,0 0.483658,-0.217064 0.483658,-0.483694 0,-0.267088 -0.216958,-0.484399 -0.483658,-0.484399 z m 0,1.28584 c -0.442384,0 -0.801864,-0.359798 -0.801864,-0.801441 0,-0.442348 0.35948,-0.801899 0.801864,-0.801899 0.441677,0 0.801511,0.359551 0.801511,0.801899 0,0.441643 -0.359834,0.801441 -0.801511,0.801441"
       style="fill:#87ce26;fill-opacity:1;fill-rule:nonzero;stroke:none;stroke-width:0.0352778"
       id="path54" />
    <path
       d="m 5.3839226,12.958793 h -0.3175 V 6.7160022 L 6.7047227,5.0776668 6.9294421,5.3019982 5.3839226,6.8475883 v 6.1112047"
       style="fill:#87ce26;fill-opacity:1;fill-rule:nonzero;stroke:none;stroke-width:0.0352778"
       id="path56" />
    <path
       d="m 15.638468,10.784518 c -0.267053,0 -0.484364,0.217734 -0.484364,0.484399 0,0.267053 0.217311,0.484364 0.484364,0.484364 0.2667,0 0.483658,-0.217311 0.483658,-0.484364 0,-0.266665 -0.216958,-0.484399 -0.483658,-0.484399 z m 0,1.286263 c -0.442384,0 -0.801864,-0.359516 -0.801864,-0.801864 0,-0.442101 0.35948,-0.801899 0.801864,-0.801899 0.441677,0 0.801511,0.359798 0.801511,0.801899 0,0.442348 -0.359834,0.801864 -0.801511,0.801864"
       style="fill:#87ce26;fill-opacity:1;fill-rule:nonzero;stroke:none;stroke-width:0.0352778"
       id="path58" />
    <path
       d="m 14.832723,7.7245939 c -0.267053,0 -0.484011,0.2168878 -0.484011,0.4839759 0,0.2670528 0.216958,0.4843639 0.484011,0.4843639 0.267053,0 0.484364,-0.2173111 0.484364,-0.4843639 0,-0.2670881 -0.217311,-0.4839759 -0.484364,-0.4839759 z m 0,1.2854165 c -0.44203,0 -0.801511,-0.3593747 -0.801511,-0.8014406 0,-0.4421011 0.359481,-0.8014759 0.801511,-0.8014759 0.442031,0 0.801864,0.3593748 0.801864,0.8014759 0,0.4420659 -0.359833,0.8014406 -0.801864,0.8014406"
       style="fill:#87ce26;fill-opacity:1;fill-rule:nonzero;stroke:none;stroke-width:0.0352778"
       id="path60" />
    <path
       d="m 12.282492,5.1041252 c -0.267052,0 -0.484363,0.2176991 -0.484363,0.4843639 0,0.2670528 0.217311,0.4839758 0.484363,0.4839758 0.2667,0 0.484364,-0.216923 0.484364,-0.4839758 0,-0.2666648 -0.217664,-0.4843639 -0.484364,-0.4843639 z m 0,1.2858398 c -0.442383,0 -0.802216,-0.3597981 -0.802216,-0.8014759 0,-0.4420659 0.359833,-0.8014759 0.802216,-0.8014759 0.442031,0 0.801512,0.35941 0.801512,0.8014759 0,0.4416778 -0.359481,0.8014759 -0.801512,0.8014759"
       style="fill:#87ce26;fill-opacity:1;fill-rule:nonzero;stroke:none;stroke-width:0.0352778"
       id="path62" />
    <path
       d="m 12.169956,10.926335 -2.124428,-2.1239696 0.224367,-0.22479 2.124781,2.1241106 -0.22472,0.224649"
       style="fill:#87ce26;fill-opacity:1;fill-rule:nonzero;stroke:none;stroke-width:0.0352778"
       id="path64" />
    <path
       d="m 9.7315562,7.7245939 c -0.2667,0 -0.4843639,0.2168878 -0.4843639,0.4839759 0,0.2670528 0.2176639,0.4843639 0.4843639,0.4843639 0.2670528,0 0.4843638,-0.2173111 0.4843638,-0.4843639 0,-0.2670881 -0.217311,-0.4839759 -0.4843638,-0.4839759 z m 0,1.2854165 c -0.4420306,0 -0.8015112,-0.3593747 -0.8015112,-0.8014406 0,-0.4421011 0.3594806,-0.8014759 0.8015112,-0.8014759 0.4423838,0 0.8022168,0.3593748 0.8022168,0.8014759 0,0.4420659 -0.359833,0.8014406 -0.8022168,0.8014406"
       style="fill:#87ce26;fill-opacity:1;fill-rule:nonzero;stroke:none;stroke-width:0.0352778"
       id="path66" />
    <path
       d="m 9.8204562,10.622311 c -0.2670528,0 -0.4843639,0.217346 -0.4843639,0.483976 0,0.267335 0.2173111,0.484399 0.4843639,0.484399 0.2666998,0 0.4843638,-0.217064 0.4843638,-0.484399 0,-0.26663 -0.217664,-0.483976 -0.4843638,-0.483976 z m 0,1.285452 c -0.4423834,0 -0.801864,-0.35941 -0.801864,-0.801476 0,-0.442066 0.3594806,-0.801864 0.801864,-0.801864 0.4420308,0 0.8018638,0.359798 0.8018638,0.801864 0,0.442066 -0.359833,0.801476 -0.8018638,0.801476"
       style="fill:#87ce26;fill-opacity:1;fill-rule:nonzero;stroke:none;stroke-width:0.0352778"
       id="path68" />
    <path
       d="m 6.7586977,7.7781809 c -0.2667001,0 -0.4840112,0.2173111 -0.4840112,0.4843992 0,0.2666294 0.2173111,0.4836936 0.4840112,0.4836936 0.2670528,0 0.4843639,-0.2170642 0.4843639,-0.4836936 0,-0.2670881 -0.2173111,-0.4843992 -0.4843639,-0.4843992 z m 0,1.2858751 c -0.4416778,0 -0.8015112,-0.3598334 -0.8015112,-0.8014759 0,-0.4423481 0.3598334,-0.8018992 0.8015112,-0.8018992 0.4420305,0 0.8018639,0.3595511 0.8018639,0.8018992 0,0.4416425 -0.3598334,0.8014759 -0.8018639,0.8014759"
       style="fill:#87ce26;fill-opacity:1;fill-rule:nonzero;stroke:none;stroke-width:0.0352778"
       id="path70" />
    <path
       d="m 14.042854,15.836684 h -0.3175 V 12.95202 l 1.343025,-1.344401 0.224366,0.223944 -1.249891,1.251655 v 2.753466"
       style="fill:#87ce26;fill-opacity:1;fill-rule:nonzero;stroke:none;stroke-width:0.0352778"
       id="path72" />
    <path
       d="m 7.2719894,4.2504029 c -0.2670528,0 -0.484364,0.216923 -0.484364,0.4843992 0,0.2666294 0.2173112,0.4843639 0.484364,0.4843639 0.2663472,0 0.4836583,-0.2177345 0.4836583,-0.4843639 0,-0.2674762 -0.2173111,-0.4843992 -0.4836583,-0.4843992 z m 0,1.2862631 c -0.4423834,0 -0.8022168,-0.3599392 -0.8022168,-0.8018639 0,-0.4420659 0.3598334,-0.801617 0.8022168,-0.801617 0.4416778,0 0.8011583,0.3595511 0.8011583,0.801617 0,0.4419247 -0.3594805,0.8018639 -0.8011583,0.8018639"
       style="fill:#87ce26;fill-opacity:1;fill-rule:nonzero;stroke:none;stroke-width:0.0352778"
       id="path74" />
    <path
       d="m 9.979559,12.768223 h -0.3175 v -1.018117 h 0.3175 v 1.018117"
       style="fill:#87ce26;fill-opacity:1;fill-rule:nonzero;stroke:none;stroke-width:0.0352778"
       id="path76" />
    <path
       d="m -5.2114059,15.813824 h -0.3178528 v -2.730606 l -1.2495389,-1.251655 0.2243666,-0.223944 1.3430251,1.344401 v 2.861804"
       style="fill:#87ce26;fill-opacity:1;fill-rule:nonzero;stroke:none;stroke-width:0.0352778"
       id="path78" />
    <path
       d="m -4.239503,17.4789 -0.2561167,-0.02466 c 0.042686,-0.436845 0.34925,-0.8267 0.8202084,-1.043199 0.5390445,-0.248038 1.1564056,-0.204647 1.6107834,0.113982 l -0.1478139,0.21082 c -0.3802945,-0.265959 -0.8992306,-0.301519 -1.3553723,-0.09137 -0.38735,0.178188 -0.638175,0.490043 -0.6716889,0.834425 z m 7.5053477,1.26298 c -0.3429001,-0.400897 -0.817739,-0.622053 -1.3370279,-0.622053 -0.8600723,0 -1.55963065,0.572276 -1.55963065,1.275362 H 0.11201113 c 0,-0.755297 0.65122782,-1.382995 1.50424457,-1.508125 -0.068086,-0.543348 -0.3189112,-0.923572 -0.72143063,-1.077066 -0.44273614,-0.170039 -1.01952784,-0.03665 -1.3698362,0.314748 -0.16651112,0.16757 -0.41557224,0.525569 -0.21484168,1.045246 l 0.16121946,0.41656 -0.35771669,-0.267053 C -1.4772529,17.878527 -2.1051973,17.786875 -2.653414,18.061936 c -0.5464529,0.274249 -0.8992307,0.872843 -0.8992307,1.525764 0,0.690125 0.5263445,1.134544 1.0466918,1.216124 0.3774722,0.05746 0.8424334,-0.07056 1.0170584,-0.612133 l 0.244475,0.07842 c -0.1626306,0.505048 -0.5774973,0.804909 -1.087614,0.804909 -0.069144,0 -0.1407583,-0.0057 -0.2141361,-0.01723 -0.6282973,-0.09839 -1.2640028,-0.635413 -1.2640028,-1.470096 0,-0.74923 0.4088694,-1.43824 1.0414,-1.755352 0.5439834,-0.272697 1.1694584,-0.233856 1.7557751,0.09772 -0.041628,-0.362973 0.0807862,-0.71053 0.35595283,-0.986402 0.16333612,-0.164395 0.36477224,-0.287479 0.58031948,-0.365725 -0.42368614,-0.646324 -0.41557225,-1.33036 0.03986389,-1.854976 0.43568058,-0.501615 1.1592279,-0.682978 1.6467668,-0.41275 l -0.1248834,0.22546 c -0.3855861,-0.213184 -0.96908059,-0.05676 -1.32785561,0.355953 -0.1890889,0.217311 -0.55633059,0.805744 0.0268111,1.617133 0.27058058,-0.05016 0.55068615,-0.03499 0.8025695,0.06064 0.29492221,0.112853 0.77858061,0.435045 0.88300281,1.295753 l 0.059267,-0.0025 c 0.5958417,0 1.1398251,0.253012 1.5328195,0.712294 0.2218973,0.259221 0.3898195,0.576721 0.5076473,0.946855 v -2.84868 c 0,-1.646062 -0.5252861,-1.905424 -0.5305778,-1.90747 l -0.1651,-0.06713 0.1160639,-0.135466 c 0.3683,-0.42926 0.4420306,-0.947526 0.2067278,-1.45796 -0.3340806,-0.72637 -1.2022668,-1.274269 -2.0193002,-1.274269 -0.73166113,0 -1.32503339,0.432858 -1.66934452,1.218459 l -0.10265834,0.23495 -0.12700001,-0.222955 c -0.21378335,-0.377014 -0.51223337,-0.585259 -0.83996393,-0.585259 -0.4878917,0 -0.9260417,0.45586 -0.9768417,1.015753 l -0.018697,0.202177 -0.1749777,-0.103081 c -0.1555751,-0.09208 -0.344664,-0.140688 -0.5457473,-0.140688 -0.3982861,0 -0.7881056,0.18161 -1.0438695,0.486022 -0.1820334,0.217311 -0.3774723,0.596547 -0.2758722,1.172034 l 0.027869,0.15695 -0.2155472,-0.0079 c -0.4660195,0 -0.9274529,0.226554 -1.2661196,0.62096 -0.3739444,0.435046 -0.5386917,1.006793 -0.4529667,1.568485 l 0.0254,0.166194 -0.013758,-0.0018 c 0.1026583,0.775405 1.0075334,1.006087 1.0484556,1.016035 l 0.6046612,0.147708 -0.6134806,0.104034 c -0.8763001,0.148555 -0.9369779,0.979805 -0.9221612,1.330784 l -0.1280583,0.0211 h -0.1287639 c -0.011995,-0.294217 0.017992,-1.154254 0.762,-1.493661 -0.3478389,-0.170321 -0.8216195,-0.520347 -0.8791223,-1.147904 -0.381,-0.0091 -0.7281333,0.172509 -0.9249833,0.486163 -0.2367139,0.377437 -0.2286001,0.892846 0.022931,1.413863 l 0.040217,0.08364 -0.067028,0.06421 c -0.4399139,0.425838 -0.5785556,1.023074 -0.36195,1.558164 0.2070805,0.513044 0.6748639,0.831232 1.2206112,0.831232 0.276225,0 0.5644444,-0.08006 0.8558389,-0.237158 l 0.2356556,-0.126919 -0.048331,0.263207 3.528e-4,-4.16e-4 c 0.00106,0 0.00388,0.04052 0.058208,0.09743 0.1234723,0.127604 0.5104695,0.341062 1.7219085,0.341062 1.2710584,0 3.04764738,0.03707 3.16829739,0.03955 0.29703891,-0.0237 1.11795285,-0.167982 1.11795285,-0.522139 v -0.41093 l 0.23424446,0.337206 c 0.1975556,0.28429 0.7567084,0.499541 1.3010445,0.499541 h 3.528e-4 c 0.3312584,0 0.8060973,-0.07442 1.186039,-0.427193 0.2550583,-0.237162 0.4166306,-0.566649 0.4967111,-0.971518 -0.006,-0.931676 -0.2271889,-1.680658 -0.6427611,-2.166398"
       style="fill:#f1511b;fill-opacity:1;fill-rule:nonzero;stroke:none;stroke-width:0.0352778"
       id="path80" />
    <path
       d="m 12.092698,16.644475 c -0.456494,-0.21015 -0.975431,-0.17459 -1.355725,0.09137 l -0.147461,-0.21082 c 0.45473,-0.318629 1.071033,-0.36202 1.61043,-0.113982 0.470959,0.216499 0.777523,0.606354 0.820209,1.043199 l -0.256117,0.02466 c -0.03351,-0.344382 -0.284692,-0.656237 -0.671336,-0.834425 z m 3.709811,2.992684 -0.06668,-0.06421 0.04057,-0.08364 c 0.25153,-0.521017 0.259291,-1.036426 0.02258,-1.413863 -0.19685,-0.314042 -0.543631,-0.495264 -0.925337,-0.486163 -0.05715,0.627557 -0.53093,0.977583 -0.879122,1.147904 0.745067,0.338984 0.7747,1.197645 0.762706,1.48276 l -0.257528,0.0109 c 0.01517,-0.372075 -0.04516,-1.203325 -0.921456,-1.35188 l -0.613833,-0.104034 0.604308,-0.147708 c 0.04127,-0.0099 0.94615,-0.24063 1.048809,-1.016035 l -0.01341,0.0018 0.02505,-0.166194 c 0.08573,-0.561692 -0.07938,-1.133439 -0.452614,-1.568485 -0.339019,-0.394406 -0.800452,-0.62096 -1.266119,-0.62096 l -0.2159,0.0079 0.02822,-0.15695 c 0.101247,-0.575487 -0.09419,-0.954723 -0.276225,-1.172034 -0.255411,-0.304412 -0.645936,-0.486022 -1.043517,-0.486022 -0.201436,0 -0.390172,0.04861 -0.5461,0.140688 l -0.174977,0.103081 -0.01835,-0.202177 c -0.05115,-0.559893 -0.489655,-1.015753 -0.9771944,-1.015753 -0.3273778,0 -0.6258278,0.208245 -0.8399639,0.585259 l -0.127,0.222955 -0.1026584,-0.23495 C 8.2721144,12.263715 7.6794477,11.830857 6.9474338,11.830857 c -0.8170334,0 -1.6852196,0.547899 -2.0189474,1.274269 -0.23495,0.510434 -0.161925,1.0287 0.2067278,1.45796 l 0.1164167,0.135466 -0.1661583,0.06713 c -0.00212,0.0014 -0.5302251,0.269522 -0.5302251,1.90747 v 2.84868 c 0.117475,-0.370134 0.28575,-0.687634 0.5076473,-0.946855 0.3926417,-0.459282 0.9369778,-0.712294 1.5331723,-0.712294 l 0.059267,0.0025 C 6.7594035,17.004475 7.2430619,16.682283 7.5376313,16.56943 7.7898675,16.47379 8.069973,16.458622 8.3409064,16.50879 8.9233425,15.697401 8.5561009,15.108968 8.3673644,14.891657 8.0082366,14.478913 7.4254477,14.322491 7.0395088,14.535675 l -0.1245306,-0.22546 c 0.4878917,-0.269523 1.2107334,-0.08819 1.6467668,0.41275 0.4554361,0.524616 0.4628445,1.208652 0.039158,1.854976 0.2162528,0.07825 0.4169834,0.20133 0.5810251,0.365725 0.2748139,0.275872 0.3975806,0.623429 0.3556,0.986402 0.5866699,-0.331964 1.2124979,-0.370417 1.7561279,-0.09772 0.632531,0.317112 1.041048,1.006122 1.041048,1.755352 0,0.834683 -0.636059,1.371702 -1.264356,1.470096 -0.07267,0.01157 -0.144286,0.01723 -0.213431,0.01723 -0.510469,0 -0.9249833,-0.299861 -1.0879667,-0.804909 l 0.2451807,-0.07842 c 0.17392,0.541577 0.638175,0.669597 1.016353,0.612133 0.519995,-0.08158 1.047045,-0.525999 1.047045,-1.216124 0,-0.652921 -0.353131,-1.251515 -0.899231,-1.525764 -0.548922,-0.274355 -1.176161,-0.184115 -1.7670644,0.257563 l -0.3584222,0.267053 0.1612195,-0.41656 C 9.4154673,17.650315 9.1660534,17.292316 8.999895,17.124746 8.6492339,16.772921 8.0717366,16.639677 7.6293533,16.809998 c -0.4018139,0.153494 -0.6529917,0.533718 -0.7214306,1.077066 0.8533695,0.12513 1.5049501,0.752828 1.5049501,1.508125 H 8.1549922 c 0,-0.703086 -0.6992056,-1.275362 -1.5589251,-1.275362 -0.5196417,0 -0.9944806,0.221156 -1.3373806,0.622053 -0.4198056,0.491384 -0.6424084,1.250562 -0.6438195,2.196028 0.2631722,1.258697 1.3271501,1.369081 1.6841612,1.369081 0.5443361,0 1.1038417,-0.215251 1.3010445,-0.499541 l 0.2342445,-0.337206 v 0.41093 c 0,0.354157 0.8209139,0.498436 1.1179528,0.522139 0.12065,-0.0025 1.896886,-0.03955 3.168297,-0.03955 1.211439,0 1.598789,-0.213458 1.721909,-0.341062 0.05856,-0.06036 0.05785,-0.103491 0.0575,-0.105145 l -0.04798,-0.263204 0.236714,0.135047 c 0.291041,0.157095 0.578908,0.237158 0.855486,0.237158 0.545394,0 1.013531,-0.318188 1.220964,-0.831232 0.216253,-0.53509 0.07761,-1.132326 -0.362656,-1.558164"
       style="fill:#f1511b;fill-opacity:1;fill-rule:nonzero;stroke:none;stroke-width:0.0352778"
       id="path82" />
  </g>
</svg>
