<?xml version="1.0" encoding="UTF-8" standalone="no"?>
<!-- Created with Inkscape (http://www.inkscape.org/) -->

<svg
   width="22.910498mm"
   height="20.865967mm"
   viewBox="0 0 22.910498 20.865967"
   version="1.1"
   id="svg248"
   sodipodi:docname="16.svg"
   inkscape:version="1.2 (dc2aedaf03, 2022-05-15)"
   xmlns:inkscape="http://www.inkscape.org/namespaces/inkscape"
   xmlns:sodipodi="http://sodipodi.sourceforge.net/DTD/sodipodi-0.dtd"
   xmlns="http://www.w3.org/2000/svg"
   xmlns:svg="http://www.w3.org/2000/svg">
  <sodipodi:namedview
     id="namedview250"
     pagecolor="#505050"
     bordercolor="#ffffff"
     borderopacity="1"
     inkscape:showpageshadow="0"
     inkscape:pageopacity="0"
     inkscape:pagecheckerboard="1"
     inkscape:deskcolor="#505050"
     inkscape:document-units="mm"
     showgrid="false"
     inkscape:zoom="2.0510461"
     inkscape:cx="53.143612"
     inkscape:cy="35.591593"
     inkscape:window-width="1920"
     inkscape:window-height="1001"
     inkscape:window-x="-9"
     inkscape:window-y="-9"
     inkscape:window-maximized="1"
     inkscape:current-layer="layer1" />
  <defs
     id="defs245" />
  <g
     inkscape:label="Warstwa 1"
     inkscape:groupmode="layer"
     id="layer1"
     transform="translate(33.127124,-8.2719024)">
    <path
       d="m -17.056893,18.395494 -0.240594,-0.154199 c 0.701675,-1.096751 0.699558,-2.170959 -0.0053,-2.873763 -0.593372,-0.591573 -1.509536,-0.734766 -2.130425,-0.33401 l -0.253294,0.163301 0.03387,-0.299861 c 0.09349,-0.81594 -0.407458,-1.329973 -0.944739,-1.477399 -0.4318,-0.118251 -1.039989,-0.02646 -1.331383,0.623676 l -0.141817,0.317253 -0.122061,-0.325367 c -0.273403,-0.729544 -0.849136,-1.061508 -1.538464,-0.885119 -0.595841,0.151306 -1.182158,0.715081 -1.091142,1.36204 l 0.04798,0.342582 -0.275872,-0.208491 c -0.427567,-0.323427 -1.038931,-0.347804 -1.52012,-0.06131 -0.466372,0.277953 -0.694619,0.775688 -0.609952,1.33103 l -0.282223,0.04343 c -0.103011,-0.674546 0.176037,-1.280336 0.745773,-1.620026 0.496711,-0.296016 1.110897,-0.31503 1.603022,-0.0678 0.05574,-0.686399 0.667103,-1.234299 1.311628,-1.398305 0.591961,-0.150319 1.335617,-0.0072 1.757892,0.795126 0.379236,-0.544301 1.011061,-0.663505 1.521883,-0.524616 0.576086,0.15808 1.149703,0.69469 1.166283,1.525764 0.711906,-0.310056 1.638653,-0.118921 2.254956,0.495688 0.807156,0.804651 0.823736,2.012209 0.0441,3.230386 z m 5.280026,0.385586 -1.310217,-0.05154 1.277408,-0.296686 c 1.183923,-0.275202 1.650295,-1.074174 1.587501,-1.744451 -0.05962,-0.633625 -0.608189,-1.292614 -1.699684,-1.336993 l -0.358775,-0.01485 0.23107,-0.274814 c 0.341136,-0.406082 0.413102,-0.904522 0.197908,-1.367014 -0.253647,-0.54363 -0.8509,-0.86995 -1.3081,-0.689292 l -0.396522,0.156562 0.170038,-0.390807 c 0.186973,-0.430107 0.132998,-0.992752 -0.134408,-1.400492 -0.354189,-0.539504 -0.972961,-0.637505 -1.636889,-0.235374 l -0.275872,0.16757 0.0085,-0.322757 c 0.02364,-0.907027 -0.19932,-1.6080315 -0.663223,-2.0842815 -0.392289,-0.4025195 -0.953558,-0.6239581 -1.581855,-0.6239581 -0.835025,0 -1.632303,0.4014258 -1.895828,0.9548284 l -0.141817,0.2984853 -0.168981,-0.2843037 c -0.337255,-0.5675842 -0.912636,-0.8932334 -1.579033,-0.8932334 -0.705203,0 -1.509536,0.4000501 -1.71697,1.2953648 L -23.24391,9.949641 -23.468276,9.7287669 C -23.907132,9.296614 -24.51779,9.058489 -25.187363,9.058489 c -0.756355,0 -1.446741,0.3122437 -1.758244,0.795267 -0.226836,0.351931 -0.239536,0.775265 -0.03634,1.224774 l 0.420864,0.929922 -0.708731,-0.734765 c -0.437444,-0.454096 -0.895703,-0.693985 -1.323975,-0.693985 -0.350308,0 -0.668514,0.160796 -0.896408,0.453355 -0.265642,0.340395 -0.361245,0.795408 -0.255411,1.217789 l 0.07126,0.285397 -0.285398,-0.07126 c -0.682625,-0.170039 -1.434041,0.228882 -1.694039,0.873407 -0.198966,0.493889 -0.06809,1.012437 0.359128,1.423776 l 0.263172,0.253295 -0.36195,0.04879 c -1.357841,0.182315 -1.780469,1.128889 -1.729669,1.883763 0.04727,0.71053 0.542572,1.430126 1.397,1.430126 0.375356,0 0.784931,-0.13462 1.217083,-0.400297 l 0.79375,-0.487963 -0.560564,0.744397 c -0.451555,0.600004 -0.573616,1.151079 -0.352777,1.594273 0.21343,0.427461 0.732719,0.703757 1.323269,0.703757 0.582436,0 1.077384,-0.267476 1.357136,-0.733108 l 0.434623,-0.723194 -0.108656,0.837565 c -0.0011,0.0048 -0.06562,0.542537 0.277989,0.933732 0.255411,0.290654 0.675922,0.437833 1.249186,0.437833 h 3.116439 l -0.06562,0.225707 c -7.06e-4,0.0022 -0.08467,0.315701 0.09807,0.55633 0.161925,0.213184 0.50165,0.325332 0.982486,0.325332 h 2.692753 c 0.05891,-0.389149 0.306211,-0.757767 0.664633,-0.972326 0.231423,-0.138218 0.683331,-0.313937 1.286581,-0.098 -0.09772,-0.443441 -0.02928,-0.880568 0.201789,-1.257018 0.256469,-0.417689 0.68968,-0.703086 1.1303,-0.744008 l 0.02681,0.284692 c -0.353131,0.03281 -0.703086,0.266382 -0.913694,0.608965 -0.236714,0.385551 -0.266348,0.851888 -0.08361,1.313003 l 0.143581,0.363362 -0.343959,-0.184927 c -0.465314,-0.24899 -0.926747,-0.26416 -1.301044,-0.0405 -0.272345,0.163018 -0.456495,0.436421 -0.513292,0.726757 h 0.02434 l -0.01729,0.192229 c -0.03034,0.333375 0.07373,0.649746 0.294216,0.891046 0.435328,0.476673 1.249187,0.554672 1.900414,0.146085 l 0.298098,-0.18729 -0.02858,0.351014 c -0.04339,0.531636 0.08396,0.976454 0.369005,1.285135 0.259997,0.282645 0.648053,0.444147 1.063625,0.444147 0.420864,0 0.806098,-0.166194 1.03117,-0.444147 0.205669,-0.254388 0.270933,-0.591997 0.188736,-0.976736 l -0.07973,-0.374439 0.33655,0.182457 c 0.396522,0.215547 0.778581,0.324273 1.135592,0.324273 0.656519,0 1.210733,-0.383504 1.483078,-1.025948 0.313266,-0.739458 0.165453,-1.579386 -0.377472,-2.139562 l -0.252942,-0.261408 0.362303,-0.0368 c 0.532694,-0.05387 0.875594,-0.57531 0.861483,-1.028277 -0.01693,-0.563774 -0.539397,-0.919727 -1.396647,-0.953206"
       style="fill:#53c5c7;fill-opacity:1;fill-rule:nonzero;stroke:none;stroke-width:0.0352778"
       id="path808" />
    <path
       d="m -19.27269,14.368183 c -0.289278,0 -0.524228,-0.321063 -0.524228,-0.716421 0,-0.396593 0.23495,-0.717974 0.524228,-0.717974 0.289631,0 0.524228,0.321381 0.524228,0.717974 0,0.395358 -0.234597,0.716421 -0.524228,0.716421 z m -2.23767,0 c -0.290336,0 -0.525286,-0.321063 -0.525286,-0.716421 0,-0.396593 0.23495,-0.717974 0.525286,-0.717974 0.288573,0 0.524228,0.321381 0.524228,0.717974 0,0.395358 -0.235655,0.716421 -0.524228,0.716421 z m 1.118659,-3.864963 c -1.313039,0 -2.378428,0.926994 -2.378428,2.587943 0,1.661513 1.065389,3.427589 2.378428,3.427589 1.312686,0 2.378781,-1.766076 2.378781,-3.427589 0,-1.660949 -1.066095,-2.587943 -2.378781,-2.587943"
       style="fill:#2d2c2c;fill-opacity:1;fill-rule:nonzero;stroke:none;stroke-width:0.0352778"
       id="path810" />
    <path
       d="m -22.464623,15.862938 c -0.2413,-0.139453 -0.550687,-0.05606 -0.690034,0.185208 -0.09525,0.166476 -0.07902,0.361597 0.01411,0.514033 -0.178505,-0.005 -0.357011,0.08004 -0.452261,0.246521 -0.140405,0.240594 -0.0568,0.549557 0.184856,0.68901 0.240947,0.139594 0.548922,0.05704 0.68968,-0.183832 0.02117,-0.03704 0.02611,-0.0744 0.03775,-0.113524 l 2.269772,1.310075 0.32773,-0.567196 -2.268008,-1.309546 0.07161,-0.08075 c 0.139347,-0.242394 0.05644,-0.550404 -0.185208,-0.689998"
       style="fill:#2d2c2c;fill-opacity:1;fill-rule:nonzero;stroke:none;stroke-width:0.0352778"
       id="path812" />
    <path
       d="m -17.190243,19.490905 c -0.09666,0.166052 -0.27305,0.250825 -0.452614,0.245427 0.09349,0.152153 0.109362,0.348651 0.01376,0.51555 -0.1397,0.240876 -0.448028,0.324097 -0.690386,0.183691 -0.240595,-0.138642 -0.323498,-0.448028 -0.18415,-0.688904 0.02011,-0.03637 0.05115,-0.06075 0.07867,-0.08971 l -2.270125,-1.311204 0.327731,-0.566914 2.268361,1.309546 c 0.01094,-0.03528 0.01517,-0.06985 0.03422,-0.102376 0.139347,-0.242252 0.448381,-0.32452 0.689328,-0.185208 0.241653,0.139029 0.324203,0.448804 0.185208,0.690104"
       style="fill:#2d2c2c;fill-opacity:1;fill-rule:nonzero;stroke:none;stroke-width:0.0352778"
       id="path814" />
    <path
       d="m -23.154657,20.251882 c -0.09596,-0.166194 -0.07973,-0.362021 0.01411,-0.514703 -0.178505,0.0052 -0.357011,-0.08022 -0.452261,-0.245569 -0.140405,-0.241723 -0.0568,-0.551074 0.184856,-0.689716 0.240947,-0.140405 0.548922,-0.05719 0.68968,0.184115 0.02011,0.03567 0.02611,0.07525 0.03704,0.113665 l 2.270478,-1.31131 0.32773,0.568007 -2.268008,1.309123 c 0.02469,0.02787 0.05327,0.04907 0.07161,0.08118 0.138642,0.242005 0.05644,0.550262 -0.184856,0.689574 -0.241652,0.139736 -0.551039,0.05719 -0.690386,-0.184361"
       style="fill:#2d2c2c;fill-opacity:1;fill-rule:nonzero;stroke:none;stroke-width:0.0352778"
       id="path816" />
    <path
       d="m -17.190243,16.8087 c -0.09596,-0.166476 -0.27305,-0.250543 -0.453319,-0.245145 0.09419,-0.153106 0.110067,-0.348933 0.01446,-0.515409 -0.140053,-0.241265 -0.448734,-0.323815 -0.690386,-0.184503 -0.240595,0.138889 -0.32385,0.448416 -0.184856,0.689293 0.02081,0.03665 0.05186,0.06103 0.07902,0.08929 l -2.269772,1.310534 0.327731,0.568713 2.268361,-1.310252 c 0.01023,0.03418 0.01517,0.07013 0.03422,0.102659 0.139347,0.240876 0.448381,0.324555 0.689328,0.185208 0.241653,-0.140406 0.324203,-0.448663 0.185208,-0.690386"
       style="fill:#2d2c2c;fill-opacity:1;fill-rule:nonzero;stroke:none;stroke-width:0.0352778"
       id="path818" />
    <path
       d="m -16.392259,25.309939 c -0.293511,-0.318593 -0.45332,-0.743303 -0.469195,-1.240367 -0.733425,0.328825 -1.585383,0.175296 -2.070453,-0.355952 -0.244827,-0.268147 -0.380647,-0.606461 -0.39123,-0.96834 h -0.47872 l 3.022601,6.39259 h 2.489552 l -1.651352,-3.493462 c -0.16757,-0.08929 -0.323498,-0.196497 -0.451203,-0.334469"
       style="fill:#2d778f;fill-opacity:1;fill-rule:nonzero;stroke:none;stroke-width:0.0352778"
       id="path820" />
  </g>
</svg>
