<?xml version="1.0" encoding="UTF-8" standalone="no"?>
<!-- Created with Inkscape (http://www.inkscape.org/) -->

<svg
   width="81.329613"
   height="81.595573"
   viewBox="0 0 81.329613 81.595573"
   version="1.1"
   id="SVGRoot"
   sodipodi:docname="5.svg"
   inkscape:version="1.2 (dc2aedaf03, 2022-05-15)"
   xmlns:inkscape="http://www.inkscape.org/namespaces/inkscape"
   xmlns:sodipodi="http://sodipodi.sourceforge.net/DTD/sodipodi-0.dtd"
   xmlns="http://www.w3.org/2000/svg"
   xmlns:svg="http://www.w3.org/2000/svg">
  <sodipodi:namedview
     id="namedview585"
     pagecolor="#505050"
     bordercolor="#ffffff"
     borderopacity="1"
     inkscape:showpageshadow="0"
     inkscape:pageopacity="0"
     inkscape:pagecheckerboard="1"
     inkscape:deskcolor="#505050"
     inkscape:document-units="px"
     showgrid="false"
     inkscape:zoom="5.8012346"
     inkscape:cx="52.230262"
     inkscape:cy="18.530538"
     inkscape:window-width="1920"
     inkscape:window-height="1001"
     inkscape:window-x="-9"
     inkscape:window-y="-9"
     inkscape:window-maximized="1"
     inkscape:current-layer="layer1" />
  <defs
     id="defs580" />
  <g
     inkscape:label="Warstwa 1"
     inkscape:groupmode="layer"
     id="layer1"
     transform="translate(-350.84272,-660.06407)">
    <path
       d="m 390.17278,670.36394 c 0,-10.77733 -12.82506,-13.768 -17.6844,-5.752 -3.77973,-1.91333 -8.90986,1.692 -7.29013,5.752 -4.99475,-0.96533 -12.95933,4.54 -9.71923,12.916 -5.80625,1.076 -5.94062,9.692 -1.62082,11.48667 -3.7797,1.79333 -2.83491,8.736 2.56457,8.496 -4.31875,2.98933 -2.42968,12.92266 4.86095,13.16 -4.32032,3.112 -0.54063,9.09466 3.91453,6.58266 -4.05,4.90534 0.40573,11.82534 8.23493,10.16134 0.54014,10.41866 16.7396,12.19466 16.7396,0 0,-12.196 0,-62.80267 0,-62.80267"
       style="fill:#53c5c7;fill-opacity:1;fill-rule:nonzero;stroke:none;stroke-width:0.133333"
       id="path458" />
    <path
       d="m 366.18838,687.17861 h -1.01826 v -10.01867 l 11.4,-11.40133 0.72093,0.72133 -11.10267,11.10267 v 9.596"
       style="fill:#2d778f;fill-opacity:1;fill-rule:nonzero;stroke:none;stroke-width:0.133333"
       id="path460" />
    <path
       d="m 370.55665,687.17861 h -1.0188 v -8.47867 l 6.48547,-6.48666 0.72133,0.72 -6.188,6.188 v 8.05733"
       style="fill:#2d778f;fill-opacity:1;fill-rule:nonzero;stroke:none;stroke-width:0.133333"
       id="path462" />
    <path
       d="m 385.52745,696.92128 -9.2328,-9.23334 h -15.75312 v -1.01866 h 16.17552 l 9.53173,9.532 -0.72133,0.72"
       style="fill:#2d778f;fill-opacity:1;fill-rule:nonzero;stroke:none;stroke-width:0.133333"
       id="path464" />
    <path
       d="m 381.93945,736.87861 -0.7208,-0.71867 4.16147,-4.16133 v -51.07867 h 1.01813 v 51.50133 l -4.4588,4.45734"
       style="fill:#2d778f;fill-opacity:1;fill-rule:nonzero;stroke:none;stroke-width:0.133333"
       id="path466" />
    <path
       d="m 381.57905,692.76128 h -14.66933 v -1.01734 h 14.66933 v 1.01734"
       style="fill:#2d778f;fill-opacity:1;fill-rule:nonzero;stroke:none;stroke-width:0.133333"
       id="path468" />
    <path
       d="m 374.37638,710.05327 h -1.01866 v -10.29999 l 7.86093,-7.86134 0.7208,0.72 -7.56307,7.564 v 9.87733"
       style="fill:#2d778f;fill-opacity:1;fill-rule:nonzero;stroke:none;stroke-width:0.133333"
       id="path470" />
    <path
       d="m 369.06492,714.60661 h -1.01814 v -14.61467 l 8.0984,-8.1 0.7208,0.72 -7.80106,7.80267 v 14.192"
       style="fill:#2d778f;fill-opacity:1;fill-rule:nonzero;stroke:none;stroke-width:0.133333"
       id="path472" />
    <path
       d="m 373.84678,687.17861 h -1.01826 v -6.40933 l 10.13853,-10.14 0.7208,0.72133 -9.84107,9.84133 v 5.98667"
       style="fill:#2d778f;fill-opacity:1;fill-rule:nonzero;stroke:none;stroke-width:0.133333"
       id="path474" />
    <path
       d="m 385.52852,706.64527 -5.00734,-5.00666 0.7204,-0.72133 5.00667,5.00666 -0.71973,0.72133"
       style="fill:#2d778f;fill-opacity:1;fill-rule:nonzero;stroke:none;stroke-width:0.133333"
       id="path476" />
    <path
       d="m 377.26972,721.48394 -0.7204,-0.72 8.97813,-8.98 0.72133,0.72 -8.97906,8.98"
       style="fill:#2d778f;fill-opacity:1;fill-rule:nonzero;stroke:none;stroke-width:0.133333"
       id="path478" />
    <path
       d="m 385.88892,708.66261 h -6.32654 v -1.01867 h 6.32654 v 1.01867"
       style="fill:#2d778f;fill-opacity:1;fill-rule:nonzero;stroke:none;stroke-width:0.133333"
       id="path480" />
    <path
       d="m 385.88892,676.49461 h -7.55574 v -1.01867 h 7.55574 v 1.01867"
       style="fill:#2d778f;fill-opacity:1;fill-rule:nonzero;stroke:none;stroke-width:0.133333"
       id="path482" />
    <path
       d="m 377.02438,726.73861 h -6.6328 v -1.01734 h 6.21094 l 8.92493,-8.928 0.72133,0.72 -9.2244,9.22534"
       style="fill:#2d778f;fill-opacity:1;fill-rule:nonzero;stroke:none;stroke-width:0.133333"
       id="path484" />
    <path
       d="m 368.19572,710.41461 -8.62763,-8.62667 v -6.372 h 1.01875 v 5.948 l 8.32808,8.32933 -0.7192,0.72134"
       style="fill:#2d778f;fill-opacity:1;fill-rule:nonzero;stroke:none;stroke-width:0.133333"
       id="path486" />
    <path
       d="m 378.45865,666.11994 c 0,0.844 -0.68427,1.528 -1.52853,1.528 -0.84374,0 -1.52867,-0.684 -1.52867,-1.528 0,-0.84533 0.68493,-1.52933 1.52867,-1.52933 0.84426,0 1.52853,0.684 1.52853,1.52933"
       style="fill:#2d778f;fill-opacity:1;fill-rule:nonzero;stroke:none;stroke-width:0.133333"
       id="path488" />
    <path
       d="m 360.73736,687.17861 c 0,0.844 -0.68438,1.52933 -1.52916,1.52933 -0.84376,0 -1.52866,-0.68533 -1.52866,-1.52933 0,-0.844 0.6849,-1.528 1.52866,-1.528 0.84478,0 1.52916,0.684 1.52916,1.528"
       style="fill:#2d778f;fill-opacity:1;fill-rule:nonzero;stroke:none;stroke-width:0.133333"
       id="path490" />
    <path
       d="m 384.85718,670.99061 c 0,0.844 -0.6844,1.528 -1.5292,1.528 -0.8432,0 -1.52866,-0.684 -1.52866,-1.528 0,-0.84533 0.68546,-1.53067 1.52866,-1.53067 0.8448,0 1.5292,0.68534 1.5292,1.53067"
       style="fill:#2d778f;fill-opacity:1;fill-rule:nonzero;stroke:none;stroke-width:0.133333"
       id="path492" />
    <path
       d="m 387.41865,682.25328 c 0,0.84533 -0.686,1.52933 -1.52973,1.52933 -0.84427,0 -1.5292,-0.684 -1.5292,-1.52933 0,-0.84267 0.68493,-1.528 1.5292,-1.528 0.84373,0 1.52973,0.68533 1.52973,1.528"
       style="fill:#2d778f;fill-opacity:1;fill-rule:nonzero;stroke:none;stroke-width:0.133333"
       id="path494" />
    <path
       d="m 368.43945,692.25194 c 0,0.844 -0.6844,1.528 -1.52973,1.528 -0.84374,0 -1.52814,-0.684 -1.52814,-1.528 0,-0.84533 0.6844,-1.528 1.52814,-1.528 0.84533,0 1.52973,0.68267 1.52973,1.528"
       style="fill:#2d778f;fill-opacity:1;fill-rule:nonzero;stroke:none;stroke-width:0.133333"
       id="path496" />
    <path
       d="m 361.60718,695.41594 c 0,0.844 -0.68546,1.528 -1.53024,1.528 -0.8427,0 -1.5276,-0.684 -1.5276,-1.528 0,-0.844 0.6849,-1.528 1.5276,-1.528 0.84478,0 1.53024,0.684 1.53024,1.528"
       style="fill:#2d778f;fill-opacity:1;fill-rule:nonzero;stroke:none;stroke-width:0.133333"
       id="path498" />
    <path
       d="m 370.08372,714.60661 c 0,0.844 -0.68494,1.528 -1.52814,1.528 -0.8448,0 -1.52973,-0.684 -1.52973,-1.528 0,-0.844 0.68493,-1.528 1.52973,-1.528 0.8432,0 1.52814,0.684 1.52814,1.528"
       style="fill:#2d778f;fill-opacity:1;fill-rule:nonzero;stroke:none;stroke-width:0.133333"
       id="path500" />
    <path
       d="m 375.39625,710.05327 c 0,0.844 -0.68653,1.52934 -1.5292,1.52934 -0.84373,0 -1.52973,-0.68534 -1.52973,-1.52934 0,-0.844 0.686,-1.528 1.52973,-1.528 0.84267,0 1.5292,0.684 1.5292,1.528"
       style="fill:#2d778f;fill-opacity:1;fill-rule:nonzero;stroke:none;stroke-width:0.133333"
       id="path502" />
    <path
       d="m 382.41025,701.27861 c 0,0.84267 -0.68533,1.528 -1.5292,1.528 -0.84373,0 -1.528,-0.68533 -1.528,-1.528 0,-0.84533 0.68427,-1.52933 1.528,-1.52933 0.84387,0 1.5292,0.684 1.5292,1.52933"
       style="fill:#2d778f;fill-opacity:1;fill-rule:nonzero;stroke:none;stroke-width:0.133333"
       id="path504" />
    <path
       d="m 378.43732,721.12394 c 0,0.844 -0.68427,1.528 -1.52814,1.528 -0.84426,0 -1.52906,-0.684 -1.52906,-1.528 0,-0.84533 0.6848,-1.528 1.52906,-1.528 0.84387,0 1.52814,0.68267 1.52814,1.528"
       style="fill:#2d778f;fill-opacity:1;fill-rule:nonzero;stroke:none;stroke-width:0.133333"
       id="path506" />
    <path
       d="m 371.92012,726.22927 c 0,0.844 -0.6848,1.528 -1.52854,1.528 -0.84426,0 -1.52866,-0.684 -1.52866,-1.528 0,-0.84533 0.6844,-1.528 1.52866,-1.528 0.84374,0 1.52854,0.68267 1.52854,1.528"
       style="fill:#2d778f;fill-opacity:1;fill-rule:nonzero;stroke:none;stroke-width:0.133333"
       id="path508" />
    <path
       d="m 383.10772,736.51994 c 0,0.844 -0.68547,1.528 -1.52867,1.528 -0.84427,0 -1.5292,-0.684 -1.5292,-1.528 0,-0.84533 0.68493,-1.528 1.5292,-1.528 0.8432,0 1.52867,0.68267 1.52867,1.528"
       style="fill:#2d778f;fill-opacity:1;fill-rule:nonzero;stroke:none;stroke-width:0.133333"
       id="path510" />
    <path
       d="m 392.84198,670.36394 c 0,-10.77733 12.82507,-13.768 17.6844,-5.752 3.78027,-1.91333 8.91,1.692 7.29067,5.752 4.9948,-0.96533 12.95933,4.54 9.71933,12.916 5.8056,1.076 5.94053,9.692 1.62027,11.48667 3.77973,1.79333 2.83533,8.736 -2.56467,8.496 4.31933,2.98933 2.42973,12.92266 -4.8604,13.16 4.3204,3.112 0.54013,9.09466 -3.91453,6.58266 4.05,4.90534 -0.40574,11.82534 -8.23547,10.16134 -0.5396,10.41866 -16.7396,12.19466 -16.7396,0 0,-12.196 0,-62.80267 0,-62.80267"
       style="fill:#53c5c7;fill-opacity:1;fill-rule:nonzero;stroke:none;stroke-width:0.133333"
       id="path512" />
    <path
       d="m 416.82638,687.17861 h 1.01827 v -10.01867 l -11.39947,-11.40133 -0.7208,0.72133 11.102,11.10267 v 9.596"
       style="fill:#2d778f;fill-opacity:1;fill-rule:nonzero;stroke:none;stroke-width:0.133333"
       id="path514" />
    <path
       d="m 412.45865,687.17861 h 1.01827 v -8.47867 l -6.48494,-6.48666 -0.72133,0.72 6.188,6.188 v 8.05733"
       style="fill:#2d778f;fill-opacity:1;fill-rule:nonzero;stroke:none;stroke-width:0.133333"
       id="path516" />
    <path
       d="m 397.48732,696.92128 9.2328,-9.23334 h 15.75373 v -1.01866 h -16.17613 l -9.53174,9.532 0.72134,0.72"
       style="fill:#2d778f;fill-opacity:1;fill-rule:nonzero;stroke:none;stroke-width:0.133333"
       id="path518" />
    <path
       d="m 401.07585,736.87861 0.72093,-0.71867 -4.16146,-4.16133 v -51.07867 h -1.01827 v 51.50133 l 4.4588,4.45734"
       style="fill:#2d778f;fill-opacity:1;fill-rule:nonzero;stroke:none;stroke-width:0.133333"
       id="path520" />
    <path
       d="m 401.43585,692.76128 h 14.6692 v -1.01734 h -14.6692 v 1.01734"
       style="fill:#2d778f;fill-opacity:1;fill-rule:nonzero;stroke:none;stroke-width:0.133333"
       id="path522" />
    <path
       d="m 408.63838,710.05327 h 1.0188 v -10.29999 l -7.8604,-7.86134 -0.72093,0.72 7.56253,7.564 v 9.87733"
       style="fill:#2d778f;fill-opacity:1;fill-rule:nonzero;stroke:none;stroke-width:0.133333"
       id="path524" />
    <path
       d="m 413.95038,714.60661 h 1.01827 v -14.61467 l -8.09853,-8.1 -0.72134,0.72 7.8016,7.80267 v 14.192"
       style="fill:#2d778f;fill-opacity:1;fill-rule:nonzero;stroke:none;stroke-width:0.133333"
       id="path526" />
    <path
       d="m 409.16865,687.17861 h 1.01773 v -6.40933 l -10.13866,-10.14 -0.7208,0.72133 9.84173,9.84133 v 5.98667"
       style="fill:#2d778f;fill-opacity:1;fill-rule:nonzero;stroke:none;stroke-width:0.133333"
       id="path528" />
    <path
       d="m 397.48678,706.64527 5.0068,-5.00666 -0.71973,-0.72133 -5.00733,5.00666 0.72026,0.72133"
       style="fill:#2d778f;fill-opacity:1;fill-rule:nonzero;stroke:none;stroke-width:0.133333"
       id="path530" />
    <path
       d="m 405.74518,721.48394 0.7208,-0.72 -8.97866,-8.98 -0.72134,0.72 8.9792,8.98"
       style="fill:#2d778f;fill-opacity:1;fill-rule:nonzero;stroke:none;stroke-width:0.133333"
       id="path532" />
    <path
       d="m 397.12585,676.49461 h 7.55627 v -1.01867 h -7.55627 v 1.01867"
       style="fill:#2d778f;fill-opacity:1;fill-rule:nonzero;stroke:none;stroke-width:0.133333"
       id="path536" />
    <path
       d="m 405.99052,726.73861 h 6.6328 v -1.01734 h -6.21094 l -8.92506,-8.928 -0.72134,0.72 9.22454,9.22534"
       style="fill:#2d778f;fill-opacity:1;fill-rule:nonzero;stroke:none;stroke-width:0.133333"
       id="path538" />
    <path
       d="m 414.81971,710.41461 8.6276,-8.62667 v -6.372 h -1.01933 v 5.948 l -8.32813,8.32933 0.71986,0.72134"
       style="fill:#2d778f;fill-opacity:1;fill-rule:nonzero;stroke:none;stroke-width:0.133333"
       id="path540" />
    <path
       d="m 404.55665,666.11994 c 0,0.844 0.68387,1.528 1.52867,1.528 0.84373,0 1.52866,-0.684 1.52866,-1.528 0,-0.84533 -0.68493,-1.52933 -1.52866,-1.52933 -0.8448,0 -1.52867,0.684 -1.52867,1.52933"
       style="fill:#2d778f;fill-opacity:1;fill-rule:nonzero;stroke:none;stroke-width:0.133333"
       id="path542" />
    <path
       d="m 422.27745,687.17861 c 0,0.844 0.6844,1.52933 1.52973,1.52933 0.84373,0 1.52867,-0.68533 1.52867,-1.52933 0,-0.844 -0.68494,-1.528 -1.52867,-1.528 -0.84533,0 -1.52973,0.684 -1.52973,1.528"
       style="fill:#2d778f;fill-opacity:1;fill-rule:nonzero;stroke:none;stroke-width:0.133333"
       id="path544" />
    <path
       d="m 398.15825,670.99061 c 0,0.844 0.68373,1.528 1.52907,1.528 0.84333,0 1.52866,-0.684 1.52866,-1.528 0,-0.84533 -0.68533,-1.53067 -1.52866,-1.53067 -0.84534,0 -1.52907,0.68534 -1.52907,1.53067"
       style="fill:#2d778f;fill-opacity:1;fill-rule:nonzero;stroke:none;stroke-width:0.133333"
       id="path546" />
    <path
       d="m 395.59678,682.25328 c 0,0.84533 0.68534,1.52933 1.52907,1.52933 0.84427,0 1.5292,-0.684 1.5292,-1.52933 0,-0.84267 -0.68493,-1.528 -1.5292,-1.528 -0.84373,0 -1.52907,0.68533 -1.52907,1.528"
       style="fill:#2d778f;fill-opacity:1;fill-rule:nonzero;stroke:none;stroke-width:0.133333"
       id="path548" />
    <path
       d="m 414.57585,692.25194 c 0,0.844 0.6844,1.528 1.5292,1.528 0.84373,0 1.52813,-0.684 1.52813,-1.528 0,-0.84533 -0.6844,-1.528 -1.52813,-1.528 -0.8448,0 -1.5292,0.68267 -1.5292,1.528"
       style="fill:#2d778f;fill-opacity:1;fill-rule:nonzero;stroke:none;stroke-width:0.133333"
       id="path550" />
    <path
       d="m 421.40825,695.41594 c 0,0.844 0.68533,1.528 1.5296,1.528 0.8432,0 1.52813,-0.684 1.52813,-1.528 0,-0.844 -0.68493,-1.528 -1.52813,-1.528 -0.84427,0 -1.5296,0.684 -1.5296,1.528"
       style="fill:#2d778f;fill-opacity:1;fill-rule:nonzero;stroke:none;stroke-width:0.133333"
       id="path552" />
    <path
       d="m 412.93105,714.60661 c 0,0.844 0.68493,1.528 1.52813,1.528 0.84533,0 1.53027,-0.684 1.53027,-1.528 0,-0.844 -0.68494,-1.528 -1.53027,-1.528 -0.8432,0 -1.52813,0.684 -1.52813,1.528"
       style="fill:#2d778f;fill-opacity:1;fill-rule:nonzero;stroke:none;stroke-width:0.133333"
       id="path554" />
    <path
       d="m 407.61918,710.05327 c 0,0.844 0.68587,1.52934 1.52907,1.52934 0.84373,0 1.5292,-0.68534 1.5292,-1.52934 0,-0.844 -0.68547,-1.528 -1.5292,-1.528 -0.8432,0 -1.52907,0.684 -1.52907,1.528"
       style="fill:#2d778f;fill-opacity:1;fill-rule:nonzero;stroke:none;stroke-width:0.133333"
       id="path556" />
    <path
       d="m 400.60452,701.27861 c 0,0.84267 0.68546,1.528 1.5292,1.528 0.84373,0 1.52813,-0.68533 1.52813,-1.528 0,-0.84533 -0.6844,-1.52933 -1.52813,-1.52933 -0.84374,0 -1.5292,0.684 -1.5292,1.52933"
       style="fill:#2d778f;fill-opacity:1;fill-rule:nonzero;stroke:none;stroke-width:0.133333"
       id="path558" />
    <path
       d="m 404.57798,721.12394 c 0,0.844 0.6844,1.528 1.52814,1.528 0.84426,0 1.5292,-0.684 1.5292,-1.528 0,-0.84533 -0.68494,-1.528 -1.5292,-1.528 -0.84374,0 -1.52814,0.68267 -1.52814,1.528"
       style="fill:#2d778f;fill-opacity:1;fill-rule:nonzero;stroke:none;stroke-width:0.133333"
       id="path560" />
    <path
       d="m 411.09465,726.22927 c 0,0.844 0.68493,1.528 1.52867,1.528 0.8448,0 1.52866,-0.684 1.52866,-1.528 0,-0.84533 -0.68386,-1.528 -1.52866,-1.528 -0.84374,0 -1.52867,0.68267 -1.52867,1.528"
       style="fill:#2d778f;fill-opacity:1;fill-rule:nonzero;stroke:none;stroke-width:0.133333"
       id="path562" />
    <path
       d="m 399.90718,736.51994 c 0,0.844 0.68534,1.528 1.52867,1.528 0.8448,0 1.52907,-0.684 1.52907,-1.528 0,-0.84533 -0.68427,-1.528 -1.52907,-1.528 -0.84333,0 -1.52867,0.68267 -1.52867,1.528"
       style="fill:#2d778f;fill-opacity:1;fill-rule:nonzero;stroke:none;stroke-width:0.133333"
       id="path564" />
    <path
       d="m 397.47079,708.78055 h 6.3272 v -1.01867 h -6.3272 v 1.01867"
       style="fill:#2d778f;fill-opacity:1;fill-rule:nonzero;stroke:none;stroke-width:0.133333"
       id="path534" />
  </g>
</svg>
