<?xml version="1.0" encoding="UTF-8" standalone="no"?>
<!-- Created with Inkscape (http://www.inkscape.org/) -->

<svg
   width="26.463768mm"
   height="24.352859mm"
   viewBox="0 0 26.463768 24.352859"
   version="1.1"
   id="svg248"
   inkscape:version="1.2 (dc2aedaf03, 2022-05-15)"
   sodipodi:docname="6.svg"
   xmlns:inkscape="http://www.inkscape.org/namespaces/inkscape"
   xmlns:sodipodi="http://sodipodi.sourceforge.net/DTD/sodipodi-0.dtd"
   xmlns="http://www.w3.org/2000/svg"
   xmlns:svg="http://www.w3.org/2000/svg">
  <sodipodi:namedview
     id="namedview250"
     pagecolor="#505050"
     bordercolor="#ffffff"
     borderopacity="1"
     inkscape:showpageshadow="0"
     inkscape:pageopacity="0"
     inkscape:pagecheckerboard="1"
     inkscape:deskcolor="#505050"
     inkscape:document-units="mm"
     showgrid="false"
     inkscape:zoom="0.72515432"
     inkscape:cx="165.48202"
     inkscape:cy="35.164929"
     inkscape:window-width="1920"
     inkscape:window-height="1001"
     inkscape:window-x="-9"
     inkscape:window-y="-9"
     inkscape:window-maximized="1"
     inkscape:current-layer="layer1" />
  <defs
     id="defs245" />
  <g
     inkscape:label="Warstwa 1"
     inkscape:groupmode="layer"
     id="layer1"
     transform="translate(-61.200554,-139.24261)">
    <path
       d="m 83.02768,157.19653 c -0.506942,-0.23283 -1.084086,-0.19402 -1.506361,0.1016 l -0.164042,-0.23424 c 0.505178,-0.35348 1.190625,-0.40217 1.789642,-0.12665 0.523522,0.2406 0.863953,0.67381 0.911225,1.15852 l -0.284339,0.0279 c -0.03739,-0.38276 -0.316442,-0.72919 -0.746125,-0.9271 z m 4.122209,3.32564 -0.07444,-0.072 0.04516,-0.0931 c 0.2794,-0.57856 0.288574,-1.15111 0.02506,-1.57092 -0.218723,-0.34854 -0.603604,-0.54998 -1.027643,-0.53975 -0.06421,0.69779 -0.590197,1.0862 -0.977194,1.27564 0.827264,0.37677 0.860778,1.33104 0.847372,1.64748 l -0.286103,0.012 c 0.01729,-0.41346 -0.05009,-1.33703 -1.024114,-1.50213 l -0.681919,-0.11571 0.672394,-0.16404 c 0.04516,-0.0109 1.050925,-0.26741 1.164873,-1.12889 l -0.01517,0.002 0.02822,-0.1845 c 0.09525,-0.62406 -0.08855,-1.25942 -0.503414,-1.74272 -0.376766,-0.43815 -0.889352,-0.68968 -1.406877,-0.68968 l -0.239536,0.008 0.03104,-0.17427 c 0.112536,-0.63959 -0.104422,-1.0608 -0.306564,-1.30175 -0.283986,-0.33831 -0.71755,-0.54045 -1.15958,-0.54045 -0.223661,0 -0.433564,0.054 -0.606778,0.15628 l -0.194381,0.11465 -0.02046,-0.22472 c -0.05644,-0.6223 -0.54363,-1.12854 -1.08585,-1.12854 -0.364066,0 -0.695325,0.23107 -0.933097,0.65017 l -0.140758,0.24801 -0.114653,-0.26106 c -0.382411,-0.87313 -1.0414,-1.35396 -1.854553,-1.35396 -0.90805,0 -1.872191,0.60854 -2.243666,1.4157 -0.260703,0.56797 -0.179564,1.14335 0.230011,1.6203 l 0.129116,0.15064 -0.18415,0.0748 c -0.0021,0.001 -0.589491,0.2988 -0.589491,2.11914 v 3.16547 c 0.130528,-0.41099 0.3175,-0.76412 0.564091,-1.05234 0.436387,-0.51047 1.041048,-0.79163 1.703212,-0.79163 l 0.06562,0.003 c 0.116064,-0.95673 0.653697,-1.31445 0.981075,-1.43968 0.279753,-0.10689 0.591608,-0.12383 0.892528,-0.0674 0.646994,-0.9017 0.239183,-1.5554 0.02928,-1.7967 -0.399344,-0.45932 -1.047044,-0.63324 -1.475316,-0.39582 l -0.138642,-0.25012 c 0.541867,-0.29915 1.345142,-0.0988 1.829506,0.45861 0.506236,0.58244 0.515055,1.34232 0.0441,2.06058 0.239889,0.0871 0.46355,0.22366 0.64523,0.4064 0.305506,0.30656 0.441325,0.69286 0.395112,1.09608 0.652286,-0.36865 1.347611,-0.41134 1.951213,-0.10866 0.702734,0.35243 1.156759,1.11831 1.156759,1.95087 0,0.9271 -0.706614,1.52364 -1.404409,1.633 -0.08114,0.0127 -0.160514,0.019 -0.237772,0.019 -0.566561,0 -1.027641,-0.33302 -1.208264,-0.89393 l 0.271639,-0.0875 c 0.194381,0.60183 0.711553,0.74647 1.129947,0.68015 0.578203,-0.0907 1.163109,-0.58385 1.163109,-1.35078 0,-0.72567 -0.391936,-1.39101 -0.99942,-1.69545 -0.609247,-0.30586 -1.306689,-0.20426 -1.963208,0.2861 l -0.397581,0.29668 0.178859,-0.46284 c 0.223661,-0.5775 -0.05362,-0.97543 -0.238478,-1.16099 -0.389467,-0.39123 -1.029758,-0.53905 -1.522236,-0.35031 -0.446969,0.17039 -0.726017,0.59337 -0.801864,1.19698 0.948267,0.13934 1.671814,0.83678 1.671814,1.67569 h -0.285397 c 0,-0.7814 -0.777523,-1.41711 -1.733197,-1.41711 -0.577145,0 -1.1049,0.24553 -1.4859,0.69145 -0.466373,0.54539 -0.71367,1.38923 -0.715081,2.44016 0.292806,1.39841 1.474258,1.52047 1.871486,1.52047 0.604661,0 1.226256,-0.23812 1.445683,-0.55421 L 78.29624,162.559 v 0.4565 c 0,0.3944 0.912283,0.55386 1.24213,0.57997 0.134056,-0.003 2.107494,-0.0437 3.520369,-0.0437 1.3462,0 1.776589,-0.23777 1.913114,-0.37923 0.06526,-0.0674 0.06421,-0.11466 0.06421,-0.11677 l -0.05362,-0.29246 0.263172,0.15029 c 0.323497,0.17462 0.643466,0.26317 0.950736,0.26317 0.606072,0 1.126068,-0.35384 1.356078,-0.92287 0.240948,-0.59513 0.08643,-1.25871 -0.402519,-1.73143"
       style="fill:#f68912;fill-opacity:1;fill-rule:nonzero;stroke:none;stroke-width:0.0352777"
       id="path100" />
    <path
       d="m 86.12013,147.04359 c 0,-2.16994 -2.718858,-3.92889 -6.072717,-3.92889 -3.353858,0 -6.072716,1.75895 -6.072716,3.92889 0,2.16994 2.718858,3.92889 6.072716,3.92889 0.712612,0 1.364545,-0.0727 1.999545,-0.21873 0.969433,1.02165 0.791986,2.08563 -0.112889,3.49074 0,0 3.018719,-2.00272 1.977672,-4.17019 1.349022,-0.72037 2.208389,-1.81045 2.208389,-3.03071"
       style="fill:#53c5c7;fill-opacity:1;fill-rule:nonzero;stroke:none;stroke-width:0.0352777"
       id="path102" />
    <path
       d="m 65.091048,158.12363 -0.284339,-0.0279 c 0.04727,-0.48471 0.387702,-0.91792 0.911225,-1.15852 0.599016,-0.27552 1.284464,-0.22683 1.789641,0.12665 l -0.164041,0.23424 c -0.422275,-0.29562 -0.99942,-0.33443 -1.506361,-0.1016 -0.430037,0.19791 -0.708731,0.54434 -0.746125,0.9271 z m -3.778603,4.12997 c 0.230011,0.56903 0.750005,0.92287 1.356078,0.92287 0.307269,0 0.627239,-0.0885 0.950736,-0.26317 l 0.263172,-0.15029 -0.05362,0.29246 c 0,0.002 -0.0011,0.0494 0.06421,0.11677 0.136525,0.14146 0.566914,0.37923 1.913114,0.37923 1.412875,0 3.386314,0.0409 3.520369,0.0438 0.329848,-0.0261 1.242131,-0.18556 1.242131,-0.57997 v -0.45649 l 0.259997,0.375 c 0.219428,0.31609 0.841022,0.55421 1.445683,0.55421 0.397228,0 1.578681,-0.12206 1.871134,-1.52047 -0.0011,-1.05092 -0.248356,-1.89477 -0.714728,-2.44016 -0.381,-0.44591 -0.908756,-0.69145 -1.4859,-0.69145 -0.955675,0 -1.733197,0.63571 -1.733197,1.41711 H 69.92622 c 0,-0.83891 0.723547,-1.53635 1.671813,-1.67569 -0.07585,-0.60361 -0.354894,-1.02659 -0.801863,-1.19698 -0.492478,-0.18874 -1.13277,-0.0409 -1.522237,0.35031 -0.184855,0.18556 -0.462138,0.58349 -0.238477,1.16099 l 0.178858,0.46285 -0.39758,-0.29669 c -0.65652,-0.49036 -1.353962,-0.59196 -1.963209,-0.2861 -0.607483,0.30444 -0.999419,0.96978 -0.999419,1.69545 0,0.76694 0.584905,1.26012 1.163108,1.35078 0.418042,0.0663 0.935567,-0.0783 1.129947,-0.68015 l 0.271639,0.0875 c -0.180622,0.56091 -0.641703,0.89393 -1.208264,0.89393 -0.07726,0 -0.156986,-0.006 -0.237772,-0.019 -0.697794,-0.10936 -1.404408,-0.7059 -1.404408,-1.633 0,-0.83256 0.454025,-1.59844 1.156758,-1.95086 0.603603,-0.30269 1.298928,-0.26 1.951214,0.10865 -0.04621,-0.40322 0.08961,-0.78952 0.395111,-1.09608 0.181681,-0.18274 0.405342,-0.31926 0.645231,-0.4064 -0.470959,-0.71826 -0.462139,-1.47814 0.0441,-2.06057 0.484364,-0.55739 1.287639,-0.75777 1.829505,-0.45862 l -0.138641,0.25012 c -0.428273,-0.23742 -1.075973,-0.0635 -1.475317,0.39582 -0.209903,0.2413 -0.617714,0.895 0.02928,1.7967 0.300919,-0.0564 0.612422,-0.0395 0.892527,0.0674 0.327378,0.12523 0.865011,0.48295 0.981075,1.43968 l 0.06562,-0.003 c 0.662164,0 1.266825,0.28116 1.703211,0.79163 0.246592,0.28822 0.433564,0.64135 0.564092,1.05234 v -3.16547 c 0,-1.82034 -0.587375,-2.11808 -0.589492,-2.11914 l -0.18415,-0.0748 0.129117,-0.15063 c 0.409222,-0.47696 0.490713,-1.05234 0.230011,-1.62031 -0.371475,-0.80716 -1.335617,-1.4157 -2.243667,-1.4157 -0.813153,0 -1.472141,0.48084 -1.854905,1.35396 l -0.1143,0.26106 -0.140759,-0.24801 c -0.237772,-0.4191 -0.56903,-0.65017 -0.933097,-0.65017 -0.542219,0 -1.029405,0.50624 -1.08585,1.12854 l -0.02046,0.22472 -0.19438,-0.11465 c -0.173214,-0.10231 -0.383117,-0.15628 -0.606778,-0.15628 -0.442031,0 -0.875595,0.20214 -1.159581,0.54045 -0.202141,0.24095 -0.4191,0.66217 -0.306564,1.30175 l 0.03104,0.17427 -0.239536,-0.008 c -0.517525,0 -1.030111,0.25153 -1.406878,0.68968 -0.415219,0.48331 -0.598664,1.11866 -0.503414,1.74272 l 0.02822,0.1845 -0.01517,-0.002 c 0.113947,0.86149 1.119717,1.11795 1.164872,1.12889 l 0.672395,0.16404 -0.68192,0.11571 c -0.974019,0.1651 -1.0414,1.08868 -1.024114,1.50213 l -0.286102,-0.012 c -0.01341,-0.31644 0.02011,-1.27071 0.847372,-1.64747 -0.386997,-0.18945 -0.912989,-0.57785 -0.977195,-1.27565 -0.424039,-0.0102 -0.808919,0.19121 -1.027641,0.53975 -0.263525,0.41981 -0.254353,0.99237 0.02505,1.57092 l 0.04516,0.0931 -0.07444,0.072 c -0.48895,0.47272 -0.643467,1.1363 -0.40252,1.73143"
       style="fill:#f68912;fill-opacity:1;fill-rule:nonzero;stroke:none;stroke-width:0.0352777"
       id="path104" />
    <path
       d="m 77.758944,146.65906 h 1.337381 v 1.40617 h -1.337381 v -1.40617"
       style="fill:#2d778f;fill-opacity:1;fill-rule:nonzero;stroke:none;stroke-width:0.0352777"
       id="path106" />
    <path
       d="m 79.850563,146.65906 h 1.337028 v 1.40617 h -1.337028 v -1.40617"
       style="fill:#2d778f;fill-opacity:1;fill-rule:nonzero;stroke:none;stroke-width:0.0352777"
       id="path108" />
    <path
       d="m 81.942183,146.65906 h 1.33738 v 1.40617 h -1.33738 v -1.40617"
       style="fill:#2d778f;fill-opacity:1;fill-rule:nonzero;stroke:none;stroke-width:0.0352777"
       id="path110" />
    <path
       d="m 71.408592,142.48076 h -7.404453 c -0.785989,0 -1.42875,0.64312 -1.42875,1.42875 v 4.8574 c 0,0.78599 0.642761,1.42875 1.42875,1.42875 h 5.404203 c 0.85725,0.57185 1.285875,1.4411 0.809978,2.88184 0,0 2.047522,-1.44074 1.166283,-2.88184 h 0.02399 c 0.785989,0 1.42875,-0.64276 1.42875,-1.42875 v -4.8574 c 0,-0.78563 -0.642761,-1.42875 -1.42875,-1.42875"
       style="fill:#f9dc06;fill-opacity:1;fill-rule:nonzero;stroke:none;stroke-width:0.0352777"
       id="path112" />
    <path
       d="m 79.996966,144.57661 c 0,-2.94604 -2.387952,-5.334 -5.333647,-5.334 -2.945694,0 -5.333647,2.38796 -5.333647,5.334 0,2.9457 2.387953,5.3333 5.333647,5.3333 0.06914,0 0.105834,0.003 0.174272,0 l -0.857249,3.42935 3.762374,-4.40866 c 1.368425,-0.96556 2.25425,-2.55235 2.25425,-4.35399"
       style="fill:#f1511b;fill-opacity:1;fill-rule:nonzero;stroke:none;stroke-width:0.0352777"
       id="path114" />
    <path
       d="m 73.475869,146.65906 h 2.040114 v 1.40617 h -2.040114 z m 0,-0.40287 v -0.46284 c 0,-0.23989 0.03845,-0.44556 0.115711,-0.61701 0.07726,-0.17181 0.175684,-0.32033 0.295981,-0.44591 0.119944,-0.12559 0.246944,-0.23566 0.381353,-0.3302 0.134055,-0.0942 0.261408,-0.18557 0.381352,-0.27411 0.119945,-0.0885 0.218723,-0.18027 0.295981,-0.27446 0.07691,-0.0942 0.115711,-0.20426 0.115711,-0.32985 0,-0.0974 -0.03739,-0.17886 -0.111478,-0.24448 -0.07444,-0.0656 -0.208844,-0.0984 -0.402872,-0.0984 -0.166158,0 -0.331611,0.0159 -0.497416,0.0469 -0.165806,0.0317 -0.325614,0.0716 -0.480131,0.1203 -0.154164,0.0483 -0.301272,0.10265 -0.441325,0.16263 -0.140053,0.0603 -0.269875,0.11888 -0.390172,0.17568 l -0.454025,-1.74872 c 0.154164,-0.0741 0.326672,-0.14993 0.51823,-0.22719 0.191559,-0.0773 0.40005,-0.14711 0.625828,-0.2099 0.225778,-0.0628 0.470253,-0.11571 0.733072,-0.15875 0.26282,-0.0427 0.540103,-0.0642 0.831497,-0.0642 0.382764,0 0.728839,0.0473 1.037167,0.14147 0.308681,0.0945 0.570089,0.22577 0.784578,0.3944 0.214136,0.16863 0.37853,0.36583 0.49283,0.59126 0.1143,0.22613 0.17145,0.47025 0.17145,0.73307 0,0.33726 -0.04833,0.61172 -0.145697,0.82303 -0.09737,0.21167 -0.217311,0.38982 -0.359833,0.53587 -0.143228,0.1457 -0.300214,0.27129 -0.471664,0.37712 -0.17145,0.10583 -0.328789,0.21731 -0.471664,0.33443 -0.142875,0.11713 -0.262819,0.25718 -0.359833,0.41981 -0.09737,0.16298 -0.145697,0.37288 -0.145697,0.63006 h -2.048934"
       style="fill:#732c18;fill-opacity:1;fill-rule:nonzero;stroke:none;stroke-width:0.0352777"
       id="path116" />
    <path
       d="m 66.430545,148.12203 h 1.650294 v 1.08585 h -1.650294 z m -0.235656,-4.10668 v -0.36513 h 2.13607 v 0.36513 l -0.335845,3.86397 h -1.471436 l -0.328789,-3.86397"
       style="fill:#c56e1c;fill-opacity:1;fill-rule:nonzero;stroke:none;stroke-width:0.0352777"
       id="path118" />
  </g>
</svg>
