<?xml version="1.0" encoding="UTF-8" standalone="no"?>
<!-- Created with Inkscape (http://www.inkscape.org/) -->

<svg
   width="81.548843"
   height="81.43084"
   viewBox="0 0 81.548843 81.43084"
   version="1.1"
   id="SVGRoot"
   sodipodi:docname="8.svg"
   inkscape:version="1.2 (dc2aedaf03, 2022-05-15)"
   xmlns:inkscape="http://www.inkscape.org/namespaces/inkscape"
   xmlns:sodipodi="http://sodipodi.sourceforge.net/DTD/sodipodi-0.dtd"
   xmlns="http://www.w3.org/2000/svg"
   xmlns:svg="http://www.w3.org/2000/svg">
  <sodipodi:namedview
     id="namedview585"
     pagecolor="#505050"
     bordercolor="#ffffff"
     borderopacity="1"
     inkscape:showpageshadow="0"
     inkscape:pageopacity="0"
     inkscape:pagecheckerboard="1"
     inkscape:deskcolor="#505050"
     inkscape:document-units="px"
     showgrid="false"
     inkscape:zoom="4.1020923"
     inkscape:cx="24.134025"
     inkscape:cy="-16.455017"
     inkscape:window-width="1920"
     inkscape:window-height="1001"
     inkscape:window-x="-9"
     inkscape:window-y="-9"
     inkscape:window-maximized="1"
     inkscape:current-layer="layer1" />
  <defs
     id="defs580" />
  <g
     inkscape:label="Warstwa 1"
     inkscape:groupmode="layer"
     id="layer1"
     transform="translate(-5.2996254,41.446755)">
    <path
       d="m 44.631532,-31.168416 c 0,-10.754667 -12.825333,-13.74 -17.686666,-5.738667 -3.78,-1.910667 -8.909334,1.686667 -7.289334,5.738667 -4.994666,-0.962667 -12.9613326,4.530666 -9.7199993,12.889333 -5.8039999,1.074666 -5.9413332,9.6733326 -1.6213333,11.4639992 -3.7786666,1.792 -2.8333333,8.7199998 2.5666666,8.4799998 -4.3199999,2.9839999 -2.4306666,12.896 4.858667,13.134666 -4.32,3.105334 -0.54,9.076 3.915999,6.568 -4.049333,4.896 0.405334,11.802667 8.234667,10.14 0.541333,10.398666 16.741333,12.170666 16.741333,0 0,-12.169333 0,-62.675998 0,-62.675998"
       style="fill:#87ce26;fill-opacity:1;fill-rule:nonzero;stroke:none;stroke-width:0.133333"
       id="path270" />
    <path
       d="m 47.518198,-31.168416 c 0,-10.754667 12.825333,-13.74 17.684,-5.738667 3.78,-1.910667 8.912,1.686667 7.292,5.738667 4.994666,-0.962667 12.958666,4.530666 9.718666,12.889333 5.805333,1.074666 5.94,9.6733326 1.62,11.4639992 3.781333,1.792 2.836,8.7199998 -2.565333,8.4799998 4.32,2.9839999 2.429333,12.896 -4.858667,13.134666 4.32,3.105334 0.538667,9.076 -3.914666,6.568 4.049333,4.896 -0.406667,11.802667 -8.237333,10.14 -0.538667,10.398666 -16.738667,12.170666 -16.738667,0 0,-12.169333 0,-62.675998 0,-62.675998"
       style="fill:#f68912;fill-opacity:1;fill-rule:nonzero;stroke:none;stroke-width:0.133333"
       id="path272" />
    <path
       d="m 27.124866,-7.9390837 c -7.66,0 -12.998667,1.8746666 -12.998667,3.5573332 0,1.6813333 5.338667,3.55599992 12.998667,3.55599992 7.661333,0 13.001333,-1.87466662 13.001333,-3.55599992 0,-1.6826666 -5.34,-3.5573332 -13.001333,-3.5573332 z m 0,8.11333309 c -6.786667,0 -13.998667,-1.59733329 -13.998667,-4.55599989 0,-2.9599999 7.212,-4.5573332 13.998667,-4.5573332 6.787999,0 14.001333,1.5973333 14.001333,4.5573332 0,2.9586666 -7.213334,4.55599989 -14.001333,4.55599989"
       style="fill:#2d778f;fill-opacity:1;fill-rule:nonzero;stroke:none;stroke-width:0.133333"
       id="path274" />
    <path
       d="m 27.124866,-17.38175 c -1.682667,0 -3.556,5.338666 -3.556,12.9999995 0,7.6613331 1.873333,12.9999997 3.556,12.9999997 1.681333,0 3.556,-5.3386666 3.556,-12.9999997 0,-7.6613335 -1.874667,-12.9999995 -3.556,-12.9999995 z m 0,26.9999992 c -2.96,0 -4.556,-7.2133332 -4.556,-13.9999997 0,-6.7866665 1.596,-13.9999995 4.556,-13.9999995 2.958666,0 4.555999,7.213333 4.555999,13.9999995 0,6.7866665 -1.597333,13.9999997 -4.555999,13.9999997"
       style="fill:#2d778f;fill-opacity:1;fill-rule:nonzero;stroke:none;stroke-width:0.133333"
       id="path276" />
    <path
       d="m 35.443532,-13.852417 c -2.282667,0 -6.737333,2.86 -10.832,6.9546666 -2.517333,2.5173332 -4.585333,5.1706665 -5.824,7.47333312 -1.097333,2.04133328 -1.425333,3.66399988 -0.854666,4.23466658 0.185333,0.184 0.48,0.2773333 0.874666,0.2773333 2.281334,0 6.736,-2.8599999 10.830667,-6.9559998 5.418666,-5.4159999 7.868,-10.5173328 6.678666,-11.7066668 -0.182666,-0.184 -0.477333,-0.277333 -0.873333,-0.277333 z m -16.636,19.9399996 c -0.670666,0 -1.202666,-0.192 -1.581333,-0.5706667 -0.949333,-0.9479999 -0.713333,-2.8213332 0.681334,-5.4146665 1.282666,-2.3866666 3.411999,-5.1226665 5.995999,-7.7066665 4.336,-4.3359999 8.973333,-7.2479999 11.54,-7.2479999 0.670667,0 1.202667,0.192 1.581333,0.569333 2.092,2.094667 -1.88,8.3240002 -6.677333,13.1226668 -4.337333,4.3346665 -8.974666,7.2479998 -11.54,7.2479998"
       style="fill:#2d778f;fill-opacity:1;fill-rule:nonzero;stroke:none;stroke-width:0.133333"
       id="path278" />
    <path
       d="m 18.807532,-13.852417 c -0.394666,0 -0.689333,0.09333 -0.874666,0.277333 -0.570667,0.570667 -0.242667,2.193334 0.854666,4.2333336 1.238667,2.3026666 3.306667,4.9573332 5.824,7.4733332 4.094667,4.0959999 8.549333,6.9559998 10.830667,6.9559998 0.397333,0 0.692,-0.093333 0.874666,-0.2773333 1.190667,-1.1893333 -1.26,-6.2906665 -6.678666,-11.7079997 -4.094667,-4.0946666 -8.549333,-6.9546666 -10.830667,-6.9546666 z M 35.442199,6.0875826 c -2.565334,0 -7.201333,-2.9133333 -11.538667,-7.2479998 -2.584,-2.584 -4.713333,-5.3213332 -5.995999,-7.7066665 -1.394667,-2.5933333 -1.630667,-4.4666663 -0.68,-5.4160003 0.377333,-0.377333 0.909333,-0.569333 1.579999,-0.569333 2.566667,0 7.204,2.912 11.54,7.2479999 4.797333,4.7986666 8.770667,11.0293331 6.677333,13.121333 -0.378666,0.3786667 -0.910666,0.5706667 -1.582666,0.5706667"
       style="fill:#2d778f;fill-opacity:1;fill-rule:nonzero;stroke:none;stroke-width:0.133333"
       id="path280" />
    <path
       d="M 75.272864,4.7302493 H 54.212865 V -19.975083 H 75.272864 V 4.7302493"
       style="fill:#ffffff;fill-opacity:1;fill-rule:nonzero;stroke:none;stroke-width:0.133333"
       id="path282" />
    <path
       d="m 69.332865,-17.592417 h -9.182667 v -4.764 h 9.182667 v 4.764"
       style="fill:#732c18;fill-opacity:1;fill-rule:nonzero;stroke:none;stroke-width:0.133333"
       id="path284" />
    <path
       d="m 68.619531,4.7302493 1.965334,8.7733327 3.161333,-0.709333 -1.806667,-8.0639997 h -3.32"
       style="fill:#732c18;fill-opacity:1;fill-rule:nonzero;stroke:none;stroke-width:0.133333"
       id="path286" />
    <path
       d="m 57.543532,4.7302493 -1.806667,8.0639997 3.161333,0.709333 1.966667,-8.7733327 h -3.321333"
       style="fill:#732c18;fill-opacity:1;fill-rule:nonzero;stroke:none;stroke-width:0.133333"
       id="path288" />
    <path
       d="m 30.363532,-16.820417 c 0,0.893333 -0.724,1.618667 -1.618666,1.618667 -0.894667,0 -1.62,-0.725334 -1.62,-1.618667 0,-0.894666 0.725333,-1.621333 1.62,-1.621333 0.894666,0 1.618666,0.726667 1.618666,1.621333"
       style="fill:#f9dc06;fill-opacity:1;fill-rule:nonzero;stroke:none;stroke-width:0.133333"
       id="path290" />
    <path
       d="m 17.742199,-7.0084171 c 0,0.8946667 -0.724,1.62 -1.62,1.62 -0.896,0 -1.62,-0.7253333 -1.62,-1.62 0,-0.8946666 0.724,-1.62 1.62,-1.62 0.896,0 1.62,0.7253334 1.62,1.62"
       style="fill:#f9dc06;fill-opacity:1;fill-rule:nonzero;stroke:none;stroke-width:0.133333"
       id="path292" />
    <path
       d="m 38.715532,4.7302493 c 0,0.8946666 -0.725333,1.6199999 -1.621333,1.6199999 -0.894667,0 -1.621334,-0.7253333 -1.621334,-1.6199999 0,-0.8946667 0.726667,-1.62 1.621334,-1.62 0.896,0 1.621333,0.7253333 1.621333,1.62"
       style="fill:#f9dc06;fill-opacity:1;fill-rule:nonzero;stroke:none;stroke-width:0.133333"
       id="path294" />
    <path
       d="m 20.395532,5.5875826 c 0,0.8946666 -0.725333,1.62 -1.62,1.62 -0.895999,0 -1.619999,-0.7253334 -1.619999,-1.62 0,-0.8946667 0.724,-1.62 1.619999,-1.62 0.894667,0 1.62,0.7253333 1.62,1.62"
       style="fill:#f9dc06;fill-opacity:1;fill-rule:nonzero;stroke:none;stroke-width:0.133333"
       id="path296" />
  </g>
</svg>
