<?xml version="1.0" encoding="UTF-8" standalone="no"?>
<!-- Created with Inkscape (http://www.inkscape.org/) -->

<svg
   width="112.08504"
   height="50.027752"
   viewBox="0 0 112.08504 50.027752"
   version="1.1"
   id="SVGRoot"
   sodipodi:docname="12.svg"
   inkscape:version="1.2 (dc2aedaf03, 2022-05-15)"
   xmlns:inkscape="http://www.inkscape.org/namespaces/inkscape"
   xmlns:sodipodi="http://sodipodi.sourceforge.net/DTD/sodipodi-0.dtd"
   xmlns="http://www.w3.org/2000/svg"
   xmlns:svg="http://www.w3.org/2000/svg">
  <sodipodi:namedview
     id="namedview585"
     pagecolor="#505050"
     bordercolor="#ffffff"
     borderopacity="1"
     inkscape:showpageshadow="0"
     inkscape:pageopacity="0"
     inkscape:pagecheckerboard="1"
     inkscape:deskcolor="#505050"
     inkscape:document-units="px"
     showgrid="false"
     inkscape:zoom="4.1020923"
     inkscape:cx="42.1736"
     inkscape:cy="-71.792631"
     inkscape:window-width="1920"
     inkscape:window-height="1001"
     inkscape:window-x="-9"
     inkscape:window-y="-9"
     inkscape:window-maximized="1"
     inkscape:current-layer="layer1" />
  <defs
     id="defs580" />
  <g
     inkscape:label="Warstwa 1"
     inkscape:groupmode="layer"
     id="layer1"
     transform="translate(-9.5337662,-20.572619)">
    <path
       d="m 61.994688,34.175039 c 7.425333,-8.658667 -11.136,-21.172 -17.078666,-7.617333 -3.116,-5.494667 -9.056,-2.673334 -9.501333,2.226666 -3.862667,-2.274666 -10.692,0.893334 -9.504,7.624 -5.052,-0.198667 -9.702666,4.948 -8.812,10.790666 -4.354666,-0.494666 -8.0173328,3.861334 -5.244,9.602667 -5.8439994,5.652 0.208,15.426666 8.612,10.890666 0,0 -0.497333,2.724 8.809333,2.724 6.116,0 14.652,0.184 14.652,0.184 0,0 5.741333,-0.432 5.741333,-3.008 2.474667,3.565333 15.146666,5.146667 15.146666,-7.228 0,-12.374666 0,-10.689333 0,-16.829332 0,-8.216 -2.821333,-9.36 -2.821333,-9.36"
       style="fill:#f9dc06;fill-opacity:1;fill-rule:nonzero;stroke:none;stroke-width:0.133333"
       id="path362" />
    <path
       d="m 69.156021,34.175039 c -7.423999,-8.658667 11.138667,-21.172 17.08,-7.617333 3.116,-5.494667 9.056,-2.673334 9.501333,2.226666 3.862667,-2.274666 10.691996,0.893334 9.505336,7.624 5.04933,-0.198667 9.70133,4.948 8.81066,10.790666 4.356,-0.494666 8.01867,3.861334 5.24534,9.602667 5.84266,5.652 -0.20934,15.426666 -8.612,10.890666 0,0 0.49733,2.724 -8.81067,2.724 -6.115999,0 -14.651999,0.184 -14.651999,0.184 0,0 -5.741333,-0.432 -5.741333,-3.008 -2.474667,3.565333 -15.148,5.146667 -15.148,-7.228 0,-12.374666 0,-10.689333 0,-16.829332 0,-8.216 2.821333,-9.36 2.821333,-9.36"
       style="fill:#f9dc06;fill-opacity:1;fill-rule:nonzero;stroke:none;stroke-width:0.133333"
       id="path364" />
    <path
       d="M 75.742688,48.645705 H 52.281355 v -1.189333 h 23.461333 c 6.057333,0 9.030666,-2.482667 9.290666,-4.944 0.22,-2.098667 -1.501333,-4.629333 -5.844,-5.556 l 0.248,-1.162667 c 5.066667,1.081334 7.054667,4.216 6.777334,6.842667 -0.293334,2.770666 -3.210667,6.009333 -10.472,6.009333"
       style="fill:#f1511b;fill-opacity:1;fill-rule:nonzero;stroke:none;stroke-width:0.133333"
       id="path366" />
    <path
       d="m 75.742688,36.023039 c 1.746666,-0.429334 3.948,-1.253334 5.365333,-2.229334 l -1.336,2.690667 0.693333,2.922667 c -1.161333,-1.272 -3.118666,-2.569334 -4.722666,-3.384"
       style="fill:#f1511b;fill-opacity:1;fill-rule:nonzero;stroke:none;stroke-width:0.133333"
       id="path368" />
    <path
       d="m 74.109355,57.533705 h -1.189334 v -15.496 h 1.189334 v 15.496"
       style="fill:#f1511b;fill-opacity:1;fill-rule:nonzero;stroke:none;stroke-width:0.133333"
       id="path370" />
    <path
       d="m 73.516021,61.119038 c -0.626666,-1.688 -1.696,-3.78 -2.824,-5.078666 l 2.824,1.024 2.824,-1.024 c -1.132,1.298666 -2.2,3.390666 -2.824,5.078666"
       style="fill:#f1511b;fill-opacity:1;fill-rule:nonzero;stroke:none;stroke-width:0.133333"
       id="path372" />
    <path
       d="m 51.230688,63.545705 c -2.157333,0 -4.557333,-1.333334 -5.653333,-4.533334 l 1.122667,-0.385333 c 0.893333,2.609333 2.930666,4.064 5.176,3.677333 2.037333,-0.338666 4.414666,-2.384 4.414666,-7.033333 V 31.728372 h 1.188 v 23.542666 c 0,5.392 -2.912,7.792 -5.406666,8.206667 -0.274667,0.044 -0.554667,0.068 -0.841334,0.068"
       style="fill:#f1511b;fill-opacity:1;fill-rule:nonzero;stroke:none;stroke-width:0.133333"
       id="path374" />
    <path
       d="m 45.598689,55.271038 c 0.909333,1.552 2.325333,3.426667 3.665333,4.508 l -2.96,-0.516 -2.604,1.498667 c 0.888,-1.474667 1.576,-3.721333 1.898667,-5.490667"
       style="fill:#f1511b;fill-opacity:1;fill-rule:nonzero;stroke:none;stroke-width:0.133333"
       id="path376" />
    <path
       d="M 71.288021,39.735039 H 45.769355 v -1.188 h 25.518666 v 1.188"
       style="fill:#f1511b;fill-opacity:1;fill-rule:nonzero;stroke:none;stroke-width:0.133333"
       id="path378" />
    <path
       d="m 42.184022,39.141705 c 1.686667,-0.626666 3.78,-1.694666 5.077333,-2.825333 l -1.022666,2.825333 1.022666,2.824 c -1.297333,-1.130666 -3.390666,-2.198666 -5.077333,-2.824"
       style="fill:#f1511b;fill-opacity:1;fill-rule:nonzero;stroke:none;stroke-width:0.133333"
       id="path380" />
    <path
       d="m 35.620022,59.735038 -1.18,-0.136 c 1.141334,-9.812 7.265333,-15.44 16.801333,-15.44 v 1.188 c -5.209333,0 -14.164,1.869334 -15.621333,14.388"
       style="fill:#f1511b;fill-opacity:1;fill-rule:nonzero;stroke:none;stroke-width:0.133333"
       id="path382" />
    <path
       d="m 34.830689,63.252371 c -0.513333,-1.724 -1.441333,-3.882666 -2.484,-5.252 l 2.752,1.205334 2.884,-0.833334 c -1.213334,1.22 -2.417333,3.238667 -3.152,4.88"
       style="fill:#f1511b;fill-opacity:1;fill-rule:nonzero;stroke:none;stroke-width:0.133333"
       id="path384" />
    <path
       d="m 80.872021,53.373705 v -1.189333 c 5.209333,0 14.162666,-1.868 15.622666,-14.388 l 1.181334,0.137333 c -1.144,9.812 -7.268,15.44 -16.804,15.44"
       style="fill:#f1511b;fill-opacity:1;fill-rule:nonzero;stroke:none;stroke-width:0.133333"
       id="path386" />
    <path
       d="m 97.284021,34.280372 c 0.513333,1.725333 1.441333,3.882667 2.484,5.252 l -2.750667,-1.205333 -2.885333,0.833333 c 1.213333,-1.22 2.417333,-3.238667 3.152,-4.88"
       style="fill:#f1511b;fill-opacity:1;fill-rule:nonzero;stroke:none;stroke-width:0.133333"
       id="path388" />
    <path
       d="m 25.226689,48.627038 -0.838667,-0.838666 14.844,-14.842667 0.84,0.84 -14.845333,14.841333"
       style="fill:#f1511b;fill-opacity:1;fill-rule:nonzero;stroke:none;stroke-width:0.133333"
       id="path390" />
    <path
       d="m 42.186689,30.829705 c -0.750667,1.634667 -1.476,3.869334 -1.593334,5.586667 l -1.274666,-2.72 -2.72,-1.274667 c 1.717333,-0.117333 3.952,-0.841333 5.588,-1.592"
       style="fill:#f1511b;fill-opacity:1;fill-rule:nonzero;stroke:none;stroke-width:0.133333"
       id="path392" />
    <path
       d="m 22.976022,61.897705 -0.875999,-0.802667 c 8.377333,-9.173333 9.383999,-15.326666 3.477333,-21.237333 l 0.837333,-0.84 c 6.394667,6.394667 5.366667,13.237333 -3.438667,22.88"
       style="fill:#f1511b;fill-opacity:1;fill-rule:nonzero;stroke:none;stroke-width:0.133333"
       id="path394" />
    <path
       d="m 20.054689,64.088371 c 0.693334,-1.66 1.338667,-3.918666 1.396,-5.638666 l 1.368,2.673333 2.762667,1.178667 c -1.710667,0.177333 -3.92,0.98 -5.526667,1.786666"
       style="fill:#f1511b;fill-opacity:1;fill-rule:nonzero;stroke:none;stroke-width:0.133333"
       id="path396" />
    <path
       d="m 86.104021,62.093705 c -2.708,0 -5.202667,-1.162667 -7.538667,-3.5 l 0.84,-0.84 c 3.5,3.5 7.236,4.065333 11.753333,1.794666 4.217334,-2.125333 8.770667,-6.510666 13.858663,-11.597333 l 0.84,0.838667 c -5.16266,5.162667 -9.789329,9.613333 -14.165329,11.818666 -1.962667,0.989334 -3.821333,1.485334 -5.588,1.485334"
       style="fill:#f1511b;fill-opacity:1;fill-rule:nonzero;stroke:none;stroke-width:0.133333"
       id="path398" />
    <path
       d="m 107.96935,45.832372 c -0.76666,1.626666 -1.512,3.854666 -1.648,5.570666 l -1.248,-2.732 -2.708,-1.301333 c 1.71867,-0.1 3.96134,-0.802667 5.604,-1.537333"
       style="fill:#f1511b;fill-opacity:1;fill-rule:nonzero;stroke:none;stroke-width:0.133333"
       id="path400" />
    <path
       d="m 106.66135,63.295038 -19.307996,-19.309333 0.838667,-0.84 19.309329,19.310666 -0.84,0.838667"
       style="fill:#f1511b;fill-opacity:1;fill-rule:nonzero;stroke:none;stroke-width:0.133333"
       id="path402" />
    <path
       d="m 109.61602,65.411038 c -1.636,-0.750667 -3.86933,-1.474667 -5.588,-1.593333 l 2.72,-1.274667 1.276,-2.718667 c 0.116,1.716 0.84133,3.950667 1.592,5.586667"
       style="fill:#f1511b;fill-opacity:1;fill-rule:nonzero;stroke:none;stroke-width:0.133333"
       id="path404" />
  </g>
</svg>
