<?xml version="1.0" encoding="UTF-8" standalone="no"?>
<!-- Created with Inkscape (http://www.inkscape.org/) -->

<svg
   width="429.77029"
   height="742.58136"
   viewBox="0 0 429.77029 742.58136"
   version="1.1"
   id="SVGRoot"
   sodipodi:docname="6.svg"
   inkscape:version="1.2 (dc2aedaf03, 2022-05-15)"
   xmlns:inkscape="http://www.inkscape.org/namespaces/inkscape"
   xmlns:sodipodi="http://sodipodi.sourceforge.net/DTD/sodipodi-0.dtd"
   xmlns="http://www.w3.org/2000/svg"
   xmlns:svg="http://www.w3.org/2000/svg">
  <sodipodi:namedview
     id="namedview585"
     pagecolor="#505050"
     bordercolor="#ffffff"
     borderopacity="1"
     inkscape:showpageshadow="0"
     inkscape:pageopacity="0"
     inkscape:pagecheckerboard="1"
     inkscape:deskcolor="#505050"
     inkscape:document-units="px"
     showgrid="false"
     inkscape:zoom="4.1020923"
     inkscape:cx="23.402691"
     inkscape:cy="-4.9974497"
     inkscape:window-width="1920"
     inkscape:window-height="1001"
     inkscape:window-x="-9"
     inkscape:window-y="-9"
     inkscape:window-maximized="1"
     inkscape:current-layer="layer1" />
  <defs
     id="defs580" />
  <g
     inkscape:label="Warstwa 1"
     inkscape:groupmode="layer"
     id="layer1"
     transform="translate(-2.4020534,0.92173339)">
    <path
       d="m 390.17278,670.36394 c 0,-10.77733 -12.82506,-13.768 -17.6844,-5.752 -3.77973,-1.91333 -8.90986,1.692 -7.29013,5.752 -4.99475,-0.96533 -12.95933,4.54 -9.71923,12.916 -5.80625,1.076 -5.94062,9.692 -1.62082,11.48667 -3.7797,1.79333 -2.83491,8.736 2.56457,8.496 -4.31875,2.98933 -2.42968,12.92266 4.86095,13.16 -4.32032,3.112 -0.54063,9.09466 3.91453,6.58266 -4.05,4.90534 0.40573,11.82534 8.23493,10.16134 0.54014,10.41866 16.7396,12.19466 16.7396,0 0,-12.196 0,-62.80267 0,-62.80267"
       style="fill:#53c5c7;fill-opacity:1;fill-rule:nonzero;stroke:none;stroke-width:0.133333"
       id="path458" />
    <path
       d="m 366.18838,687.17861 h -1.01826 v -10.01867 l 11.4,-11.40133 0.72093,0.72133 -11.10267,11.10267 v 9.596"
       style="fill:#2d778f;fill-opacity:1;fill-rule:nonzero;stroke:none;stroke-width:0.133333"
       id="path460" />
    <path
       d="m 370.55665,687.17861 h -1.0188 v -8.47867 l 6.48547,-6.48666 0.72133,0.72 -6.188,6.188 v 8.05733"
       style="fill:#2d778f;fill-opacity:1;fill-rule:nonzero;stroke:none;stroke-width:0.133333"
       id="path462" />
    <path
       d="m 385.52745,696.92128 -9.2328,-9.23334 h -15.75312 v -1.01866 h 16.17552 l 9.53173,9.532 -0.72133,0.72"
       style="fill:#2d778f;fill-opacity:1;fill-rule:nonzero;stroke:none;stroke-width:0.133333"
       id="path464" />
    <path
       d="m 381.93945,736.87861 -0.7208,-0.71867 4.16147,-4.16133 v -51.07867 h 1.01813 v 51.50133 l -4.4588,4.45734"
       style="fill:#2d778f;fill-opacity:1;fill-rule:nonzero;stroke:none;stroke-width:0.133333"
       id="path466" />
    <path
       d="m 381.57905,692.76128 h -14.66933 v -1.01734 h 14.66933 v 1.01734"
       style="fill:#2d778f;fill-opacity:1;fill-rule:nonzero;stroke:none;stroke-width:0.133333"
       id="path468" />
    <path
       d="m 374.37638,710.05327 h -1.01866 v -10.29999 l 7.86093,-7.86134 0.7208,0.72 -7.56307,7.564 v 9.87733"
       style="fill:#2d778f;fill-opacity:1;fill-rule:nonzero;stroke:none;stroke-width:0.133333"
       id="path470" />
    <path
       d="m 369.06492,714.60661 h -1.01814 v -14.61467 l 8.0984,-8.1 0.7208,0.72 -7.80106,7.80267 v 14.192"
       style="fill:#2d778f;fill-opacity:1;fill-rule:nonzero;stroke:none;stroke-width:0.133333"
       id="path472" />
    <path
       d="m 373.84678,687.17861 h -1.01826 v -6.40933 l 10.13853,-10.14 0.7208,0.72133 -9.84107,9.84133 v 5.98667"
       style="fill:#2d778f;fill-opacity:1;fill-rule:nonzero;stroke:none;stroke-width:0.133333"
       id="path474" />
    <path
       d="m 385.52852,706.64527 -5.00734,-5.00666 0.7204,-0.72133 5.00667,5.00666 -0.71973,0.72133"
       style="fill:#2d778f;fill-opacity:1;fill-rule:nonzero;stroke:none;stroke-width:0.133333"
       id="path476" />
    <path
       d="m 377.26972,721.48394 -0.7204,-0.72 8.97813,-8.98 0.72133,0.72 -8.97906,8.98"
       style="fill:#2d778f;fill-opacity:1;fill-rule:nonzero;stroke:none;stroke-width:0.133333"
       id="path478" />
    <path
       d="m 385.88892,708.66261 h -6.32654 v -1.01867 h 6.32654 v 1.01867"
       style="fill:#2d778f;fill-opacity:1;fill-rule:nonzero;stroke:none;stroke-width:0.133333"
       id="path480" />
    <path
       d="m 385.88892,676.49461 h -7.55574 v -1.01867 h 7.55574 v 1.01867"
       style="fill:#2d778f;fill-opacity:1;fill-rule:nonzero;stroke:none;stroke-width:0.133333"
       id="path482" />
    <path
       d="m 377.02438,726.73861 h -6.6328 v -1.01734 h 6.21094 l 8.92493,-8.928 0.72133,0.72 -9.2244,9.22534"
       style="fill:#2d778f;fill-opacity:1;fill-rule:nonzero;stroke:none;stroke-width:0.133333"
       id="path484" />
    <path
       d="m 368.19572,710.41461 -8.62763,-8.62667 v -6.372 h 1.01875 v 5.948 l 8.32808,8.32933 -0.7192,0.72134"
       style="fill:#2d778f;fill-opacity:1;fill-rule:nonzero;stroke:none;stroke-width:0.133333"
       id="path486" />
    <path
       d="m 378.45865,666.11994 c 0,0.844 -0.68427,1.528 -1.52853,1.528 -0.84374,0 -1.52867,-0.684 -1.52867,-1.528 0,-0.84533 0.68493,-1.52933 1.52867,-1.52933 0.84426,0 1.52853,0.684 1.52853,1.52933"
       style="fill:#2d778f;fill-opacity:1;fill-rule:nonzero;stroke:none;stroke-width:0.133333"
       id="path488" />
    <path
       d="m 360.73736,687.17861 c 0,0.844 -0.68438,1.52933 -1.52916,1.52933 -0.84376,0 -1.52866,-0.68533 -1.52866,-1.52933 0,-0.844 0.6849,-1.528 1.52866,-1.528 0.84478,0 1.52916,0.684 1.52916,1.528"
       style="fill:#2d778f;fill-opacity:1;fill-rule:nonzero;stroke:none;stroke-width:0.133333"
       id="path490" />
    <path
       d="m 384.85718,670.99061 c 0,0.844 -0.6844,1.528 -1.5292,1.528 -0.8432,0 -1.52866,-0.684 -1.52866,-1.528 0,-0.84533 0.68546,-1.53067 1.52866,-1.53067 0.8448,0 1.5292,0.68534 1.5292,1.53067"
       style="fill:#2d778f;fill-opacity:1;fill-rule:nonzero;stroke:none;stroke-width:0.133333"
       id="path492" />
    <path
       d="m 387.41865,682.25328 c 0,0.84533 -0.686,1.52933 -1.52973,1.52933 -0.84427,0 -1.5292,-0.684 -1.5292,-1.52933 0,-0.84267 0.68493,-1.528 1.5292,-1.528 0.84373,0 1.52973,0.68533 1.52973,1.528"
       style="fill:#2d778f;fill-opacity:1;fill-rule:nonzero;stroke:none;stroke-width:0.133333"
       id="path494" />
    <path
       d="m 368.43945,692.25194 c 0,0.844 -0.6844,1.528 -1.52973,1.528 -0.84374,0 -1.52814,-0.684 -1.52814,-1.528 0,-0.84533 0.6844,-1.528 1.52814,-1.528 0.84533,0 1.52973,0.68267 1.52973,1.528"
       style="fill:#2d778f;fill-opacity:1;fill-rule:nonzero;stroke:none;stroke-width:0.133333"
       id="path496" />
    <path
       d="m 361.60718,695.41594 c 0,0.844 -0.68546,1.528 -1.53024,1.528 -0.8427,0 -1.5276,-0.684 -1.5276,-1.528 0,-0.844 0.6849,-1.528 1.5276,-1.528 0.84478,0 1.53024,0.684 1.53024,1.528"
       style="fill:#2d778f;fill-opacity:1;fill-rule:nonzero;stroke:none;stroke-width:0.133333"
       id="path498" />
    <path
       d="m 370.08372,714.60661 c 0,0.844 -0.68494,1.528 -1.52814,1.528 -0.8448,0 -1.52973,-0.684 -1.52973,-1.528 0,-0.844 0.68493,-1.528 1.52973,-1.528 0.8432,0 1.52814,0.684 1.52814,1.528"
       style="fill:#2d778f;fill-opacity:1;fill-rule:nonzero;stroke:none;stroke-width:0.133333"
       id="path500" />
    <path
       d="m 375.39625,710.05327 c 0,0.844 -0.68653,1.52934 -1.5292,1.52934 -0.84373,0 -1.52973,-0.68534 -1.52973,-1.52934 0,-0.844 0.686,-1.528 1.52973,-1.528 0.84267,0 1.5292,0.684 1.5292,1.528"
       style="fill:#2d778f;fill-opacity:1;fill-rule:nonzero;stroke:none;stroke-width:0.133333"
       id="path502" />
    <path
       d="m 382.41025,701.27861 c 0,0.84267 -0.68533,1.528 -1.5292,1.528 -0.84373,0 -1.528,-0.68533 -1.528,-1.528 0,-0.84533 0.68427,-1.52933 1.528,-1.52933 0.84387,0 1.5292,0.684 1.5292,1.52933"
       style="fill:#2d778f;fill-opacity:1;fill-rule:nonzero;stroke:none;stroke-width:0.133333"
       id="path504" />
    <path
       d="m 378.43732,721.12394 c 0,0.844 -0.68427,1.528 -1.52814,1.528 -0.84426,0 -1.52906,-0.684 -1.52906,-1.528 0,-0.84533 0.6848,-1.528 1.52906,-1.528 0.84387,0 1.52814,0.68267 1.52814,1.528"
       style="fill:#2d778f;fill-opacity:1;fill-rule:nonzero;stroke:none;stroke-width:0.133333"
       id="path506" />
    <path
       d="m 371.92012,726.22927 c 0,0.844 -0.6848,1.528 -1.52854,1.528 -0.84426,0 -1.52866,-0.684 -1.52866,-1.528 0,-0.84533 0.6844,-1.528 1.52866,-1.528 0.84374,0 1.52854,0.68267 1.52854,1.528"
       style="fill:#2d778f;fill-opacity:1;fill-rule:nonzero;stroke:none;stroke-width:0.133333"
       id="path508" />
    <path
       d="m 383.10772,736.51994 c 0,0.844 -0.68547,1.528 -1.52867,1.528 -0.84427,0 -1.5292,-0.684 -1.5292,-1.528 0,-0.84533 0.68493,-1.528 1.5292,-1.528 0.8432,0 1.52867,0.68267 1.52867,1.528"
       style="fill:#2d778f;fill-opacity:1;fill-rule:nonzero;stroke:none;stroke-width:0.133333"
       id="path510" />
    <path
       d="m 392.84198,670.36394 c 0,-10.77733 12.82507,-13.768 17.6844,-5.752 3.78027,-1.91333 8.91,1.692 7.29067,5.752 4.9948,-0.96533 12.95933,4.54 9.71933,12.916 5.8056,1.076 5.94053,9.692 1.62027,11.48667 3.77973,1.79333 2.83533,8.736 -2.56467,8.496 4.31933,2.98933 2.42973,12.92266 -4.8604,13.16 4.3204,3.112 0.54013,9.09466 -3.91453,6.58266 4.05,4.90534 -0.40574,11.82534 -8.23547,10.16134 -0.5396,10.41866 -16.7396,12.19466 -16.7396,0 0,-12.196 0,-62.80267 0,-62.80267"
       style="fill:#53c5c7;fill-opacity:1;fill-rule:nonzero;stroke:none;stroke-width:0.133333"
       id="path512" />
    <path
       d="m 416.82638,687.17861 h 1.01827 v -10.01867 l -11.39947,-11.40133 -0.7208,0.72133 11.102,11.10267 v 9.596"
       style="fill:#2d778f;fill-opacity:1;fill-rule:nonzero;stroke:none;stroke-width:0.133333"
       id="path514" />
    <path
       d="m 412.45865,687.17861 h 1.01827 v -8.47867 l -6.48494,-6.48666 -0.72133,0.72 6.188,6.188 v 8.05733"
       style="fill:#2d778f;fill-opacity:1;fill-rule:nonzero;stroke:none;stroke-width:0.133333"
       id="path516" />
    <path
       d="m 397.48732,696.92128 9.2328,-9.23334 h 15.75373 v -1.01866 h -16.17613 l -9.53174,9.532 0.72134,0.72"
       style="fill:#2d778f;fill-opacity:1;fill-rule:nonzero;stroke:none;stroke-width:0.133333"
       id="path518" />
    <path
       d="m 401.07585,736.87861 0.72093,-0.71867 -4.16146,-4.16133 v -51.07867 h -1.01827 v 51.50133 l 4.4588,4.45734"
       style="fill:#2d778f;fill-opacity:1;fill-rule:nonzero;stroke:none;stroke-width:0.133333"
       id="path520" />
    <path
       d="m 401.43585,692.76128 h 14.6692 v -1.01734 h -14.6692 v 1.01734"
       style="fill:#2d778f;fill-opacity:1;fill-rule:nonzero;stroke:none;stroke-width:0.133333"
       id="path522" />
    <path
       d="m 408.63838,710.05327 h 1.0188 v -10.29999 l -7.8604,-7.86134 -0.72093,0.72 7.56253,7.564 v 9.87733"
       style="fill:#2d778f;fill-opacity:1;fill-rule:nonzero;stroke:none;stroke-width:0.133333"
       id="path524" />
    <path
       d="m 413.95038,714.60661 h 1.01827 v -14.61467 l -8.09853,-8.1 -0.72134,0.72 7.8016,7.80267 v 14.192"
       style="fill:#2d778f;fill-opacity:1;fill-rule:nonzero;stroke:none;stroke-width:0.133333"
       id="path526" />
    <path
       d="m 409.16865,687.17861 h 1.01773 v -6.40933 l -10.13866,-10.14 -0.7208,0.72133 9.84173,9.84133 v 5.98667"
       style="fill:#2d778f;fill-opacity:1;fill-rule:nonzero;stroke:none;stroke-width:0.133333"
       id="path528" />
    <path
       d="m 397.48678,706.64527 5.0068,-5.00666 -0.71973,-0.72133 -5.00733,5.00666 0.72026,0.72133"
       style="fill:#2d778f;fill-opacity:1;fill-rule:nonzero;stroke:none;stroke-width:0.133333"
       id="path530" />
    <path
       d="m 405.74518,721.48394 0.7208,-0.72 -8.97866,-8.98 -0.72134,0.72 8.9792,8.98"
       style="fill:#2d778f;fill-opacity:1;fill-rule:nonzero;stroke:none;stroke-width:0.133333"
       id="path532" />
    <path
       d="m 397.12585,676.49461 h 7.55627 v -1.01867 h -7.55627 v 1.01867"
       style="fill:#2d778f;fill-opacity:1;fill-rule:nonzero;stroke:none;stroke-width:0.133333"
       id="path536" />
    <path
       d="m 405.99052,726.73861 h 6.6328 v -1.01734 h -6.21094 l -8.92506,-8.928 -0.72134,0.72 9.22454,9.22534"
       style="fill:#2d778f;fill-opacity:1;fill-rule:nonzero;stroke:none;stroke-width:0.133333"
       id="path538" />
    <path
       d="m 414.81971,710.41461 8.6276,-8.62667 v -6.372 h -1.01933 v 5.948 l -8.32813,8.32933 0.71986,0.72134"
       style="fill:#2d778f;fill-opacity:1;fill-rule:nonzero;stroke:none;stroke-width:0.133333"
       id="path540" />
    <path
       d="m 404.55665,666.11994 c 0,0.844 0.68387,1.528 1.52867,1.528 0.84373,0 1.52866,-0.684 1.52866,-1.528 0,-0.84533 -0.68493,-1.52933 -1.52866,-1.52933 -0.8448,0 -1.52867,0.684 -1.52867,1.52933"
       style="fill:#2d778f;fill-opacity:1;fill-rule:nonzero;stroke:none;stroke-width:0.133333"
       id="path542" />
    <path
       d="m 422.27745,687.17861 c 0,0.844 0.6844,1.52933 1.52973,1.52933 0.84373,0 1.52867,-0.68533 1.52867,-1.52933 0,-0.844 -0.68494,-1.528 -1.52867,-1.528 -0.84533,0 -1.52973,0.684 -1.52973,1.528"
       style="fill:#2d778f;fill-opacity:1;fill-rule:nonzero;stroke:none;stroke-width:0.133333"
       id="path544" />
    <path
       d="m 398.15825,670.99061 c 0,0.844 0.68373,1.528 1.52907,1.528 0.84333,0 1.52866,-0.684 1.52866,-1.528 0,-0.84533 -0.68533,-1.53067 -1.52866,-1.53067 -0.84534,0 -1.52907,0.68534 -1.52907,1.53067"
       style="fill:#2d778f;fill-opacity:1;fill-rule:nonzero;stroke:none;stroke-width:0.133333"
       id="path546" />
    <path
       d="m 395.59678,682.25328 c 0,0.84533 0.68534,1.52933 1.52907,1.52933 0.84427,0 1.5292,-0.684 1.5292,-1.52933 0,-0.84267 -0.68493,-1.528 -1.5292,-1.528 -0.84373,0 -1.52907,0.68533 -1.52907,1.528"
       style="fill:#2d778f;fill-opacity:1;fill-rule:nonzero;stroke:none;stroke-width:0.133333"
       id="path548" />
    <path
       d="m 414.57585,692.25194 c 0,0.844 0.6844,1.528 1.5292,1.528 0.84373,0 1.52813,-0.684 1.52813,-1.528 0,-0.84533 -0.6844,-1.528 -1.52813,-1.528 -0.8448,0 -1.5292,0.68267 -1.5292,1.528"
       style="fill:#2d778f;fill-opacity:1;fill-rule:nonzero;stroke:none;stroke-width:0.133333"
       id="path550" />
    <path
       d="m 421.40825,695.41594 c 0,0.844 0.68533,1.528 1.5296,1.528 0.8432,0 1.52813,-0.684 1.52813,-1.528 0,-0.844 -0.68493,-1.528 -1.52813,-1.528 -0.84427,0 -1.5296,0.684 -1.5296,1.528"
       style="fill:#2d778f;fill-opacity:1;fill-rule:nonzero;stroke:none;stroke-width:0.133333"
       id="path552" />
    <path
       d="m 412.93105,714.60661 c 0,0.844 0.68493,1.528 1.52813,1.528 0.84533,0 1.53027,-0.684 1.53027,-1.528 0,-0.844 -0.68494,-1.528 -1.53027,-1.528 -0.8432,0 -1.52813,0.684 -1.52813,1.528"
       style="fill:#2d778f;fill-opacity:1;fill-rule:nonzero;stroke:none;stroke-width:0.133333"
       id="path554" />
    <path
       d="m 407.61918,710.05327 c 0,0.844 0.68587,1.52934 1.52907,1.52934 0.84373,0 1.5292,-0.68534 1.5292,-1.52934 0,-0.844 -0.68547,-1.528 -1.5292,-1.528 -0.8432,0 -1.52907,0.684 -1.52907,1.528"
       style="fill:#2d778f;fill-opacity:1;fill-rule:nonzero;stroke:none;stroke-width:0.133333"
       id="path556" />
    <path
       d="m 400.60452,701.27861 c 0,0.84267 0.68546,1.528 1.5292,1.528 0.84373,0 1.52813,-0.68533 1.52813,-1.528 0,-0.84533 -0.6844,-1.52933 -1.52813,-1.52933 -0.84374,0 -1.5292,0.684 -1.5292,1.52933"
       style="fill:#2d778f;fill-opacity:1;fill-rule:nonzero;stroke:none;stroke-width:0.133333"
       id="path558" />
    <path
       d="m 404.57798,721.12394 c 0,0.844 0.6844,1.528 1.52814,1.528 0.84426,0 1.5292,-0.684 1.5292,-1.528 0,-0.84533 -0.68494,-1.528 -1.5292,-1.528 -0.84374,0 -1.52814,0.68267 -1.52814,1.528"
       style="fill:#2d778f;fill-opacity:1;fill-rule:nonzero;stroke:none;stroke-width:0.133333"
       id="path560" />
    <path
       d="m 411.09465,726.22927 c 0,0.844 0.68493,1.528 1.52867,1.528 0.8448,0 1.52866,-0.684 1.52866,-1.528 0,-0.84533 -0.68386,-1.528 -1.52866,-1.528 -0.84374,0 -1.52867,0.68267 -1.52867,1.528"
       style="fill:#2d778f;fill-opacity:1;fill-rule:nonzero;stroke:none;stroke-width:0.133333"
       id="path562" />
    <path
       d="m 399.90718,736.51994 c 0,0.844 0.68534,1.528 1.52867,1.528 0.8448,0 1.52907,-0.684 1.52907,-1.528 0,-0.84533 -0.68427,-1.528 -1.52907,-1.528 -0.84333,0 -1.52867,0.68267 -1.52867,1.528"
       style="fill:#2d778f;fill-opacity:1;fill-rule:nonzero;stroke:none;stroke-width:0.133333"
       id="path564" />
    <path
       d="m 84.898278,66.935598 c -1.916,-0.88 -4.097333,-0.733333 -5.693333,0.384 l -0.62,-0.885333 c 1.909333,-1.336 4.5,-1.52 6.764,-0.478667 1.978666,0.909334 3.265333,2.546667 3.444,4.378667 l -1.074667,0.105333 c -0.141333,-1.446666 -1.196,-2.756 -2.82,-3.504 z m 15.580002,12.569333 -0.28134,-0.272 0.17067,-0.352 c 1.056,-2.186666 1.09067,-4.350666 0.0947,-5.937333 -0.826669,-1.317333 -2.281336,-2.078667 -3.884002,-2.04 -0.242667,2.637333 -2.230667,4.105333 -3.693334,4.821333 3.126667,1.424 3.253334,5.030667 3.202667,6.226667 l -1.081333,0.04533 c 0.06533,-1.562666 -0.189334,-5.053333 -3.870667,-5.677333 l -2.577333,-0.437333 2.541333,-0.62 c 0.170667,-0.04133 3.972,-1.010667 4.402667,-4.266667 l -0.05733,0.0067 0.106667,-0.697333 c 0.36,-2.358667 -0.334667,-4.76 -1.902667,-6.586667 -1.424,-1.656 -3.361333,-2.606667 -5.317333,-2.606667 l -0.905333,0.03067 0.117333,-0.658667 c 0.425334,-2.417333 -0.394666,-4.009333 -1.158666,-4.919999 -1.073334,-1.278667 -2.712,-2.042667 -4.382667,-2.042667 -0.845333,0 -1.638667,0.204 -2.293333,0.590667 l -0.734667,0.433333 -0.07733,-0.849333 c -0.213334,-2.352 -2.054667,-4.265334 -4.104,-4.265334 -1.376,0 -2.628,0.873334 -3.526667,2.457334 l -0.532,0.937333 -0.433333,-0.986667 c -1.445333,-3.3 -3.936,-5.117333 -7.009333,-5.117333 -3.432,0 -7.076,2.3 -8.48,5.350667 -0.985333,2.146666 -0.678667,4.321333 0.869333,6.123999 l 0.488,0.569334 -0.696,0.282666 c -0.008,0.004 -2.228,1.129334 -2.228,8.009334 v 11.963999 c 0.493334,-1.553333 1.2,-2.888 2.132,-3.977333 1.649334,-1.929333 3.934667,-2.992 6.437334,-2.992 l 0.248,0.01067 c 0.438666,-3.616 2.470666,-4.968 3.707999,-5.441333 1.057334,-0.404 2.236,-0.468 3.373334,-0.254667 2.445333,-3.408 0.904,-5.878667 0.110666,-6.790667 -1.509333,-1.736 -3.957333,-2.393333 -5.575999,-1.496 l -0.524,-0.945333 c 2.047999,-1.130666 5.083999,-0.373333 6.914666,1.733333 1.913333,2.201334 1.946667,5.073334 0.166667,7.788 0.906666,0.329334 1.752,0.845334 2.438666,1.536 1.154667,1.158667 1.668,2.618667 1.493334,4.142667 2.465333,-1.393334 5.093333,-1.554667 7.374666,-0.410667 2.656,1.332 4.372,4.226667 4.372,7.373333 0,3.504 -2.670667,5.758667 -5.308,6.172 -0.306667,0.048 -0.606667,0.072 -0.898667,0.072 -2.141333,0 -3.883999,-1.258667 -4.566666,-3.378666 l 1.026667,-0.330667 c 0.734666,2.274666 2.689333,2.821333 4.270666,2.570666 2.185333,-0.342666 4.396,-2.206666 4.396,-5.105333 0,-2.742666 -1.481333,-5.257333 -3.777333,-6.408 -2.302667,-1.156 -4.938667,-0.772 -7.42,1.081334 l -1.502667,1.121333 0.676,-1.749333 c 0.845334,-2.182667 -0.202666,-3.686667 -0.901333,-4.388 -1.472,-1.478667 -3.892,-2.037333 -5.753333,-1.324 -1.689333,0.644 -2.744,2.242667 -3.030667,4.524 3.584,0.526666 6.318667,3.162666 6.318667,6.333333 h -1.078667 c 0,-2.953333 -2.938667,-5.356 -6.550666,-5.356 -2.181334,0 -4.176,0.928 -5.616,2.613333 -1.762667,2.061334 -2.697334,5.250667 -2.702667,9.222667 1.106667,5.285333 5.572,5.746666 7.073333,5.746666 2.285334,0 4.634667,-0.9 5.464,-2.094666 L 67.015649,87.2023 v 1.725334 c 0,1.490666 3.448,2.093333 4.694666,2.192 0.506667,-0.01067 7.965333,-0.165334 13.305333,-0.165334 5.088,0 6.714667,-0.898666 7.230667,-1.433333 0.246666,-0.254667 0.242666,-0.433333 0.242666,-0.441333 l -0.202666,-1.105334 0.994666,0.568 c 1.222667,0.66 2.432,0.994667 3.593334,0.994667 2.290666,0 4.256005,-1.337333 5.125335,-3.488 0.91067,-2.249333 0.32667,-4.757333 -1.52133,-6.544"
       style="fill:#f68912;fill-opacity:1;fill-rule:nonzero;stroke:none;stroke-width:0.133333"
       id="path100" />
    <path
       d="m 96.586278,28.562266 c 0,-8.201333 -10.276,-14.849333 -22.952,-14.849333 -12.675999,0 -22.951999,6.648 -22.951999,14.849333 0,8.201333 10.276,14.849333 22.951999,14.849333 2.693334,0 5.157333,-0.274667 7.557333,-0.826667 3.664,3.861333 2.993334,7.882667 -0.426666,13.193333 0,0 11.409333,-7.569333 7.474666,-15.761333 5.098667,-2.722666 8.346667,-6.842666 8.346667,-11.454666"
       style="fill:#53c5c7;fill-opacity:1;fill-rule:nonzero;stroke:none;stroke-width:0.133333"
       id="path102" />
    <path
       d="m 17.10628,70.439598 -1.074667,-0.105333 c 0.178667,-1.832 1.465333,-3.469333 3.444,-4.378667 2.264,-1.041333 4.854667,-0.857333 6.764,0.478667 l -0.62,0.885333 c -1.596,-1.117333 -3.777333,-1.264 -5.693333,-0.384 -1.625334,0.748 -2.678667,2.057334 -2.82,3.504 z M 2.824948,86.048931 c 0.8693334,2.150667 2.8346653,3.488 5.1253319,3.488 1.1613333,0 2.3706671,-0.334667 3.5933331,-0.994667 l 0.994667,-0.568 -0.202667,1.105334 c 0,0.008 -0.004,0.186666 0.242667,0.441333 0.516,0.534667 2.142666,1.433333 7.230666,1.433333 5.34,0 12.798667,0.154667 13.305333,0.165334 1.246667,-0.09867 4.694667,-0.701334 4.694667,-2.192 v -1.725334 l 0.982666,1.417334 c 0.829334,1.194666 3.178667,2.094666 5.464,2.094666 1.501334,0 5.966667,-0.461333 7.072,-5.746666 -0.004,-3.972 -0.938666,-7.161333 -2.701333,-9.222667 -1.44,-1.685333 -3.434667,-2.613333 -5.616,-2.613333 -3.612,0 -6.550666,2.402667 -6.550666,5.356 h -1.078667 c 0,-3.170667 2.734666,-5.806667 6.318666,-6.333333 -0.286666,-2.281333 -1.341333,-3.88 -3.030666,-4.524 -1.861333,-0.713333 -4.281333,-0.154667 -5.753333,1.324 -0.698667,0.701333 -1.746667,2.205333 -0.901334,4.388 l 0.676,1.749333 -1.502666,-1.121333 c -2.481334,-1.853334 -5.117334,-2.237334 -7.42,-1.081334 -2.296,1.150667 -3.777333,3.665334 -3.777333,6.408 0,2.898667 2.210666,4.762667 4.396,5.105333 1.579999,0.250667 3.535999,-0.296 4.270666,-2.570666 l 1.026667,0.330667 c -0.682667,2.119999 -2.425334,3.378666 -4.566667,3.378666 -0.292,0 -0.593333,-0.024 -0.898666,-0.072 -2.637334,-0.413333 -5.308,-2.668 -5.308,-6.172 0,-3.146666 1.716,-6.041333 4.372,-7.373333 2.281333,-1.144 4.909333,-0.982667 7.374666,0.410667 -0.174667,-1.524 0.338667,-2.984 1.493333,-4.142667 0.686667,-0.690666 1.532,-1.206666 2.438667,-1.536 -1.78,-2.714666 -1.746667,-5.586666 0.166667,-7.788 1.830666,-2.106666 4.866666,-2.863999 6.914666,-1.733333 l -0.524,0.945333 c -1.618667,-0.897333 -4.066666,-0.24 -5.576,1.496 -0.793333,0.912 -2.334666,3.382667 0.110667,6.790667 1.137333,-0.213333 2.314667,-0.149333 3.373333,0.254667 1.237333,0.473333 3.269333,1.825333 3.708,5.441333 l 0.248,-0.01067 c 2.502667,0 4.788,1.062667 6.437333,2.992 0.932,1.089333 1.638667,2.424 2.132,3.977333 V 67.056932 c 0,-6.88 -2.22,-8.005334 -2.228,-8.009334 l -0.696,-0.282666 0.488,-0.569334 c 1.546667,-1.802666 1.854667,-3.977333 0.869334,-6.123999 -1.404,-3.050667 -5.048,-5.350667 -8.48,-5.350667 -3.073334,0 -5.564,1.817333 -7.010667,5.117333 l -0.432,0.986667 -0.532,-0.937333 c -0.898666,-1.584 -2.150666,-2.457334 -3.526666,-2.457334 -2.049334,0 -3.890667,1.913334 -4.104,4.265334 l -0.07733,0.849333 -0.734666,-0.433333 c -0.654667,-0.386667 -1.448,-0.590667 -2.293333,-0.590667 -1.670667,0 -3.309334,0.764 -4.382667,2.042667 -0.764,0.910666 -1.584,2.502666 -1.158667,4.919999 l 0.117334,0.658667 -0.905334,-0.03067 c -1.956,0 -3.893333,0.950667 -5.317333,2.606667 -1.5693331,1.826667 -2.2626664,4.228 -1.9026664,6.586667 l 0.1066666,0.697333 -0.057333,-0.0067 c 0.4306666,3.256 4.2319998,4.225333 4.4026658,4.266667 l 2.541334,0.62 -2.577334,0.437333 c -3.681333,0.624 -3.9359992,4.114667 -3.8706658,5.677333 l -1.0813333,-0.04533 c -0.050667,-1.196 0.076,-4.802667 3.2026661,-6.226667 -1.462666,-0.716 -3.4506661,-2.184 -3.6933328,-4.821333 -1.6026666,-0.03867 -3.0573332,0.722667 -3.8839986,2.04 -0.9959999,1.586667 -0.9613333,3.750667 0.094667,5.937333 l 0.1706667,0.352 -0.2813334,0.272 c -1.8479999,1.786667 -2.4319999,4.294667 -1.5213333,6.544"
       style="fill:#f68912;fill-opacity:1;fill-rule:nonzero;stroke:none;stroke-width:0.133333"
       id="path104" />
    <path
       d="m 64.984945,27.108933 h 5.054667 v 5.314666 h -5.054667 v -5.314666"
       style="fill:#2d778f;fill-opacity:1;fill-rule:nonzero;stroke:none;stroke-width:0.133333"
       id="path106" />
    <path
       d="m 72.890278,27.108933 h 5.053334 v 5.314666 h -5.053334 v -5.314666"
       style="fill:#2d778f;fill-opacity:1;fill-rule:nonzero;stroke:none;stroke-width:0.133333"
       id="path108" />
    <path
       d="m 80.795611,27.108933 h 5.054667 v 5.314666 h -5.054667 v -5.314666"
       style="fill:#2d778f;fill-opacity:1;fill-rule:nonzero;stroke:none;stroke-width:0.133333"
       id="path110" />
    <path
       d="M 40.983612,11.316933 H 12.99828 c -2.970667,0 -5.4000001,2.430667 -5.4000001,5.4 v 18.358666 c 0,2.970667 2.4293331,5.4 5.4000001,5.4 h 20.425333 c 3.24,2.161333 4.859999,5.446666 3.061333,10.892 0,0 7.738666,-5.445334 4.408,-10.892 h 0.09067 c 2.970667,0 5.4,-2.429333 5.4,-5.4 V 16.716933 c 0,-2.969333 -2.429333,-5.4 -5.4,-5.4"
       style="fill:#f9dc06;fill-opacity:1;fill-rule:nonzero;stroke:none;stroke-width:0.133333"
       id="path112" />
    <path
       d="m 73.443612,19.238266 c 0,-11.1346663 -9.025333,-20.15999939 -20.158667,-20.15999939 -11.133333,0 -20.158666,9.02533309 -20.158666,20.15999939 0,11.133333 9.025333,20.157333 20.158666,20.157333 0.261334,0 0.4,0.01067 0.658667,0 l -3.24,12.961333 14.22,-16.662666 c 5.172,-3.649334 8.52,-9.646667 8.52,-16.456"
       style="fill:#f1511b;fill-opacity:1;fill-rule:nonzero;stroke:none;stroke-width:0.133333"
       id="path114" />
    <path
       d="m 48.796946,27.108933 h 7.710666 v 5.314666 h -7.710666 z m 0,-1.522667 v -1.749333 c 0,-0.906667 0.145333,-1.684 0.437333,-2.332 0.292,-0.649334 0.664,-1.210667 1.118667,-1.685334 0.453333,-0.474666 0.933333,-0.890666 1.441333,-1.248 0.506666,-0.356 0.988,-0.701333 1.441333,-1.036 0.453333,-0.334666 0.826667,-0.681333 1.118667,-1.037333 0.290666,-0.356 0.437333,-0.772 0.437333,-1.246666 0,-0.368 -0.141333,-0.676 -0.421333,-0.924 -0.281334,-0.248 -0.789334,-0.372 -1.522667,-0.372 -0.628,0 -1.253333,0.06 -1.88,0.177333 -0.626666,0.12 -1.230666,0.270667 -1.814666,0.454667 -0.582667,0.182666 -1.138667,0.388 -1.668,0.614666 -0.529334,0.228 -1.02,0.449334 -1.474667,0.664 l -1.716,-6.609333 c 0.582667,-0.28 1.234667,-0.5666666 1.958667,-0.8586666 0.724,-0.292 1.512,-0.556 2.365333,-0.7933333 0.853333,-0.2373334 1.777333,-0.4373334 2.770666,-0.6 0.993334,-0.1613333 2.041334,-0.2426667 3.142667,-0.2426667 1.446667,0 2.754667,0.1786667 3.92,0.5346667 1.166667,0.3573333 2.154667,0.8533333 2.965333,1.4906666 0.809334,0.6373333 1.430667,1.3826663 1.862667,2.2346663 0.432,0.854667 0.648,1.777334 0.648,2.770667 0,1.274667 -0.182667,2.312 -0.550667,3.110667 -0.368,0.799999 -0.821333,1.473333 -1.36,2.025333 -0.541333,0.550666 -1.134666,1.025333 -1.782666,1.425333 -0.648,0.4 -1.242667,0.821333 -1.782667,1.264 -0.54,0.442667 -0.993333,0.972 -1.36,1.586667 -0.368,0.616 -0.550667,1.409333 -0.550667,2.381333 h -7.743999"
       style="fill:#732c18;fill-opacity:1;fill-rule:nonzero;stroke:none;stroke-width:0.133333"
       id="path116" />
    <path
       d="m 22.168946,32.638266 h 6.237333 v 4.104 H 22.168946 Z M 21.27828,17.116933 v -1.38 h 8.073333 v 1.38 L 28.082279,31.720932 H 22.520946 L 21.27828,17.116933"
       style="fill:#c56e1c;fill-opacity:1;fill-rule:nonzero;stroke:none;stroke-width:0.133333"
       id="path118" />
  </g>
</svg>
